{
.appVersion = "3316";
.formatVersion = 3;
axes = (
{
name = Weight;
tag = wght;
}
);
customParameters = (
{
name = license;
value = "This Font Software is licensed under the SIL Open Font License, Version 1.1. This license is available with a FAQ at: http://scripts.sil.org/OFL";
},
{
name = licenseURL;
value = "http://scripts.sil.org/OFL";
},
{
name = descriptions;
value = "Libre Franklin is a reinterpretation and expansion of the 1912 Morris Fuller Benton’s classic.";
},
{
name = licenses;
value = "This Font Software is licensed under the SIL Open Font License, Version 1.1. This license is available with a FAQ at: http://scripts.sil.org/OFL";
},
{
name = preferredFamilyNames;
value = "Libre Franklin";
},
{
name = fsType;
value = (
);
},
{
name = vendorID;
value = IMPA;
},
{
name = trademarks;
value = "Libre Franklin is a trademark of Impallari Type.";
}
);
date = "2016-11-14 22:13:29 +0000";
familyName = "Libre Franklin";
featurePrefixes = (
{
code = "languagesystem DFLT dflt;
languagesystem latn dflt;
languagesystem latn CAT;
languagesystem latn ROM;
languagesystem latn MOL;
languagesystem latn KAZ;
languagesystem latn TAT;
languagesystem latn TRK;
languagesystem latn CRT;
languagesystem latn AZE;";
name = Languagesystems;
}
);
features = (
{
code = "feature ccmp;
feature locl;
feature subs;
feature sinf;
feature sups;
feature numr;
feature dnom;
feature frac;
feature ordn;";
tag = aalt;
},
{
code = "lookup ccmp_Other_1 {
	@CombiningTopAccents = [acutecomb brevecomb breveinvertedcomb caroncomb circumflexcomb dblgravecomb dieresiscomb dotaccentcomb gravecomb hookabovecomb hungarumlautcomb macroncomb ringcomb tildecomb];
	@CombiningNonTopAccents = [cedillacomb dotbelowcomb ogonekcomb horncomb];
	sub [i j]' @CombiningTopAccents by [idotless jdotless];
	sub [i j]' @CombiningNonTopAccents @CombiningTopAccents by [idotless jdotless];
} ccmp_Other_1;

lookup ccmp_latn_1 {
	script latn;
	lookupflag 0;
	sub brevecomb acutecomb by brevecomb_acutecomb;

glyphs = (
{
glyphname = A;
kernLeft = A;
kernRight = A;
lastChange = "2024-09-04 09:59:18 +0000";
layers = (
{
anchors = (
{
name = bottom;
pos = (350,0);
},
{
name = ogonek;
pos = (639,11);
},
{
name = top;
pos = (350,742);
}
);
background = {
anchors = (
{
name = ogonek;
pos = (639,11);
},
{
name = top;
pos = (350,742);
}
);
shapes = (
{
closed = 1;
nodes = (
(60,0,l),
(85,0,ls),
(91,0,o),
(95,2,o),
(96,7,c),
(179,231,ls),
(181,236,o),
(183,238,o),
(189,238,c),
(511,238,ls),
(517,238,o),
(519,236,o),
(521,231,c),
(602,8,ls),
(604,2,o),
(608,0,o),
(615,0,c),
(639,0,ls),
(646,0,o),
(649,4,o),
(647,10,c),
(385,732,ls),
(383,739,o),
(377,742,o),
(367,742,c),
(334,742,ls),
(325,742,o),
(321,739,o),
(318,731,c),
(53,9,ls),
(51,3,o),
(54,0,o),
(60,0,c)
);
},
{
closed = 1;
nodes = (
(203,278,l),
(197,278,o),
(195,279,o),
(198,286,c),
(343,677,ls),
(348,691,o),
(353,691,o),
(358,678,c),
(501,288,ls),
(503,282,o),
(502,278,o),
(494,278,c)
);
}
);
};
layerId = "91AB5BCA-6A50-42DA-B2F7-8181BF189245";
shapes = (
{
closed = 1;
nodes = (
(60,0,l),
(85,0,ls),
(91,0,o),
(95,2,o),
(96,7,c),
(179,231,ls),
(181,236,o),
(183,238,o),
(189,238,c),
(511,238,ls),
(517,238,o),
(519,236,o),
(521,231,c),
(602,8,ls),
(604,2,o),
(608,0,o),
(615,0,c),
(639,0,ls),
(646,0,o),
(649,4,o),
(647,10,c),
(385,732,ls),
(383,739,o),
(377,742,o),
(367,742,c),
(334,742,ls),
(325,742,o),
(321,739,o),
(318,731,c),
(53,9,ls),
(51,3,o),
(54,0,o),
(60,0,c)
);
},
{
closed = 1;
nodes = (
(203,278,l),
(197,278,o),
(195,279,o),
(198,286,c),
(343,677,ls),
(348,691,o),
(353,691,o),
(358,678,c),
(501,288,ls),
(503,282,o),
(502,278,o),
(494,278,c)
);
}
);
width = 700;
},
{
anchors = (
{
name = bottom;
pos = (400,0);
},
{
name = ogonek;
pos = (746,9);
},
{
name = top;
pos = (395,742);
}
);
background = {
anchors = (
{
name = ogonek;
pos = (746,9);
},
{
name = top;
pos = (395,742);
}
);
shapes = (
{
closed = 1;
nodes = (
(43,0,l),
(195,0,ls),
(209,0,o),
(216,7,o),
(219,15,c),
(260,133,ls),
(262,140,o),
(267,144,o),
(275,144,c),
(487,144,ls),
(497,144,o),
(499,139,o),
(502,132,c),
(541,17,ls),
(545,4,o),
(553,0,o),
(563,0,c),
(759,0,ls),
(774,0,o),
(778,20,o),
(773,34,c),
(533,715,ls),
(527,731,o),
(514,742,o),
(497,742,c),
(300,742,ls),
(282,742,o),
(276,735,o),
(270,719,c),
(28,37,ls),
(20,15,o),
(28,0,o),
(43,0,c)
);
},
{
closed = 1;
nodes = (
(323,314,l),
(311,314,o),
(308,322,o),
(313,335,c),
(374,505,ls),
(376,512,o),
(383,512,o),
(386,505,c),
(446,334,ls),
(450,321,o),
(448,314,o),
(437,314,c)
);
}
);
};
layerId = "258ED206-D907-4350-8EBA-CBDDA1C16BF7";
shapes = (
{
closed = 1;
nodes = (
(43,0,l),
(195,0,ls),
(209,0,o),
(216,7,o),
(219,15,c),
(260,133,ls),
(262,140,o),
(267,144,o),
(275,144,c),
(487,144,ls),
(497,144,o),
(499,139,o),
(502,132,c),
(541,17,ls),
(545,4,o),
(553,0,o),
(563,0,c),
(759,0,ls),
(774,0,o),
(778,20,o),
(773,34,c),
(533,715,ls),
(527,731,o),
(514,742,o),
(497,742,c),
(300,742,ls),
(282,742,o),
(276,735,o),
(270,719,c),
(28,37,ls),
(20,15,o),
(28,0,o),
(43,0,c)
);
},
{
closed = 1;
nodes = (
(323,314,l),
(311,314,o),
(308,322,o),
(313,335,c),
(374,505,ls),
(376,512,o),
(383,512,o),
(386,505,c),
(446,334,ls),
(450,321,o),
(448,314,o),
(437,314,c)
);
}
);
width = 799;
}
);
unicode = 65;
},
{
glyphname = Aringacute;
kernLeft = A;
kernRight = A;
lastChange = "2024-09-04 09:59:18 +0000";
layers = (
{
background = {
shapes = (
{
closed = 1;
nodes = (
(418,802,l),
(418,857,o),
(374,900,o),
(318,900,c),
(263,900,o),
(218,857,o),
(218,804,c),
(218,746,o),
(262,702,o),
(318,702,c),
(374,702,o),
(418,745,o),
(418,802,c)
);
},
{
closed = 1;
nodes = (
(375,801,l),
(375,770,o),
(350,742,o),
(317,742,c),
(286,742,o),
(258,770,o),
(258,801,c),
(258,836,o),
(286,860,o),
(317,860,c),
(350,860,o),
(375,836,o),
(375,801,c)
);
},
{
closed = 1;
nodes = (
(303,742,l),
(294,742,o),
(290,739,o),
(287,731,c),
(40,9,l),
(38,4,o),
(41,0,o),
(47,0,c),
(69,0,ls),
(75,0,o),
(78,2,o),
(80,7,c),
(157,231,ls),
(159,236,o),
(161,238,o),
(167,238,c),
(463,238,ls),
(469,238,o),
(471,236,o),
(473,231,c),
(549,8,ls),
(551,2,o),
(554,0,o),
(561,0,c),
(588,0,ls),
(595,0,o),
(598,4,o),
(596,10,c),
(353,732,l),
(351,739,o),
(345,742,o),
(335,742,c)
);
},
{
closed = 1;
nodes = (
(455,288,l),
(457,282,o),
(456,278,o),
(448,278,c),
(179,278,ls),
(173,278,o),
(172,279,o),
(175,286,c),
(308,677,ls),
(313,691,o),
(319,691,o),
(323,678,c)
);
},
{
closed = 1;
nodes = (
(339,964,l),
(328,964,o),
(323,960,o),
(321,951,c),
(303,875,l),
(341,875,l),
(372,948,ls),
(376,958,o),
(373,964,o),
(362,964,c)
);
}
);
};
layerId = "91AB5BCA-6A50-42DA-B2F7-8181BF189245";
shapes = (
{
closed = 1;
nodes = (
(418,802,l),
(418,857,o),
(374,900,o),
(318,900,c),
(263,900,o),
(218,857,o),
(218,804,c),
(218,746,o),
(262,702,o),
(318,702,c),
(374,702,o),
(418,745,o),
(418,802,c)
);
},
{
closed = 1;
nodes = (
(375,801,l),
(375,770,o),
(350,742,o),
(317,742,c),
(286,742,o),
(258,770,o),
(258,801,c),
(258,836,o),
(286,860,o),
(317,860,c),
(350,860,o),
(375,836,o),
(375,801,c)
);
},
{
closed = 1;
nodes = (
(303,742,l),
(294,742,o),
(290,739,o),
(287,731,c),
(40,9,l),
(38,4,o),
(41,0,o),
(47,0,c),
(69,0,ls),
(75,0,o),
(78,2,o),
(80,7,c),
(157,231,ls),
(159,236,o),
(161,238,o),
(167,238,c),
(463,238,ls),
(469,238,o),
(471,236,o),
(473,231,c),
(549,8,ls),
(551,2,o),
(554,0,o),
(561,0,c),
(588,0,ls),
(595,0,o),
(598,4,o),
(596,10,c),
(353,732,l),
(351,739,o),
(345,742,o),
(335,742,c)
);
},
{
closed = 1;
nodes = (
(455,288,l),
(457,282,o),
(456,278,o),
(448,278,c),
(179,278,ls),
(173,278,o),
(172,279,o),
(175,286,c),
(308,677,ls),
(313,691,o),
(319,691,o),
(323,678,c)
);
},
{
closed = 1;
nodes = (
(339,964,l),
(328,964,o),
(323,960,o),
(321,951,c),
(303,875,l),
(341,875,l),
(372,948,ls),
(376,958,o),
(373,964,o),
(362,964,c)
);
}
);
width = 637;
},
{
background = {
shapes = (
{
closed = 1;
nodes = (
(471,796,l),
(471,856,o),
(422,899,o),
(361,899,c),
(301,899,o),
(251,857,o),
(251,798,c),
(251,735,o),
(300,693,o),
(361,693,c),
(422,693,o),
(471,734,o),
(471,796,c)
);
},
{
closed = 1;
nodes = (
(408,795,l),
(408,769,o),
(387,746,o),
(360,746,c),
(334,746,o),
(311,769,o),
(311,795,c),
(311,822,o),
(334,842,o),
(360,842,c),
(387,842,o),
(408,822,o),
(408,795,c)
);
},
{
closed = 1;
nodes = (
(259,742,l),
(242,742,o),
(235,735,o),
(230,719,c),
(-4,37,ls),
(-12,15,o),
(-4,0,o),
(11,0,c),
(163,0,ls),
(177,0,o),
(184,7,o),
(187,15,c),
(225,133,ls),
(227,140,o),
(232,144,o),
(240,144,c),
(441,144,ls),
(451,144,o),
(453,139,o),
(456,132,c),
(492,17,ls),
(496,4,o),
(504,0,o),
(514,0,c),
(710,0,ls),
(725,0,o),
(729,20,o),
(724,34,c),
(492,715,ls),
(487,731,o),
(474,742,o),
(457,742,c)
);
},
{
closed = 1;
nodes = (
(400,334,l),
(404,321,o),
(402,314,o),
(391,314,c),
(288,314,ls),
(276,314,o),
(273,322,o),
(278,335,c),
(334,505,ls),
(336,512,o),
(342,512,o),
(345,505,c)
);
},
{
closed = 1;
nodes = (
(370,964,l),
(351,964,o),
(338,958,o),
(332,933,c),
(318,875,l),
(404,875,l),
(429,935,ls),
(435,949,o),
(431,964,o),
(415,964,c)
);
}
);
};
layerId = "258ED206-D907-4350-8EBA-CBDDA1C16BF7";
shapes = (
{
closed = 1;
nodes = (
(471,796,l),
(471,856,o),
(422,899,o),
(361,899,c),
(301,899,o),
(251,857,o),
(251,798,c),
(251,735,o),
(300,693,o),
(361,693,c),
(422,693,o),
(471,734,o),
(471,796,c)
);
},
{
closed = 1;
nodes = (
(408,795,l),
(408,769,o),
(387,746,o),
(360,746,c),
(334,746,o),
(311,769,o),
(311,795,c),
(311,822,o),
(334,842,o),
(360,842,c),
(387,842,o),
(408,822,o),
(408,795,c)
);
},
{
closed = 1;
nodes = (
(259,742,l),
(242,742,o),
(235,735,o),
(230,719,c),
(-4,37,ls),
(-12,15,o),
(-4,0,o),
(11,0,c),
(163,0,ls),
(177,0,o),
(184,7,o),
(187,15,c),
(225,133,ls),
(227,140,o),
(232,144,o),
(240,144,c),
(441,144,ls),
(451,144,o),
(453,139,o),
(456,132,c),
(492,17,ls),
(496,4,o),
(504,0,o),
(514,0,c),
(710,0,ls),
(725,0,o),
(729,20,o),
(724,34,c),
(492,715,ls),
(487,731,o),
(474,742,o),
(457,742,c)
);
},
{
closed = 1;
nodes = (
(400,334,l),
(404,321,o),
(402,314,o),
(391,314,c),
(288,314,ls),
(276,314,o),
(273,322,o),
(278,335,c),
(334,505,ls),
(336,512,o),
(342,512,o),
(345,505,c)
);
},
{
closed = 1;
nodes = (
(370,964,l),
(351,964,o),
(338,958,o),
(332,933,c),
(318,875,l),
(404,875,l),
(429,935,ls),
(435,949,o),
(431,964,o),
(415,964,c)
);
}
);
width = 710;
}
);
unicode = 506;
},
{
glyphname = AE;
kernLeft = AE;
kernRight = E;
lastChange = "2024-09-04 09:59:18 +0000";
layers = (
{
anchors = (
{
name = top;
pos = (681,742);
}
);
background = {
anchors = (
{
name = top;
pos = (681,742);
}
);
shapes = (
{
closed = 1;
nodes = (
(903,40,l),
(550,40,ls),
(543,40,o),
(541,41,o),
(541,49,c),
(541,346,ls),
(541,354,o),
(543,355,o),
(550,355,c),
(818,355,ls),
(824,355,o),
(826,356,o),
(826,362,c),
(826,388,ls),
(826,393,o),
(824,395,o),
(819,395,c),
(550,395,ls),
(543,395,o),
(541,396,o),
(541,402,c),
(541,693,ls),
(541,701,o),
(543,702,o),
(550,702,c),
(888,702,ls),
(894,702,o),
(896,703,o),
(896,709,c),
(896,735,ls),
(896,740,o),
(894,742,o),
(889,742,c),
(484,742,ls),
(475,742,o),
(470,739,o),
(466,731,c),
(53,9,ls),
(50,4,o),
(52,0,o),
(58,0,c),
(83,0,ls),
(89,0,o),
(92,2,o),
(95,7,c),
(224,231,ls),
(227,236,o),
(230,238,o),
(236,238,c),
(490,238,ls),
(493,238,o),
(495,236,o),
(495,233,c),
(495,10,ls),
(495,2,o),
(497,0,o),
(504,0,c),
(904,0,ls),
(909,0,o),
(911,2,o),
(911,7,c),
(911,33,ls),
(911,39,o),
(909,40,o),
(903,40,c)
);
},
{
closed = 1;
nodes = (
(487,278,l),
(255,278,ls),
(249,278,o),
(248,279,o),
(252,286,c),
(480,677,ls),
(488,691,o),
(494,691,o),
(495,678,c),
(495,287,ls),
(495,282,o),
(493,278,o),
(487,278,c)
);
}
);
};
layerId = "91AB5BCA-6A50-42DA-B2F7-8181BF189245";
shapes = (
{
closed = 1;
nodes = (
(903,40,l),
(550,40,ls),
(543,40,o),
(541,41,o),
(541,49,c),
(541,346,ls),
(541,354,o),
(543,355,o),
(550,355,c),
(818,355,ls),
(824,355,o),
(826,356,o),
(826,362,c),
(826,388,ls),
(826,393,o),
(824,395,o),
(819,395,c),
(550,395,ls),
(543,395,o),
(541,396,o),
(541,402,c),
(541,693,ls),
(541,701,o),
(543,702,o),
(550,702,c),
(888,702,ls),
(894,702,o),
(896,703,o),
(896,709,c),
(896,735,ls),
(896,740,o),
(894,742,o),
(889,742,c),
(484,742,ls),
(475,742,o),
(470,739,o),
(466,731,c),
(53,9,ls),
(50,4,o),
(52,0,o),
(58,0,c),
(83,0,ls),
(89,0,o),
(92,2,o),
(95,7,c),
(224,231,ls),
(227,236,o),
(230,238,o),
(236,238,c),
(490,238,ls),
(493,238,o),
(495,236,o),
(495,233,c),
(495,10,ls),
(495,2,o),
(497,0,o),
(504,0,c),
(904,0,ls),
(909,0,o),
(911,2,o),
(911,7,c),
(911,33,ls),
(911,39,o),
(909,40,o),
(903,40,c)
);
},
{
closed = 1;
nodes = (
(487,278,l),
(255,278,ls),
(249,278,o),
(248,279,o),
(252,286,c),
(480,677,ls),
(488,691,o),
(494,691,o),
(495,678,c),
(495,287,ls),
(495,282,o),
(493,278,o),
(487,278,c)
);
}
);
width = 963;
},
{
anchors = (
{
name = top;
pos = (721,742);
}
);
background = {
anchors = (
{
name = top;
pos = (721,742);
}
);
shapes = (
{
closed = 1;
nodes = (
(1072,164,l),
(747,164,ls),
(738,164,o),
(735,167,o),
(735,178,c),
(735,278,ls),
(735,286,o),
(741,292,o),
(751,292,c),
(936,292,ls),
(949,292,o),
(954,300,o),
(954,309,c),
(954,433,ls),
(954,446,o),
(947,453,o),
(933,453,c),
(753,453,ls),
(743,453,o),
(735,460,o),
(735,474,c),
(735,559,ls),
(735,572,o),
(743,578,o),
(758,578,c),
(1058,578,ls),
(1076,578,o),
(1084,589,o),
(1084,605,c),
(1085,721,ls),
(1085,734,o),
(1079,742,o),
(1067,742,c),
(418,742,ls),
(401,742,o),
(393,735,o),
(385,719,c),
(31,37,ls),
(19,15,o),
(25,0,o),
(40,0,c),
(192,0,ls),
(206,0,o),
(214,7,o),
(218,15,c),
(277,133,l),
(280,140,o),
(286,144,o),
(294,144,c),
(495,144,ls),
(505,144,o),
(508,139,o),
(508,130,c),
(508,25,ls),
(508,8,o),
(515,0,o),
(535,0,c),
(1070,0,ls),
(1087,0,o),
(1094,10,o),
(1094,22,c),
(1094,145,ls),
(1094,159,o),
(1086,164,o),
(1072,164,c)
);
},
{
closed = 1;
nodes = (
(489,314,l),
(372,314,ls),
(360,314,o),
(358,322,o),
(366,335,c),
(468,537,ls),
(484,567,o),
(508,565,o),
(508,535,c),
(508,334,ls),
(508,321,o),
(501,314,o),
(489,314,c)
);
}
);
};
layerId = "258ED206-D907-4350-8EBA-CBDDA1C16BF7";
shapes = (
{
closed = 1;
nodes = (
(1072,164,l),
(747,164,ls),
(738,164,o),
(735,167,o),
(735,178,c),
(735,278,ls),
(735,286,o),
(741,292,o),
(751,292,c),
(936,292,ls),
(949,292,o),
(954,300,o),
(954,309,c),
(954,433,ls),
(954,446,o),
(947,453,o),
(933,453,c),
(753,453,ls),
(743,453,o),
(735,460,o),
(735,474,c),
(735,559,ls),
(735,572,o),
(743,578,o),
(758,578,c),
(1058,578,ls),
(1076,578,o),
(1084,589,o),
(1084,605,c),
(1085,721,ls),
(1085,734,o),
(1079,742,o),
(1067,742,c),
(418,742,ls),
(401,742,o),
(393,735,o),
(385,719,c),
(31,37,ls),
(19,15,o),
(25,0,o),
(40,0,c),
(192,0,ls),
(206,0,o),
(214,7,o),
(218,15,c),
(277,133,l),
(280,140,o),
(286,144,o),
(294,144,c),
(495,144,ls),
(505,144,o),
(508,139,o),
(508,130,c),
(508,25,ls),
(508,8,o),
(515,0,o),
(535,0,c),
(1070,0,ls),
(1087,0,o),
(1094,10,o),
(1094,22,c),
(1094,145,ls),
(1094,159,o),
(1086,164,o),
(1072,164,c)
);
},
{
closed = 1;
nodes = (
(489,314,l),
(372,314,ls),
(360,314,o),
(358,322,o),
(366,335,c),
(468,537,ls),
(484,567,o),
(508,565,o),
(508,535,c),
(508,334,ls),
(508,321,o),
(501,314,o),
(489,314,c)
);
}
);
width = 1127;
}
);
metricLeft = A;
metricRight = E;
unicode = 198;
},
{
glyphname = B;
kernRight = B;
lastChange = "2024-09-04 09:59:18 +0000";
layers = (
{
background = {
shapes = (
{
closed = 1;
nodes = (
(122,0,l),
(331,0,ls),
(506,0,o),
(609,65,o),
(609,197,c),
(609,297,o),
(550,356,o),
(460,373,c),
(454,374,o),
(454,380,o),
(460,382,c),
(548,409,o),
(591,467,o),
(591,551,c),
(591,675,o),
(494,742,o),
(328,742,c),
(123,742,ls),
(116,742,o),
(114,740,o),
(114,732,c),
(114,8,ls),
(114,3,o),
(117,0,o),
(122,0,c)
);
},
{
closed = 1;
nodes = (
(167,40,l),
(162,40,o),
(160,43,o),
(160,50,c),
(160,346,ls),
(160,353,o),
(163,355,o),
(171,355,c),
(340,355,ls),
(465,355,o),
(561,311,o),
(561,191,c),
(561,82,o),
(484,40,o),
(326,40,c)
);
},
{
closed = 1;
nodes = (
(167,395,l),
(162,395,o),
(160,398,o),
(160,405,c),
(160,694,ls),
(160,700,o),
(163,702,o),
(169,702,c),
(324,702,ls),
(459,702,o),
(543,654,o),
(543,546,c),
(543,424,o),
(433,395,o),
(340,395,c)
);
}
);
};
layerId = "91AB5BCA-6A50-42DA-B2F7-8181BF189245";
shapes = (
{
closed = 1;
nodes = (
(122,0,l),
(331,0,ls),
(506,0,o),
(609,65,o),
(609,197,c),
(609,297,o),
(550,356,o),
(460,373,c),
(454,374,o),
(454,380,o),
(460,382,c),
(548,409,o),
(591,467,o),
(591,551,c),
(591,675,o),
(494,742,o),
(328,742,c),
(123,742,ls),
(116,742,o),
(114,740,o),
(114,732,c),
(114,8,ls),
(114,3,o),
(117,0,o),
(122,0,c)
);
},
{
closed = 1;
nodes = (
(167,40,l),
(162,40,o),
(160,43,o),
(160,50,c),
(160,346,ls),
(160,353,o),
(163,355,o),
(171,355,c),
(340,355,ls),
(465,355,o),
(561,311,o),
(561,191,c),
(561,82,o),
(484,40,o),
(326,40,c)
);
},
{
closed = 1;
nodes = (
(167,395,l),
(162,395,o),
(160,398,o),
(160,405,c),
(160,694,ls),
(160,700,o),
(163,702,o),
(169,702,c),
(324,702,ls),
(459,702,o),
(543,654,o),
(543,546,c),
(543,424,o),
(433,395,o),
(340,395,c)
);
}
);
width = 684;
},
{
background = {
shapes = (
{
closed = 1;
nodes = (
(75,0,l),
(391,0,ls),
(607,0,o),
(710,65,o),
(710,202,c),
(710,287,o),
(671,338,o),
(561,379,c),
(558,380,o),
(558,385,o),
(561,386,c),
(661,432,o),
(692,477,o),
(692,546,c),
(692,675,o),
(582,742,o),
(375,742,c),
(77,742,ls),
(62,742,o),
(52,731,o),
(52,716,c),
(52,22,ls),
(52,10,o),
(61,0,o),
(75,0,c)
);
},
{
closed = 1;
nodes = (
(296,150,l),
(283,150,o),
(279,157,o),
(279,172,c),
(279,277,ls),
(279,292,o),
(285,298,o),
(302,298,c),
(391,298,ls),
(441,298,o),
(474,268,o),
(474,227,c),
(474,188,o),
(444,150,o),
(386,150,c)
);
},
{
closed = 1;
nodes = (
(296,452,l),
(283,452,o),
(279,459,o),
(279,474,c),
(279,572,ls),
(279,587,o),
(285,592,o),
(302,592,c),
(384,592,ls),
(431,592,o),
(468,564,o),
(468,520,c),
(468,481,o),
(438,452,o),
(391,452,c)
);
}
);
};
layerId = "258ED206-D907-4350-8EBA-CBDDA1C16BF7";
shapes = (
{
closed = 1;
nodes = (
(75,0,l),
(391,0,ls),
(607,0,o),
(710,65,o),
(710,202,c),
(710,287,o),
(671,338,o),
(561,379,c),
(558,380,o),
(558,385,o),
(561,386,c),
(661,432,o),
(692,477,o),
(692,546,c),
(692,675,o),
(582,742,o),
(375,742,c),
(77,742,ls),
(62,742,o),
(52,731,o),
(52,716,c),
(52,22,ls),
(52,10,o),
(61,0,o),
(75,0,c)
);
},
{
closed = 1;
nodes = (
(296,150,l),
(283,150,o),
(279,157,o),
(279,172,c),
(279,277,ls),
(279,292,o),
(285,298,o),
(302,298,c),
(391,298,ls),
(441,298,o),
(474,268,o),
(474,227,c),
(474,188,o),
(444,150,o),
(386,150,c)
);
},
{
closed = 1;
nodes = (
(296,452,l),
(283,452,o),
(279,459,o),
(279,474,c),
(279,572,ls),
(279,587,o),
(285,592,o),
(302,592,c),
(384,592,ls),
(431,592,o),
(468,564,o),
(468,520,c),
(468,481,o),
(438,452,o),
(391,452,c)
);
}
);
width = 739;
}
);
unicode = 66;
},
{
glyphname = C;
kernLeft = O;
kernRight = C;
lastChange = "2024-09-04 09:59:18 +0000";
layers = (
{
anchors = (
{
name = bottom;
pos = (381,0);
},
{
name = top;
pos = (375,742);
}
);
background = {
anchors = (
{
name = bottom;
pos = (381,0);
},
{
name = top;
pos = (375,742);
}
);
shapes = (
{
closed = 1;
nodes = (
(375,752,l),
(188,752,o),
(78,610,o),
(78,368,c),
(78,127,o),
(188,-10,o),
(381,-10,c),
(502,-10,o),
(602,61,o),
(637,171,c),
(638,175,o),
(637,177,o),
(635,178,c),
(601,188,ls),
(598,189,o),
(596,188,o),
(595,186,c),
(555,81,o),
(489,32,o),
(385,32,c),
(212,32,o),
(126,153,o),
(126,368,c),
(126,591,o),
(214,710,o),
(377,710,c),
(478,710,o),
(558,647,o),
(581,552,c),
(582,546,o),
(584,544,o),
(588,545,c),
(624,549,ls),
(629,549,o),
(630,551,o),
(629,556,c),
(617,659,o),
(497,752,o),
(375,752,c)
);
}
);
};
guides = (
{
angle = 90;
pos = (636,369);
}
);
layerId = "91AB5BCA-6A50-42DA-B2F7-8181BF189245";
shapes = (
{
closed = 1;
nodes = (
(375,752,l),
(188,752,o),
(78,610,o),
(78,368,c),
(78,127,o),
(188,-10,o),
(381,-10,c),
(502,-10,o),
(602,61,o),
(637,171,c),
(638,175,o),
(637,177,o),
(635,178,c),
(601,188,ls),
(598,189,o),
(596,188,o),
(595,186,c),
(555,81,o),
(489,32,o),
(385,32,c),
(212,32,o),
(126,153,o),
(126,368,c),
(126,591,o),
(214,710,o),
(377,710,c),
(478,710,o),
(558,647,o),
(581,552,c),
(582,546,o),
(584,544,o),
(588,545,c),
(624,549,ls),
(629,549,o),
(630,551,o),
(629,556,c),
(617,659,o),
(497,752,o),
(375,752,c)
);
}
);
width = 695;
},
{
anchors = (
{
name = bottom;
pos = (383,0);
},
{
name = top;
pos = (385,742);
}
);
background = {
anchors = (
{
name = bottom;
pos = (383,0);
},
{
name = top;
pos = (385,742);
}
);
shapes = (
{
closed = 1;
nodes = (
(385,752,l),
(168,752,o),
(30,606,o),
(30,381,c),
(30,155,o),
(168,-10,o),
(383,-10,c),
(614,-10,o),
(700,167,o),
(710,221,c),
(714,247,o),
(703,252,o),
(696,254,c),
(571,279,ls),
(555,282,o),
(546,279,o),
(543,271,c),
(508,183,o),
(457,154,o),
(390,154,c),
(309,154,o),
(268,212,o),
(268,377,c),
(268,540,o),
(316,598,o),
(391,598,c),
(457,598,o),
(483,553,o),
(494,495,c),
(497,481,o),
(498,476,o),
(513,476,c),
(688,487,l),
(703,489,o),
(707,494,o),
(701,522,c),
(675,655,o),
(554,752,o),
(385,752,c)
);
}
);
};
layerId = "258ED206-D907-4350-8EBA-CBDDA1C16BF7";
shapes = (
{
closed = 1;
nodes = (
(385,752,l),
(168,752,o),
(30,606,o),
(30,381,c),
(30,155,o),
(168,-10,o),
(383,-10,c),
(614,-10,o),
(700,167,o),
(710,221,c),
(714,247,o),
(703,252,o),
(696,254,c),
(571,279,ls),
(555,282,o),
(546,279,o),
(543,271,c),
(508,183,o),
(457,154,o),
(390,154,c),
(309,154,o),
(268,212,o),
(268,377,c),
(268,540,o),
(316,598,o),
(391,598,c),
(457,598,o),
(483,553,o),
(494,495,c),
(497,481,o),
(498,476,o),
(513,476,c),
(688,487,l),
(703,489,o),
(707,494,o),
(701,522,c),
(675,655,o),
(554,752,o),
(385,752,c)
);
}
);
width = 737;
}
);
unicode = 67;
},
{
glyphname = D;
kernRight = O;
lastChange = "2024-09-04 09:59:18 +0000";
layers = (
{
anchors = (
{
name = center;
pos = (342,371);
},
{
name = top;
pos = (336,742);
}
);
background = {
anchors = (
{
name = center;
pos = (342,371);
},
{
name = top;
pos = (336,742);
}
);
shapes = (
{
closed = 1;
nodes = (
(123,742,l),
(117,742,o),
(114,740,o),
(114,734,c),
(114,10,ls),
(114,3,o),
(117,0,o),
(123,0,c),
(225,0,ls),
(497,0,o),
(626,115,o),
(626,376,c),
(626,624,o),
(514,739,o),
(239,741,c),
(181,741,o),
(125,742,o),
(123,742,c)
);
},
{
closed = 1;
nodes = (
(167,701,l),
(169,701,o),
(212,701,o),
(230,701,c),
(471,696,o),
(578,628,o),
(578,372,c),
(578,130,o),
(479,40,o),
(221,40,c),
(171,40,ls),
(163,40,o),
(160,43,o),
(160,49,c),
(160,687,ls),
(160,695,o),
(163,701,o),
(167,701,c)
);
}
);
};
layerId = "91AB5BCA-6A50-42DA-B2F7-8181BF189245";
shapes = (
{
closed = 1;
nodes = (
(124,742,l),
(117,742,o),
(114,738,o),
(114,732,c),
(114,10,ls),
(114,3,o),
(117,0,o),
(123,0,c),
(225,0,ls),
(499,0,o),
(626,115,o),
(626,379,c),
(626,622,o),
(518,739,o),
(239,741,c),
(229,741,o),
(127,742,o),
(124,742,c)
);
},
{
closed = 1;
nodes = (
(170,701,l),
(223,701,ls),
(465,701,o),
(578,633,o),
(578,371,c),
(578,130,o),
(478,40,o),
(221,40,c),
(171,40,ls),
(163,40,o),
(160,43,o),
(160,49,c),
(160,687,ls),
(160,695,o),
(162,701,o),
(170,701,c)
);
}
);
width = 703;
},
{
anchors = (
{
name = center;
pos = (390,371);
},
{
name = top;
pos = (390,742);
}
);
background = {
anchors = (
{
name = center;
pos = (390,371);
},
{
name = top;
pos = (390,742);
}
);
shapes = (
{
closed = 1;
nodes = (
(79,742,l),
(59,742,o),
(52,736,o),
(52,717,c),
(52,30,ls),
(52,8,o),
(61,0,o),
(81,0,c),
(344,0,ls),
(607,0,o),
(740,157,o),
(740,373,c),
(740,584,o),
(613,731,o),
(345,741,c),
(287,743,o),
(98,742,o),
(79,742,c)
);
},
{
closed = 1;
nodes = (
(289,585,l),
(295,585,o),
(325,583,o),
(349,581,c),
(446,572,o),
(502,513,o),
(502,376,c),
(502,215,o),
(426,157,o),
(300,157,c),
(293,157,ls),
(282,157,o),
(279,160,o),
(279,172,c),
(279,571,ls),
(279,582,o),
(282,585,o),
(289,585,c)
);
}
);
};
layerId = "258ED206-D907-4350-8EBA-CBDDA1C16BF7";
shapes = (
{
closed = 1;
nodes = (
(79,742,l),
(59,742,o),
(52,736,o),
(52,717,c),
(52,30,ls),
(52,8,o),
(61,0,o),
(81,0,c),
(344,0,ls),
(607,0,o),
(740,157,o),
(740,372,c),
(740,583,o),
(612,732,o),
(345,741,c),
(287,743,o),
(146,742,o),
(79,742,c)
);
},
{
closed = 1;
nodes = (
(289,585,l),
(313,585,ls),
(443,585,o),
(502,513,o),
(502,374,c),
(502,215,o),
(425,157,o),
(300,157,c),
(293,157,ls),
(282,157,o),
(279,160,o),
(279,172,c),
(279,571,ls),
(279,582,o),
(282,585,o),
(289,585,c)
);
}
);
width = 771;
}
);
unicode = 68;
},
{
glyphname = Eth;
kernRight = O;
lastChange = "2024-09-04 09:59:18 +0000";
layers = (
{
background = {
shapes = (
{
closed = 1;
nodes = (
(342,387,l),
(342,392,o),
(340,395,o),
(335,395,c),
(42,395,ls),
(37,395,o),
(35,392,o),
(35,386,c),
(35,363,ls),
(35,356,o),
(37,353,o),
(45,353,c),
(329,353,ls),
(338,353,o),
(342,356,o),
(342,364,c)
);
},
{
ref = D;
}
);
};
layerId = "91AB5BCA-6A50-42DA-B2F7-8181BF189245";
shapes = (
{
closed = 1;
nodes = (
(342,387,l),
(342,392,o),
(340,395,o),
(335,395,c),
(42,395,ls),
(37,395,o),
(35,392,o),
(35,386,c),
(35,363,ls),
(35,356,o),
(37,353,o),
(45,353,c),
(329,353,ls),
(338,353,o),
(342,356,o),
(342,364,c)
);
},
{
ref = D;
}
);
width = 703;
},
{
background = {
shapes = (
{
closed = 1;
nodes = (
(432,414,l),
(432,426,o),
(425,434,o),
(414,434,c),
(43,434,ls),
(31,434,o),
(24,426,o),
(24,411,c),
(24,318,ls),
(24,301,o),
(30,293,o),
(50,293,c),
(399,293,ls),
(422,293,o),
(432,301,o),
(432,321,c)
);
},
{
pos = (20,0);
ref = D;
}
);
};
layerId = "258ED206-D907-4350-8EBA-CBDDA1C16BF7";
shapes = (
{
closed = 1;
nodes = (
(432,414,l),
(432,426,o),
(425,434,o),
(414,434,c),
(43,434,ls),
(31,434,o),
(24,426,o),
(24,411,c),
(24,318,ls),
(24,301,o),
(30,293,o),
(50,293,c),
(399,293,ls),
(422,293,o),
(432,301,o),
(432,321,c)
);
},
{
pos = (20,0);
ref = D;
}
);
width = 791;
}
);
metricRight = D;
unicode = 208;
},
{
glyphname = E;
kernRight = E;
lastChange = "2024-09-04 09:59:18 +0000";
layers = (
{
anchors = (
{
name = bottom;
pos = (364,0);
},
{
name = ogonek;
pos = (549,10);
},
{
name = top;
pos = (345,742);
}
);
background = {
anchors = (
{
name = bottom;
pos = (364,0);
},
{
name = ogonek;
pos = (549,10);
},
{
name = top;
pos = (345,742);
}
);
shapes = (
{
closed = 1;
nodes = (
(114,732,l),
(114,10,ls),
(114,2,o),
(116,0,o),
(123,0,c),
(553,0,ls),
(558,0,o),
(560,2,o),
(560,7,c),
(560,33,ls),
(560,39,o),
(558,40,o),
(552,40,c),
(169,40,ls),
(162,40,o),
(160,41,o),
(160,49,c),
(160,346,ls),
(160,354,o),
(162,355,o),
(169,355,c),
(457,355,ls),
(463,355,o),
(465,356,o),
(465,362,c),
(465,388,ls),
(465,393,o),
(463,395,o),
(458,395,c),
(169,395,ls),
(162,395,o),
(160,396,o),
(160,402,c),
(160,693,ls),
(160,701,o),
(162,702,o),
(169,702,c),
(537,702,ls),
(543,702,o),
(545,703,o),
(545,709,c),
(545,735,ls),
(545,740,o),
(543,742,o),
(538,742,c),
(123,742,ls),
(116,742,o),
(114,740,o),
(114,732,c)
);
}
);
};
layerId = "91AB5BCA-6A50-42DA-B2F7-8181BF189245";
shapes = (
{
closed = 1;
nodes = (
(114,732,l),
(114,10,ls),
(114,2,o),
(116,0,o),
(123,0,c),
(553,0,ls),
(558,0,o),
(560,2,o),
(560,7,c),
(560,33,ls),
(560,39,o),
(558,40,o),
(552,40,c),
(169,40,ls),
(162,40,o),
(160,41,o),
(160,49,c),
(160,346,ls),
(160,354,o),
(162,355,o),
(169,355,c),
(457,355,ls),
(463,355,o),
(465,356,o),
(465,362,c),
(465,388,ls),
(465,393,o),
(463,395,o),
(458,395,c),
(169,395,ls),
(162,395,o),
(160,396,o),
(160,402,c),
(160,693,ls),
(160,701,o),
(162,702,o),
(169,702,c),
(537,702,ls),
(543,702,o),
(545,703,o),
(545,709,c),
(545,735,ls),
(545,740,o),
(543,742,o),
(538,742,c),
(123,742,ls),
(116,742,o),
(114,740,o),
(114,732,c)
);
}
);
width = 612;
},
{
anchors = (
{
name = bottom;
pos = (336,0);
},
{
name = ogonek;
pos = (610,10);
},
{
name = top;
pos = (336,742);
}
);
background = {
anchors = (
{
name = bottom;
pos = (336,0);
},
{
name = ogonek;
pos = (610,10);
},
{
name = top;
pos = (336,742);
}
);
shapes = (
{
closed = 1;
nodes = (
(52,719,l),
(52,25,ls),
(52,8,o),
(59,0,o),
(79,0,c),
(614,0,ls),
(631,0,o),
(638,10,o),
(638,22,c),
(638,145,ls),
(638,159,o),
(630,164,o),
(616,164,c),
(291,164,ls),
(282,164,o),
(279,167,o),
(279,178,c),
(279,278,ls),
(279,286,o),
(285,292,o),
(295,292,c),
(480,292,ls),
(493,292,o),
(498,300,o),
(498,309,c),
(498,433,ls),
(498,446,o),
(491,453,o),
(477,453,c),
(297,453,ls),
(287,453,o),
(279,460,o),
(279,474,c),
(279,559,ls),
(279,572,o),
(287,578,o),
(302,578,c),
(602,578,ls),
(620,578,o),
(628,589,o),
(628,605,c),
(629,721,ls),
(629,734,o),
(623,742,o),
(611,742,c),
(71,742,ls),
(59,742,o),
(52,734,o),
(52,719,c)
);
}
);
};
layerId = "258ED206-D907-4350-8EBA-CBDDA1C16BF7";
shapes = (
{
closed = 1;
nodes = (
(52,719,l),
(52,25,ls),
(52,8,o),
(59,0,o),
(79,0,c),
(614,0,ls),
(631,0,o),
(638,10,o),
(638,22,c),
(638,145,ls),
(638,159,o),
(630,164,o),
(616,164,c),
(291,164,ls),
(282,164,o),
(279,167,o),
(279,178,c),
(279,278,ls),
(279,286,o),
(285,292,o),
(295,292,c),
(480,292,ls),
(493,292,o),
(498,300,o),
(498,309,c),
(498,433,ls),
(498,446,o),
(491,453,o),
(477,453,c),
(297,453,ls),
(287,453,o),
(279,460,o),
(279,474,c),
(279,559,ls),
(279,572,o),
(287,578,o),
(302,578,c),
(602,578,ls),
(620,578,o),
(628,589,o),
(628,605,c),
(629,721,ls),
(629,734,o),
(623,742,o),
(611,742,c),
(71,742,ls),
(59,742,o),
(52,734,o),
(52,719,c)
);
}
);
width = 671;
}
);
unicode = 69;
},
{
glyphname = Schwa;
lastChange = "2024-09-04 09:59:18 +0000";
layers = (
{
background = {
shapes = (
{
closed = 1;
nodes = (
(627,386,l),
(627,381,o),
(626,380,o),
(621,380,c),
(86,380,ls),
(78,380,o),
(78,375,o),
(78,369,c),
(78,174,o),
(144,-10,o),
(379,-10,c),
(608,-10,o),
(679,180,o),
(679,366,c),
(679,531,o),
(629,752,o),
(379,752,c),
(151,752,o),
(107,560,o),
(92,522,c),
(90,517,o),
(89,514,o),
(93,513,c),
(131,500,ls),
(135,499,o),
(137,498,o),
(138,500,c),
(152,531,o),
(170,709,o),
(379,709,c),
(597,709,o),
(627,504,o),
(627,386,c)
);
},
{
closed = 1;
nodes = (
(627,338,l),
(624,191,o),
(575,33,o),
(379,33,c),
(182,33,o),
(130,192,o),
(130,332,c),
(130,336,o),
(132,338,o),
(138,338,c)
);
}
);
};
layerId = "91AB5BCA-6A50-42DA-B2F7-8181BF189245";
shapes = (
{
closed = 1;
nodes = (
(627,386,l),
(627,381,o),
(626,380,o),
(621,380,c),
(86,380,ls),
(78,380,o),
(78,375,o),
(78,369,c),
(78,174,o),
(144,-10,o),
(379,-10,c),
(608,-10,o),
(679,180,o),
(679,366,c),
(679,531,o),
(629,752,o),
(379,752,c),
(151,752,o),
(107,560,o),
(92,522,c),
(90,517,o),
(89,514,o),
(93,513,c),
(131,500,ls),
(135,499,o),
(137,498,o),
(138,500,c),
(152,531,o),
(170,709,o),
(379,709,c),
(597,709,o),
(627,504,o),
(627,386,c)
);
},
{
closed = 1;
nodes = (
(627,338,l),
(624,191,o),
(575,33,o),
(379,33,c),
(182,33,o),
(130,192,o),
(130,332,c),
(130,336,o),
(132,338,o),
(138,338,c)
);
}
);
width = 757;
},
{
background = {
shapes = (
{
closed = 1;
nodes = (
(507,447,l),
(507,431,o),
(500,425,o),
(487,425,c),
(54,425,ls),
(32,425,o),
(31,414,o),
(31,392,c),
(31,136,o),
(152,-10,o),
(385,-10,c),
(578,-10,o),
(747,158,o),
(747,380,c),
(747,599,o),
(610,752,o),
(388,752,c),
(242,752,o),
(136,689,o),
(74,567,c),
(66,551,o),
(67,542,o),
(79,536,c),
(217,468,ls),
(234,459,o),
(240,462,o),
(244,469,c),
(290,544,o),
(328,578,o),
(390,578,c),
(488,578,o),
(507,506,o),
(507,447,c)
);
},
{
closed = 1;
nodes = (
(505,284,l),
(493,192,o),
(464,146,o),
(383,146,c),
(315,146,o),
(274,201,o),
(274,267,c),
(274,282,o),
(279,285,o),
(296,285,c)
);
}
);
};
layerId = "258ED206-D907-4350-8EBA-CBDDA1C16BF7";
shapes = (
{
closed = 1;
nodes = (
(507,447,l),
(507,431,o),
(500,425,o),
(487,425,c),
(54,425,ls),
(32,425,o),
(31,414,o),
(31,392,c),
(31,136,o),
(152,-10,o),
(385,-10,c),
(578,-10,o),
(747,158,o),
(747,380,c),
(747,599,o),
(610,752,o),
(388,752,c),
(242,752,o),
(136,689,o),
(74,567,c),
(66,551,o),
(67,542,o),
(79,536,c),
(217,468,ls),
(234,459,o),
(240,462,o),
(244,469,c),
(290,544,o),
(328,578,o),
(390,578,c),
(488,578,o),
(507,506,o),
(507,447,c)
);
},
{
closed = 1;
nodes = (
(505,284,l),
(493,192,o),
(464,146,o),
(383,146,c),
(315,146,o),
(274,201,o),
(274,267,c),
(274,282,o),
(279,285,o),
(296,285,c)
);
}
);
width = 778;
}
);
metricLeft = O;
metricRight = O;
unicode = 399;
},
{
glyphname = F;
kernRight = F;
lastChange = "2024-09-04 09:59:18 +0000";
layers = (
{
background = {
shapes = (
{
closed = 1;
nodes = (
(114,732,l),
(114,10,ls),
(114,2,o),
(116,0,o),
(123,0,c),
(153,0,ls),
(158,0,o),
(160,2,o),
(160,7,c),
(160,333,ls),
(160,341,o),
(162,342,o),
(169,342,c),
(467,342,ls),
(473,342,o),
(475,343,o),
(475,349,c),
(475,375,ls),
(475,380,o),
(473,382,o),
(468,382,c),
(169,382,ls),
(162,382,o),
(160,383,o),
(160,389,c),
(160,693,ls),
(160,701,o),
(162,702,o),
(169,702,c),
(527,702,ls),
(533,702,o),
(535,703,o),
(535,709,c),
(535,735,ls),
(535,740,o),
(533,742,o),
(528,742,c),
(123,742,ls),
(116,742,o),
(114,740,o),
(114,732,c)
);
}
);
};
layerId = "91AB5BCA-6A50-42DA-B2F7-8181BF189245";
shapes = (
{
closed = 1;
nodes = (
(114,732,l),
(114,10,ls),
(114,2,o),
(116,0,o),
(123,0,c),
(153,0,ls),
(158,0,o),
(160,2,o),
(160,7,c),
(160,333,ls),
(160,341,o),
(162,342,o),
(169,342,c),
(467,342,ls),
(473,342,o),
(475,343,o),
(475,349,c),
(475,375,ls),
(475,380,o),
(473,382,o),
(468,382,c),
(169,382,ls),
(162,382,o),
(160,383,o),
(160,389,c),
(160,693,ls),
(160,701,o),
(162,702,o),
(169,702,c),
(527,702,ls),
(533,702,o),
(535,703,o),
(535,709,c),
(535,735,ls),
(535,740,o),
(533,742,o),
(528,742,c),
(123,742,ls),
(116,742,o),
(114,740,o),
(114,732,c)
);
}
);
width = 583;
},
{
background = {
shapes = (
{
closed = 1;
nodes = (
(52,719,l),
(52,25,ls),
(52,8,o),
(58,0,o),
(79,0,c),
(246,0,ls),
(269,0,o),
(279,8,o),
(279,29,c),
(279,271,ls),
(279,280,o),
(285,286,o),
(295,286,c),
(482,286,ls),
(496,286,o),
(500,293,o),
(500,303,c),
(500,425,ls),
(500,438,o),
(494,445,o),
(480,445,c),
(297,445,ls),
(286,445,o),
(279,451,o),
(279,465,c),
(279,559,ls),
(279,572,o),
(286,578,o),
(302,578,c),
(596,578,ls),
(614,578,o),
(621,589,o),
(621,605,c),
(622,721,ls),
(622,734,o),
(616,742,o),
(604,742,c),
(71,742,ls),
(60,742,o),
(52,734,o),
(52,719,c)
);
}
);
};
layerId = "258ED206-D907-4350-8EBA-CBDDA1C16BF7";
shapes = (
{
closed = 1;
nodes = (
(52,719,l),
(52,25,ls),
(52,8,o),
(58,0,o),
(79,0,c),
(246,0,ls),
(269,0,o),
(279,8,o),
(279,29,c),
(279,271,ls),
(279,280,o),
(285,286,o),
(295,286,c),
(482,286,ls),
(496,286,o),
(500,293,o),
(500,303,c),
(500,425,ls),
(500,438,o),
(494,445,o),
(480,445,c),
(297,445,ls),
(286,445,o),
(279,451,o),
(279,465,c),
(279,559,ls),
(279,572,o),
(286,578,o),
(302,578,c),
(596,578,ls),
(614,578,o),
(621,589,o),
(621,605,c),
(622,721,ls),
(622,734,o),
(616,742,o),
(604,742,c),
(71,742,ls),
(60,742,o),
(52,734,o),
(52,719,c)
);
}
);
width = 650;
}
);
unicode = 70;
},
{
glyphname = G;
kernLeft = O;
kernRight = G;
lastChange = "2024-09-04 09:59:18 +0000";
layers = (
{
anchors = (
{
name = bottom;
pos = (379,0);
},
{
name = top;
pos = (374,742);
}
);
background = {
anchors = (
{
name = bottom;
pos = (379,0);
},
{
name = top;
pos = (374,742);
}
);
shapes = (
{
closed = 1;
nodes = (
(373,-10,l),
(484,-10,o),
(557,45,o),
(596,115,c),
(600,122,o),
(604,121,o),
(604,115,c),
(604,9,ls),
(604,0,o),
(609,0,o),
(617,0,c),
(634,0,ls),
(641,0,o),
(644,2,o),
(644,11,c),
(644,371,ls),
(644,375,o),
(642,377,o),
(638,377,c),
(402,377,ls),
(399,377,o),
(397,375,o),
(397,371,c),
(397,348,ls),
(397,344,o),
(399,342,o),
(404,342,c),
(593,342,ls),
(599,342,o),
(604,341,o),
(604,334,c),
(604,255,ls),
(604,161,o),
(532,32,o),
(374,32,c),
(211,32,o),
(126,153,o),
(126,374,c),
(126,584,o),
(213,710,o),
(374,710,c),
(480,710,o),
(565,640,o),
(581,551,c),
(582,546,o),
(585,544,o),
(588,545,c),
(623,551,ls),
(628,552,o),
(628,555,o),
(628,559,c),
(616,663,o),
(497,752,o),
(374,752,c),
(193,752,o),
(78,614,o),
(78,368,c),
(78,129,o),
(188,-10,o),
(373,-10,c)
);
}
);
};
layerId = "91AB5BCA-6A50-42DA-B2F7-8181BF189245";
shapes = (
{
closed = 1;
nodes = (
(373,-10,l),
(484,-10,o),
(557,45,o),
(596,115,c),
(600,122,o),
(604,121,o),
(604,115,c),
(604,9,ls),
(604,0,o),
(609,0,o),
(617,0,c),
(634,0,ls),
(641,0,o),
(644,2,o),
(644,11,c),
(644,371,ls),
(644,375,o),
(642,377,o),
(638,377,c),
(402,377,ls),
(399,377,o),
(397,375,o),
(397,371,c),
(397,348,ls),
(397,344,o),
(399,342,o),
(404,342,c),
(593,342,ls),
(599,342,o),
(604,341,o),
(604,334,c),
(604,255,ls),
(604,161,o),
(532,32,o),
(374,32,c),
(211,32,o),
(126,153,o),
(126,374,c),
(126,584,o),
(213,710,o),
(374,710,c),
(480,710,o),
(565,640,o),
(581,551,c),
(582,546,o),
(585,544,o),
(588,545,c),
(623,551,ls),
(628,552,o),
(628,555,o),
(628,559,c),
(616,663,o),
(497,752,o),
(374,752,c),
(193,752,o),
(78,614,o),
(78,368,c),
(78,129,o),
(188,-10,o),
(373,-10,c)
);
}
);
width = 730;
},
{
anchors = (
{
name = bottom;
pos = (382,0);
},
{
name = top;
pos = (382,742);
}
);
background = {
anchors = (
{
name = bottom;
pos = (382,0);
},
{
name = top;
pos = (382,742);
}
);
shapes = (
{
closed = 1;
nodes = (
(380,-10,l),
(498,-10,o),
(549,40,o),
(585,75,c),
(590,81,o),
(593,81,o),
(596,77,c),
(636,19,ls),
(646,5,o),
(656,0,o),
(668,0,c),
(706,0,ls),
(716,0,o),
(723,8,o),
(723,17,c),
(723,344,ls),
(723,362,o),
(710,375,o),
(685,375,c),
(405,377,ls),
(390,377,o),
(384,370,o),
(384,360,c),
(384,264,ls),
(384,247,o),
(390,242,o),
(404,242,c),
(498,242,ls),
(508,242,o),
(511,236,o),
(507,225,c),
(504,216,l),
(486,170,o),
(452,146,o),
(396,146,c),
(320,146,o),
(268,193,o),
(268,374,c),
(268,544,o),
(314,597,o),
(388,597,c),
(460,597,o),
(495,547,o),
(505,492,c),
(508,479,o),
(509,472,o),
(525,472,c),
(696,498,ls),
(712,500,o),
(716,505,o),
(710,533,c),
(686,640,o),
(573,752,o),
(393,752,c),
(179,752,o),
(30,599,o),
(30,368,c),
(30,145,o),
(169,-10,o),
(380,-10,c)
);
}
);
};
layerId = "258ED206-D907-4350-8EBA-CBDDA1C16BF7";
shapes = (
{
closed = 1;
nodes = (
(380,-10,l),
(498,-10,o),
(549,40,o),
(585,75,c),
(590,81,o),
(593,81,o),
(596,77,c),
(636,19,ls),
(646,5,o),
(656,0,o),
(668,0,c),
(706,0,ls),
(716,0,o),
(723,8,o),
(723,17,c),
(723,344,ls),
(723,362,o),
(710,375,o),
(685,375,c),
(405,377,ls),
(390,377,o),
(384,370,o),
(384,360,c),
(384,264,ls),
(384,247,o),
(390,242,o),
(404,242,c),
(498,242,ls),
(508,242,o),
(511,236,o),
(507,225,c),
(504,216,l),
(486,170,o),
(452,146,o),
(396,146,c),
(320,146,o),
(268,193,o),
(268,374,c),
(268,544,o),
(314,597,o),
(388,597,c),
(460,597,o),
(495,547,o),
(505,492,c),
(508,479,o),
(509,472,o),
(525,472,c),
(696,498,ls),
(712,500,o),
(716,505,o),
(710,533,c),
(686,640,o),
(573,752,o),
(393,752,c),
(179,752,o),
(30,599,o),
(30,368,c),
(30,145,o),
(169,-10,o),
(380,-10,c)
);
}
);
width = 761;
}
);
unicode = 71;
},
{
glyphname = Gacute;
kernLeft = O;
lastChange = "2024-09-04 09:59:18 +0000";
layers = (
{
layerId = "91AB5BCA-6A50-42DA-B2F7-8181BF189245";
shapes = (
{
ref = G;
},
{
pos = (510,212);
ref = acutecomb;
}
);
width = 730;
},
{
background = {
shapes = (
{
closed = 1;
nodes = (
(132,57,o),
(74,172,cs,{
name = inserted;
}),
(45,228,o,{
name = inserted;
}),
(30,294,o),
(30,368,c),
(30,521,o),
(94,640,o),
(205,704,cs,{
name = inserted;
}),
(260,736,o,{
name = inserted;
}),
(322,752,o),
(393,752,c),
(508,752,o),
(600,706,o),
(656,639,cs,{
name = inserted;
}),
(683,606,o,{
name = inserted;
}),
(702,571,o),
(710,533,c),
(713,525,o,{
name = inserted;
}),
(713,519,o),
(713,514,c),
(713,502,o),
(708,499,o),
(696,498,c),
(525,472,l),
(510,472,o),
(509,476,o),
(505,492,c),
(494,554,o),
(455,597,o),
(388,597,c),
(309,597,o),
(268,537,o),
(268,374,c),
(268,202,o),
(313,146,o),
(396,146,c),
(451,146,o,{
name = inserted;
}),
(487,169,o),
(504,216,c),
(507,225,l),
(509,233,l),
(509,240,o,{
name = inserted;
}),
(506,242,o),
(498,242,c),
(404,242,l),
(389,242,o),
(384,248,o),
(384,264,c),
(384,360,l),
(384,372,o,{
name = inserted;
}),
(392,377,o),
(405,377,c),
(685,375,l),
(709,375,o),
(723,363,o),
(723,344,c),
(723,17,l),
(723,8,o),
(715,0,o),
(706,0,c),
(668,0,l),
(656,0,o,{
name = inserted;
}),
(645,7,o),
(636,19,c),
(596,77,l),
(596,80,o,{
name = inserted;
}),
(595,80,o),
(592,80,c),
(591,80,o,{
name = inserted;
}),
(589,79,o),
(585,75,c),
(550,42,o),
(525,20,o),
(473,3,cs,{
name = inserted;
}),
(448,-5,o,{
name = inserted;
}),
(416,-10,o),
(380,-10,c),
(241,-10,o)
);
},
{
closed = 1;
nodes = (
(531,867,o,{
name = inserted;
}),
(532,864,o),
(532,859,c),
(532,850,o,{
name = inserted;
}),
(526,842,o),
(511,838,c),
(278,782,l),
(271,781,o,{
name = inserted;
}),
(268,780,o),
(267,780,c),
(259,780,o,{
name = inserted;
}),
(253,786,o),
(249,795,c),
(234,838,l),
(233,843,o,{
name = inserted;
}),
(232,847,o),
(232,848,c),
(232,855,o,{
name = inserted;
}),
(235,859,o),
(242,862,c),
(480,963,l),
(481,964,o,{
name = inserted;
}),
(483,964,o),
(486,964,c),
(493,964,o,{
name = inserted;
}),
(498,960,o),
(501,951,c),
(530,870,l)
);
}
);
};
layerId = "258ED206-D907-4350-8EBA-CBDDA1C16BF7";
shapes = (
{
ref = G;
},
{
pos = (542,212);
ref = acutecomb;
}
);
width = 761;
}
);
unicode = 500;
},
{
glyphname = H;
lastChange = "2024-09-04 09:59:18 +0000";
layers = (
{
anchors = (
{
name = bottom;
pos = (363,0);
},
{
name = top;
pos = (363,742);
}
);
background = {
anchors = (
{
name = bottom;
pos = (363,0);
},
{
name = top;
pos = (363,742);
}
);
shapes = (
{
closed = 1;
nodes = (
(558,366,l),
(563,366,o),
(565,364,o),
(565,359,c),
(565,9,ls),
(565,2,o),
(568,0,o),
(575,0,c),
(602,0,ls),
(608,0,o),
(611,3,o),
(611,10,c),
(611,732,ls),
(611,740,o),
(609,742,o),
(602,742,c),
(573,742,ls),
(567,742,o),
(565,739,o),
(565,733,c),
(565,414,ls),
(565,408,o),
(563,406,o),
(557,406,c),
(169,406,ls),
(162,406,o),
(160,407,o),
(160,415,c),
(160,732,ls),
(160,740,o),
(158,742,o),
(151,742,c),
(123,742,ls),
(116,742,o),
(114,740,o),
(114,732,c),
(114,10,ls),
(114,3,o),
(116,0,o),
(123,0,c),
(150,0,ls),
(157,0,o),
(160,3,o),
(160,9,c),
(160,360,ls),
(160,363,o),
(162,366,o),
(166,366,c)
);
}
);
};
layerId = "91AB5BCA-6A50-42DA-B2F7-8181BF189245";
shapes = (
{
closed = 1;
nodes = (
(558,366,l),
(563,366,o),
(565,364,o),
(565,359,c),
(565,9,ls),
(565,2,o),
(568,0,o),
(575,0,c),
(602,0,ls),
(608,0,o),
(611,3,o),
(611,10,c),
(611,732,ls),
(611,740,o),
(609,742,o),
(602,742,c),
(573,742,ls),
(567,742,o),
(565,739,o),
(565,733,c),
(565,414,ls),
(565,408,o),
(563,406,o),
(557,406,c),
(169,406,ls),
(162,406,o),
(160,407,o),
(160,415,c),
(160,732,ls),
(160,740,o),
(158,742,o),
(151,742,c),
(123,742,ls),
(116,742,o),
(114,740,o),
(114,732,c),
(114,10,ls),
(114,3,o),
(116,0,o),
(123,0,c),
(150,0,ls),
(157,0,o),
(160,3,o),
(160,9,c),
(160,360,ls),
(160,363,o),
(162,366,o),
(166,366,c)
);
}
);
width = 725;
},
{
anchors = (
{
name = bottom;
pos = (378,0);
},
{
name = top;
pos = (380,742);
}
);
background = {
anchors = (
{
name = bottom;
pos = (378,0);
},
{
name = top;
pos = (380,742);
}
);
shapes = (
{
closed = 1;
nodes = (
(467,297,l),
(477,297,o),
(483,290,o),
(483,282,c),
(483,29,ls),
(483,8,o),
(493,0,o),
(516,0,c),
(683,0,ls),
(704,0,o),
(710,8,o),
(710,25,c),
(710,719,ls),
(710,734,o),
(702,742,o),
(691,742,c),
(501,742,ls),
(490,742,o),
(483,734,o),
(483,721,c),
(483,489,ls),
(483,476,o),
(476,469,o),
(465,469,c),
(297,469,ls),
(286,469,o),
(279,476,o),
(279,489,c),
(279,721,ls),
(279,734,o),
(272,742,o),
(261,742,c),
(71,742,ls),
(60,742,o),
(52,734,o),
(52,719,c),
(52,25,ls),
(52,8,o),
(58,0,o),
(79,0,c),
(246,0,ls),
(269,0,o),
(279,8,o),
(279,29,c),
(279,282,ls),
(279,290,o),
(285,297,o),
(295,297,c)
);
}
);
};
layerId = "258ED206-D907-4350-8EBA-CBDDA1C16BF7";
shapes = (
{
closed = 1;
nodes = (
(467,297,l),
(477,297,o),
(483,290,o),
(483,282,c),
(483,29,ls),
(483,8,o),
(493,0,o),
(516,0,c),
(683,0,ls),
(704,0,o),
(710,8,o),
(710,25,c),
(710,719,ls),
(710,734,o),
(702,742,o),
(691,742,c),
(501,742,ls),
(490,742,o),
(483,734,o),
(483,721,c),
(483,489,ls),
(483,476,o),
(476,469,o),
(465,469,c),
(297,469,ls),
(286,469,o),
(279,476,o),
(279,489,c),
(279,721,ls),
(279,734,o),
(272,742,o),
(261,742,c),
(71,742,ls),
(60,742,o),
(52,734,o),
(52,719,c),
(52,25,ls),
(52,8,o),
(58,0,o),
(79,0,c),
(246,0,ls),
(269,0,o),
(279,8,o),
(279,29,c),
(279,282,ls),
(279,290,o),
(285,297,o),
(295,297,c)
);
}
);
width = 762;
}
);
unicode = 72;
},
{
glyphname = Hbar;
lastChange = "2024-09-04 09:59:18 +0000";
layers = (
{
background = {
shapes = (
{
closed = 1;
nodes = (
(702,610,l),
(702,615,o),
(700,618,o),
(695,618,c),
(12,618,ls),
(7,618,o),
(5,615,o),
(5,609,c),
(5,588,ls),
(5,581,o),
(7,578,o),
(15,578,c),
(689,578,ls),
(698,578,o),
(702,581,o),
(702,589,c)
);
},
{
pos = (-1,0);
ref = H;
}
);
};
layerId = "91AB5BCA-6A50-42DA-B2F7-8181BF189245";
shapes = (
{
closed = 1;
nodes = (
(702,610,l),
(702,615,o),
(700,618,o),
(695,618,c),
(12,618,ls),
(7,618,o),
(5,615,o),
(5,609,c),
(5,588,ls),
(5,581,o),
(7,578,o),
(15,578,c),
(689,578,ls),
(698,578,o),
(702,581,o),
(702,589,c)
);
},
{
pos = (-1,0);
ref = H;
}
);
width = 707;
},
{
background = {
shapes = (
{
closed = 1;
nodes = (
(799,640,l),
(799,651,o),
(793,658,o),
(783,658,c),
(16,658,ls),
(6,658,o),
(0,651,o),
(0,638,c),
(0,577,ls),
(0,562,o),
(5,555,o),
(22,555,c),
(770,555,ls),
(790,555,o),
(799,562,o),
(799,579,c)
);
},
{
pos = (25,0);
ref = H;
}
);
};
layerId = "258ED206-D907-4350-8EBA-CBDDA1C16BF7";
shapes = (
{
closed = 1;
nodes = (
(799,640,l),
(799,651,o),
(793,658,o),
(783,658,c),
(16,658,ls),
(6,658,o),
(0,651,o),
(0,638,c),
(0,577,ls),
(0,562,o),
(5,555,o),
(22,555,c),
(770,555,ls),
(790,555,o),
(799,562,o),
(799,579,c)
);
},
{
pos = (25,0);
ref = H;
}
);
width = 799;
}
);
unicode = 294;
},
{
glyphname = I;
lastChange = "2024-09-04 09:59:18 +0000";
layers = (
{
anchors = (
{
name = bottom;
pos = (137,0);
},
{
name = ogonek;
pos = (149,10);
},
{
name = top;
pos = (140,742);
}
);
background = {
anchors = (
{
name = bottom;
pos = (137,0);
},
{
name = ogonek;
pos = (149,10);
},
{
name = top;
pos = (140,742);
}
);
shapes = (
{
closed = 1;
nodes = (
(123,742,l),
(116,742,o),
(114,740,o),
(114,732,c),
(114,10,ls),
(114,2,o),
(116,0,o),
(125,0,c),
(148,0,ls),
(158,0,o),
(160,2,o),
(160,12,c),
(160,732,ls),
(160,740,o),
(158,742,o),
(151,742,c)
);
}
);
};
layerId = "91AB5BCA-6A50-42DA-B2F7-8181BF189245";
shapes = (
{
closed = 1;
nodes = (
(123,742,l),
(116,742,o),
(114,740,o),
(114,732,c),
(114,10,ls),
(114,2,o),
(116,0,o),
(125,0,c),
(148,0,ls),
(158,0,o),
(160,2,o),
(160,12,c),
(160,732,ls),
(160,740,o),
(158,742,o),
(151,742,c)
);
}
);
width = 274;
},
{
anchors = (
{
name = bottom;
pos = (165,0);
},
{
name = ogonek;
pos = (247,10);
},
{
name = top;
pos = (166,742);
}
);
background = {
anchors = (
{
name = bottom;
pos = (165,0);
},
{
name = ogonek;
pos = (247,10);
},
{
name = top;
pos = (166,742);
}
);
shapes = (
{
closed = 1;
nodes = (
(71,742,l),
(60,742,o),
(52,734,o),
(52,719,c),
(52,25,ls),
(52,8,o),
(58,0,o),
(79,0,c),
(246,0,ls),
(269,0,o),
(279,8,o),
(279,29,c),
(279,721,ls),
(279,734,o),
(273,742,o),
(261,742,c)
);
}
);
};
layerId = "258ED206-D907-4350-8EBA-CBDDA1C16BF7";
shapes = (
{
closed = 1;
nodes = (
(71,742,l),
(60,742,o),
(52,734,o),
(52,719,c),
(52,25,ls),
(52,8,o),
(58,0,o),
(79,0,c),
(246,0,ls),
(269,0,o),
(279,8,o),
(279,29,c),
(279,721,ls),
(279,734,o),
(273,742,o),
(261,742,c)
);
}
);
width = 331;
}
);
unicode = 73;
},
{
glyphname = J;
kernLeft = J;
kernRight = J;
lastChange = "2024-09-04 09:59:18 +0000";
layers = (
{
anchors = (
{
name = top;
pos = (266,742);
}
);
background = {
anchors = (
{
name = top;
pos = (266,742);
}
);
shapes = (
{
closed = 1;
nodes = (
(289,144,l),
(289,732,ls),
(289,739,o),
(287,742,o),
(281,742,c),
(251,742,ls),
(245,742,o),
(243,739,o),
(243,733,c),
(243,154,ls),
(243,61,o),
(221,34,o),
(156,34,c),
(107,34,o),
(85,49,o),
(64,59,c),
(60,61,o),
(57,60,o),
(56,55,c),
(47,24,ls),
(46,20,o),
(48,17,o),
(51,15,c),
(58,10,o),
(103,-10,o),
(158,-10,c),
(255,-10,o),
(289,49,o),
(289,144,c)
);
}
);
};
layerId = "91AB5BCA-6A50-42DA-B2F7-8181BF189245";
shapes = (
{
closed = 1;
nodes = (
(289,144,l),
(289,732,ls),
(289,739,o),
(287,742,o),
(281,742,c),
(251,742,ls),
(245,742,o),
(243,739,o),
(243,733,c),
(243,154,ls),
(243,61,o),
(221,34,o),
(156,34,c),
(107,34,o),
(85,49,o),
(64,59,c),
(60,61,o),
(57,60,o),
(56,55,c),
(47,24,ls),
(46,20,o),
(48,17,o),
(51,15,c),
(58,10,o),
(103,-10,o),
(158,-10,c),
(255,-10,o),
(289,49,o),
(289,144,c)
);
}
);
width = 399;
},
{
anchors = (
{
name = top;
pos = (243,742);
}
);
background = {
anchors = (
{
name = top;
pos = (243,742);
}
);
shapes = (
{
closed = 1;
nodes = (
(420,212,l),
(420,721,ls),
(420,734,o),
(414,742,o),
(402,742,c),
(213,742,ls),
(201,742,o),
(193,734,o),
(193,719,c),
(193,268,ls),
(193,200,o),
(164,175,o),
(115,175,c),
(93,175,o),
(76,180,o),
(60,182,c),
(44,184,o),
(37,174,o),
(36,159,c),
(27,45,ls),
(25,17,o),
(35,6,o),
(58,2,c),
(103,-6,o),
(141,-10,o),
(182,-10,c),
(338,-10,o),
(420,48,o),
(420,212,c)
);
}
);
};
layerId = "258ED206-D907-4350-8EBA-CBDDA1C16BF7";
shapes = (
{
closed = 1;
nodes = (
(420,212,l),
(420,721,ls),
(420,734,o),
(414,742,o),
(402,742,c),
(213,742,ls),
(201,742,o),
(193,734,o),
(193,719,c),
(193,268,ls),
(193,200,o),
(164,175,o),
(115,175,c),
(93,175,o),
(76,180,o),
(60,182,c),
(44,184,o),
(37,174,o),
(36,159,c),
(27,45,ls),
(25,17,o),
(35,6,o),
(58,2,c),
(103,-6,o),
(141,-10,o),
(182,-10,c),
(338,-10,o),
(420,48,o),
(420,212,c)
);
}
);
width = 467;
}
);
unicode = 74;
},
{
glyphname = K;
kernRight = K;
lastChange = "2024-09-04 09:59:18 +0000";
layers = (
{
anchors = (
{
name = bottom;
pos = (343,0);
},
{
name = top;
pos = (373,742);
}
);
background = {
anchors = (
{
name = bottom;
pos = (343,0);
},
{
name = top;
pos = (373,742);
}
);
shapes = (
{
closed = 1;
nodes = (
(623,7,l),
(343,445,ls),
(341,449,o),
(341,449,o),
(343,451,c),
(602,734,ls),
(606,738,o),
(605,742,o),
(599,742,c),
(561,742,ls),
(555,742,o),
(553,741,o),
(550,738,c),
(167,322,ls),
(162,317,o),
(160,317,o),
(160,323,c),
(160,734,ls),
(160,740,o),
(157,742,o),
(152,742,c),
(122,742,ls),
(116,742,o),
(114,739,o),
(114,734,c),
(114,9,ls),
(114,2,o),
(117,0,o),
(124,0,c),
(150,0,ls),
(157,0,o),
(160,3,o),
(160,9,c),
(160,246,ls),
(160,254,o),
(162,257,o),
(168,263,c),
(300,409,ls),
(305,414,o),
(308,415,o),
(312,409,c),
(570,5,ls),
(572,2,o),
(576,0,o),
(581,0,c),
(620,0,ls),
(624,0,o),
(626,3,o),
(623,7,c)
);
}
);
};
layerId = "91AB5BCA-6A50-42DA-B2F7-8181BF189245";
shapes = (
{
closed = 1;
nodes = (
(623,7,l),
(343,445,ls),
(341,449,o),
(341,449,o),
(343,451,c),
(602,734,ls),
(606,738,o),
(605,742,o),
(599,742,c),
(561,742,ls),
(555,742,o),
(553,741,o),
(550,738,c),
(167,322,ls),
(162,317,o),
(160,317,o),
(160,323,c),
(160,734,ls),
(160,740,o),
(157,742,o),
(152,742,c),
(122,742,ls),
(116,742,o),
(114,739,o),
(114,734,c),
(114,9,ls),
(114,2,o),
(117,0,o),
(124,0,c),
(150,0,ls),
(157,0,o),
(160,3,o),
(160,9,c),
(160,246,ls),
(160,254,o),
(162,257,o),
(168,263,c),
(300,409,ls),
(305,414,o),
(308,415,o),
(312,409,c),
(570,5,ls),
(572,2,o),
(576,0,o),
(581,0,c),
(620,0,ls),
(624,0,o),
(626,3,o),
(623,7,c)
);
}
);
width = 674;
},
{
anchors = (
{
name = bottom;
pos = (371,0);
},
{
name = top;
pos = (371,742);
}
);
background = {
anchors = (
{
name = bottom;
pos = (371,0);
},
{
name = top;
pos = (371,742);
}
);
shapes = (
{
closed = 1;
nodes = (
(745,31,l),
(527,480,ls),
(521,494,o),
(522,501,o),
(530,512,c),
(694,713,ls),
(707,728,o),
(695,742,o),
(673,742,c),
(521,742,ls),
(497,742,o),
(489,736,o),
(478,721,c),
(294,463,l),
(286,453,o),
(279,452,o),
(279,468,c),
(279,721,ls),
(279,734,o),
(273,742,o),
(261,742,c),
(71,742,ls),
(60,742,o),
(52,734,o),
(52,719,c),
(52,25,ls),
(52,8,o),
(58,0,o),
(79,0,c),
(246,0,ls),
(269,0,o),
(279,8,o),
(279,29,c),
(279,180,ls),
(279,190,o),
(280,196,o),
(285,202,c),
(356,293,ls),
(366,306,o),
(372,308,o),
(378,298,c),
(500,20,ls),
(507,5,o),
(519,0,o),
(536,0,c),
(731,0,ls),
(751,0,o),
(753,15,o),
(745,31,c)
);
}
);
};
layerId = "258ED206-D907-4350-8EBA-CBDDA1C16BF7";
shapes = (
{
closed = 1;
nodes = (
(745,31,l),
(527,480,ls),
(521,494,o),
(522,501,o),
(530,512,c),
(694,713,ls),
(707,728,o),
(695,742,o),
(673,742,c),
(521,742,ls),
(497,742,o),
(489,736,o),
(478,721,c),
(294,463,l),
(286,453,o),
(279,452,o),
(279,468,c),
(279,721,ls),
(279,734,o),
(273,742,o),
(261,742,c),
(71,742,ls),
(60,742,o),
(52,734,o),
(52,719,c),
(52,25,ls),
(52,8,o),
(58,0,o),
(79,0,c),
(246,0,ls),
(269,0,o),
(279,8,o),
(279,29,c),
(279,180,ls),
(279,190,o),
(280,196,o),
(285,202,c),
(356,293,ls),
(366,306,o),
(372,308,o),
(378,298,c),
(500,20,ls),
(507,5,o),
(519,0,o),
(536,0,c),
(731,0,ls),
(751,0,o),
(753,15,o),
(745,31,c)
);
}
);
width = 772;
}
);
unicode = 75;
},
{
glyphname = L;
kernRight = L;
lastChange = "2024-09-04 09:59:18 +0000";
layers = (
{
anchors = (
{
name = bottom;
pos = (319,0);
},
{
name = top;
pos = (137,742);
},
{
name = topright;
pos = (423,742);
}
);
background = {
anchors = (
{
name = bottom;
pos = (319,0);
},
{
name = top;
pos = (137,742);
},
{
name = topright;
pos = (423,742);
}
);
shapes = (
{
closed = 1;
nodes = (
(114,732,l),
(114,10,ls),
(114,3,o),
(116,0,o),
(123,0,c),
(533,0,l),
(538,0,o),
(540,2,o),
(540,7,c),
(540,33,ls),
(540,39,o),
(538,40,o),
(532,40,c),
(169,40,ls),
(162,40,o),
(160,41,o),
(160,49,c),
(160,732,ls),
(160,740,o),
(158,742,o),
(151,742,c),
(123,742,ls),
(116,742,o),
(114,740,o),
(114,732,c)
);
}
);
};
layerId = "91AB5BCA-6A50-42DA-B2F7-8181BF189245";
shapes = (
{
closed = 1;
nodes = (
(114,732,l),
(114,10,ls),
(114,3,o),
(116,0,o),
(123,0,c),
(533,0,l),
(538,0,o),
(540,2,o),
(540,7,c),
(540,33,ls),
(540,39,o),
(538,40,o),
(532,40,c),
(169,40,ls),
(162,40,o),
(160,41,o),
(160,49,c),
(160,732,ls),
(160,740,o),
(158,742,o),
(151,742,c),
(123,742,ls),
(116,742,o),
(114,740,o),
(114,732,c)
);
}
);
width = 587;
},
{
anchors = (
{
name = bottom;
pos = (314,0);
},
{
name = top;
pos = (168,742);
},
{
name = topright;
pos = (510,742);
}
);
background = {
anchors = (
{
name = bottom;
pos = (314,0);
},
{
name = top;
pos = (168,742);
},
{
name = topright;
pos = (510,742);
}
);
shapes = (
{
closed = 1;
nodes = (
(52,719,l),
(52,25,ls),
(52,8,o),
(58,0,o),
(79,0,c),
(590,0,ls),
(607,0,o),
(615,10,o),
(615,22,c),
(615,145,ls),
(615,159,o),
(606,164,o),
(592,164,c),
(291,164,ls),
(282,164,o),
(279,167,o),
(279,178,c),
(279,721,ls),
(279,734,o),
(273,742,o),
(261,742,c),
(71,742,ls),
(60,742,o),
(52,734,o),
(52,719,c)
);
}
);
};
layerId = "258ED206-D907-4350-8EBA-CBDDA1C16BF7";
shapes = (
{
closed = 1;
nodes = (
(52,719,l),
(52,25,ls),
(52,8,o),
(58,0,o),
(79,0,c),
(590,0,ls),
(607,0,o),
(615,10,o),
(615,22,c),
(615,145,ls),
(615,159,o),
(606,164,o),
(592,164,c),
(291,164,ls),
(282,164,o),
(279,167,o),
(279,178,c),
(279,721,ls),
(279,734,o),
(273,742,o),
(261,742,c),
(71,742,ls),
(60,742,o),
(52,734,o),
(52,719,c)
);
}
);
width = 643;
}
);
unicode = 76;
},
{
glyphname = Lslash;
lastChange = "2024-09-04 09:59:18 +0000";
layers = (
{
background = {
shapes = (
{
closed = 1;
nodes = (
(327,432,l),
(327,436,o),
(325,438,o),
(320,437,c),
(38,365,ls),
(35,364,o),
(33,361,o),
(33,356,c),
(33,332,ls),
(33,327,o),
(35,326,o),
(40,327,c),
(321,400,ls),
(325,401,o),
(327,404,o),
(327,408,c)
);
},
{
ref = L;
}
);
};
layerId = "91AB5BCA-6A50-42DA-B2F7-8181BF189245";
shapes = (
{
closed = 1;
nodes = (
(327,432,l),
(327,436,o),
(325,438,o),
(320,437,c),
(38,365,ls),
(35,364,o),
(33,361,o),
(33,356,c),
(33,332,ls),
(33,327,o),
(35,326,o),
(40,327,c),
(321,400,ls),
(325,401,o),
(327,404,o),
(327,408,c)
);
},
{
ref = L;
}
);
width = 587;
},
{
background = {
shapes = (
{
closed = 1;
nodes = (
(439,534,l),
(439,550,o),
(432,557,o),
(415,552,c),
(10,444,ls),
(-2,441,o),
(-9,436,o),
(-9,421,c),
(-9,301,ls),
(-9,284,o),
(-3,277,o),
(17,283,c),
(419,397,ls),
(433,401,o),
(439,409,o),
(439,421,c)
);
},
{
ref = L;
}
);
};
layerId = "258ED206-D907-4350-8EBA-CBDDA1C16BF7";
shapes = (
{
closed = 1;
nodes = (
(439,534,l),
(439,550,o),
(432,557,o),
(415,552,c),
(10,444,ls),
(-2,441,o),
(-9,436,o),
(-9,421,c),
(-9,301,ls),
(-9,284,o),
(-3,277,o),
(17,283,c),
(419,397,ls),
(433,401,o),
(439,409,o),
(439,421,c)
);
},
{
ref = L;
}
);
width = 643;
}
);
metricRight = L;
unicode = 321;
},
{
glyphname = M;
lastChange = "2024-09-04 09:59:18 +0000";
layers = (
{
background = {
shapes = (
{
closed = 1;
nodes = (
(123,0,l),
(148,0,ls),
(155,0,o),
(158,3,o),
(158,9,c),
(158,622,ls),
(158,626,o),
(160,625,o),
(161,622,c),
(405,10,ls),
(408,3,o),
(413,0,o),
(424,0,c),
(451,0,ls),
(460,0,o),
(464,3,o),
(467,11,c),
(716,627,ls),
(717,630,o),
(719,632,o),
(719,627,c),
(719,9,ls),
(719,2,o),
(722,0,o),
(729,0,c),
(756,0,ls),
(762,0,o),
(765,3,o),
(765,10,c),
(765,732,ls),
(765,740,o),
(763,742,o),
(756,742,c),
(727,742,ls),
(721,742,o),
(718,740,o),
(716,735,c),
(445,65,ls),
(439,51,o),
(434,51,o),
(429,64,c),
(162,734,l),
(160,740,o),
(157,742,o),
(149,742,c),
(123,742,ls),
(116,742,o),
(114,740,o),
(114,732,c),
(114,10,ls),
(114,3,o),
(116,0,o),
(123,0,c)
);
}
);
};
guides = (
{
pos = (43,566);
}
);
layerId = "91AB5BCA-6A50-42DA-B2F7-8181BF189245";
shapes = (
{
closed = 1;
nodes = (
(123,0,l),
(148,0,ls),
(155,0,o),
(158,3,o),
(158,9,c),
(158,622,ls),
(158,626,o),
(160,625,o),
(161,622,c),
(405,10,ls),
(408,3,o),
(413,0,o),
(424,0,c),
(451,0,ls),
(460,0,o),
(464,3,o),
(467,11,c),
(716,627,ls),
(717,630,o),
(719,632,o),
(719,627,c),
(719,9,ls),
(719,2,o),
(722,0,o),
(729,0,c),
(756,0,ls),
(762,0,o),
(765,3,o),
(765,10,c),
(765,732,ls),
(765,740,o),
(763,742,o),
(756,742,c),
(727,742,ls),
(721,742,o),
(718,740,o),
(716,735,c),
(445,65,ls),
(439,51,o),
(434,51,o),
(429,64,c),
(162,734,l),
(160,740,o),
(157,742,o),
(149,742,c),
(123,742,ls),
(116,742,o),
(114,740,o),
(114,732,c),
(114,10,ls),
(114,3,o),
(116,0,o),
(123,0,c)
);
}
);
width = 879;
},
{
background = {
shapes = (
{
closed = 1;
nodes = (
(78,0,l),
(211,0,ls),
(229,0,o),
(233,4,o),
(233,22,c),
(233,464,ls),
(233,477,o),
(240,481,o),
(245,465,c),
(389,18,ls),
(393,6,o),
(401,0,o),
(413,0,c),
(518,0,ls),
(529,0,o),
(538,7,o),
(542,18,c),
(686,473,ls),
(690,485,o),
(698,485,o),
(698,474,c),
(698,25,ls),
(698,8,o),
(704,0,o),
(724,0,c),
(893,0,ls),
(916,0,o),
(925,8,o),
(925,29,c),
(925,721,ls),
(925,734,o),
(919,742,o),
(907,742,c),
(618,742,ls),
(604,742,o),
(596,731,o),
(591,713,c),
(498,406,ls),
(495,397,o),
(489,395,o),
(485,406,c),
(381,724,ls),
(376,738,o),
(370,742,o),
(353,742,c),
(73,742,ls),
(58,742,o),
(52,735,o),
(52,719,c),
(52,28,ls),
(52,11,o),
(62,0,o),
(78,0,c)
);
}
);
};
layerId = "258ED206-D907-4350-8EBA-CBDDA1C16BF7";
shapes = (
{
closed = 1;
nodes = (
(78,0,l),
(211,0,ls),
(229,0,o),
(233,4,o),
(233,22,c),
(233,464,ls),
(233,477,o),
(240,481,o),
(245,465,c),
(389,18,ls),
(393,6,o),
(401,0,o),
(413,0,c),
(518,0,ls),
(529,0,o),
(538,7,o),
(542,18,c),
(686,473,ls),
(690,485,o),
(698,485,o),
(698,474,c),
(698,25,ls),
(698,8,o),
(704,0,o),
(724,0,c),
(893,0,ls),
(916,0,o),
(925,8,o),
(925,29,c),
(925,721,ls),
(925,734,o),
(919,742,o),
(907,742,c),
(618,742,ls),
(604,742,o),
(596,731,o),
(591,713,c),
(498,406,ls),
(495,397,o),
(489,395,o),
(485,406,c),
(381,724,ls),
(376,738,o),
(370,742,o),
(353,742,c),
(73,742,ls),
(58,742,o),
(52,735,o),
(52,719,c),
(52,28,ls),
(52,11,o),
(62,0,o),
(78,0,c)
);
}
);
width = 977;
}
);
unicode = 77;
},
{
glyphname = N;
lastChange = "2024-09-04 09:59:18 +0000";
layers = (
{
anchors = (
{
name = bottom;
pos = (359,0);
},
{
name = top;
pos = (394,742);
}
);
background = {
anchors = (
{
name = bottom;
pos = (359,0);
},
{
name = top;
pos = (394,742);
}
);
shapes = (
{
closed = 1;
nodes = (
(605,742,l),
(599,742,o),
(597,739,o),
(597,733,c),
(597,107,ls),
(597,101,o),
(590,95,o),
(583,105,c),
(156,735,ls),
(152,741,o),
(149,742,o),
(141,742,c),
(123,742,l),
(116,742,o),
(114,740,o),
(114,732,c),
(114,10,ls),
(114,3,o),
(116,0,o),
(123,0,c),
(148,0,ls),
(155,0,o),
(158,3,o),
(158,9,c),
(158,637,ls),
(158,645,o),
(163,647,o),
(170,637,c),
(598,6,ls),
(603,-1,o),
(609,0,o),
(617,0,c),
(632,0,ls),
(638,0,o),
(641,3,o),
(641,10,c),
(641,732,ls),
(641,740,o),
(639,742,o),
(632,742,c)
);
}
);
};
guides = (
{
pos = (48,576);
}
);
layerId = "91AB5BCA-6A50-42DA-B2F7-8181BF189245";
shapes = (
{
closed = 1;
nodes = (
(605,742,l),
(599,742,o),
(597,739,o),
(597,733,c),
(597,107,ls),
(597,101,o),
(590,95,o),
(583,105,c),
(156,735,ls),
(152,741,o),
(149,742,o),
(141,742,c),
(123,742,l),
(116,742,o),
(114,740,o),
(114,732,c),
(114,10,ls),
(114,3,o),
(116,0,o),
(123,0,c),
(148,0,ls),
(155,0,o),
(158,3,o),
(158,9,c),
(158,637,ls),
(158,645,o),
(163,647,o),
(170,637,c),
(598,6,ls),
(603,-1,o),
(609,0,o),
(617,0,c),
(632,0,ls),
(638,0,o),
(641,3,o),
(641,10,c),
(641,732,ls),
(641,740,o),
(639,742,o),
(632,742,c)
);
}
);
width = 755;
},
{
anchors = (
{
name = bottom;
pos = (381,0);
},
{
name = top;
pos = (381,742);
}
);
background = {
anchors = (
{
name = bottom;
pos = (381,0);
},
{
name = top;
pos = (381,742);
}
);
shapes = (
{
closed = 1;
nodes = (
(549,742,l),
(534,742,o),
(527,734,o),
(527,721,c),
(527,394,ls),
(527,378,o),
(520,378,o),
(511,390,c),
(271,724,ls),
(260,739,o),
(254,742,o),
(237,742,c),
(74,742,ls),
(59,742,o),
(52,735,o),
(52,719,c),
(52,20,ls),
(52,5,o),
(62,0,o),
(77,0,c),
(213,0,ls),
(231,0,o),
(238,6,o),
(237,22,c),
(237,386,ls),
(237,393,o),
(242,395,o),
(247,388,c),
(522,15,ls),
(532,2,o),
(538,0,o),
(549,0,c),
(686,0,ls),
(699,0,o),
(709,7,o),
(709,18,c),
(709,725,ls),
(709,736,o),
(704,742,o),
(694,742,c)
);
}
);
};
layerId = "258ED206-D907-4350-8EBA-CBDDA1C16BF7";
shapes = (
{
closed = 1;
nodes = (
(549,742,l),
(534,742,o),
(527,734,o),
(527,721,c),
(527,394,ls),
(527,378,o),
(520,378,o),
(511,390,c),
(271,724,ls),
(260,739,o),
(254,742,o),
(237,742,c),
(74,742,ls),
(59,742,o),
(52,735,o),
(52,719,c),
(52,20,ls),
(52,5,o),
(62,0,o),
(77,0,c),
(213,0,ls),
(231,0,o),
(238,6,o),
(237,22,c),
(237,386,ls),
(237,393,o),
(242,395,o),
(247,388,c),
(522,15,ls),
(532,2,o),
(538,0,o),
(549,0,c),
(686,0,ls),
(699,0,o),
(709,7,o),
(709,18,c),
(709,725,ls),
(709,736,o),
(704,742,o),
(694,742,c)
);
}
);
width = 761;
}
);
unicode = 78;
},
{
glyphname = Eng;
lastChange = "2024-09-04 09:59:18 +0000";
layers = (
{
background = {
shapes = (
{
closed = 1;
nodes = (
(632,742,l),
(606,742,ls),
(600,742,o),
(598,739,o),
(598,733,c),
(598,107,ls),
(598,101,o),
(591,94,o),
(584,104,c),
(158,735,ls),
(154,741,o),
(151,742,o),
(144,742,c),
(123,742,ls),
(116,742,o),
(114,740,o),
(114,732,c),
(114,10,ls),
(114,3,o),
(116,0,o),
(123,0,c),
(148,0,ls),
(155,0,o),
(158,3,o),
(158,9,c),
(158,640,ls),
(158,648,o),
(160,650,o),
(167,640,c),
(595,12,l),
(595,-41,ls),
(595,-112,o),
(564,-135,o),
(510,-135,c),
(480,-135,o),
(456,-128,o),
(440,-122,c),
(435,-120,o),
(433,-121,o),
(432,-126,c),
(429,-151,l),
(429,-155,o),
(430,-158,o),
(433,-160,c),
(440,-165,o),
(473,-175,o),
(514,-175,c),
(608,-175,o),
(641,-124,o),
(641,-46,c),
(641,732,ls),
(641,740,o),
(639,742,o),
(632,742,c)
);
}
);
};
layerId = "91AB5BCA-6A50-42DA-B2F7-8181BF189245";
shapes = (
{
closed = 1;
nodes = (
(632,742,l),
(606,742,ls),
(600,742,o),
(598,739,o),
(598,733,c),
(598,107,ls),
(598,101,o),
(591,94,o),
(584,104,c),
(158,735,ls),
(154,741,o),
(151,742,o),
(144,742,c),
(123,742,ls),
(116,742,o),
(114,740,o),
(114,732,c),
(114,10,ls),
(114,3,o),
(116,0,o),
(123,0,c),
(148,0,ls),
(155,0,o),
(158,3,o),
(158,9,c),
(158,640,ls),
(158,648,o),
(160,650,o),
(167,640,c),
(595,12,l),
(595,-41,ls),
(595,-112,o),
(564,-135,o),
(510,-135,c),
(480,-135,o),
(456,-128,o),
(440,-122,c),
(435,-120,o),
(433,-121,o),
(432,-126,c),
(429,-151,l),
(429,-155,o),
(430,-158,o),
(433,-160,c),
(440,-165,o),
(473,-175,o),
(514,-175,c),
(608,-175,o),
(641,-124,o),
(641,-46,c),
(641,732,ls),
(641,740,o),
(639,742,o),
(632,742,c)
);
}
);
width = 755;
},
{
background = {
shapes = (
{
closed = 1;
nodes = (
(694,742,l),
(549,742,ls),
(534,742,o),
(527,734,o),
(527,721,c),
(527,434,ls),
(527,418,o),
(520,418,o),
(511,430,c),
(271,724,ls),
(259,739,o),
(254,742,o),
(237,742,c),
(74,742,ls),
(59,742,o),
(52,735,o),
(52,719,c),
(52,20,ls),
(52,5,o),
(62,0,o),
(77,0,c),
(213,0,ls),
(231,0,o),
(238,6,o),
(237,22,c),
(237,386,l),
(237,393,o),
(241,395,o),
(247,388,c),
(487,97,l),
(487,88,ls),
(484,31,o),
(454,10,o),
(409,10,c),
(387,10,o),
(364,15,o),
(348,17,c),
(332,19,o),
(325,9,o),
(324,-6,c),
(315,-120,ls),
(313,-148,o),
(323,-159,o),
(346,-163,c),
(391,-171,o),
(435,-175,o),
(476,-175,c),
(628,-175,o),
(709,-114,o),
(709,47,c),
(709,725,ls),
(709,736,o),
(704,742,o),
(694,742,c)
);
}
);
};
guides = (
{
angle = 90;
pos = (527,578);
}
);
layerId = "258ED206-D907-4350-8EBA-CBDDA1C16BF7";
shapes = (
{
closed = 1;
nodes = (
(694,742,l),
(549,742,ls),
(534,742,o),
(527,734,o),
(527,721,c),
(527,434,ls),
(527,418,o),
(520,418,o),
(511,430,c),
(271,724,ls),
(259,739,o),
(254,742,o),
(237,742,c),
(74,742,ls),
(59,742,o),
(52,735,o),
(52,719,c),
(52,20,ls),
(52,5,o),
(62,0,o),
(77,0,c),
(213,0,ls),
(231,0,o),
(238,6,o),
(237,22,c),
(237,386,l),
(237,393,o),
(241,395,o),
(247,388,c),
(509,71,l),
(509,62,ls),
(505,7,o),
(486,-13,o),
(428,-13,c),
(406,-13,o),
(363,-8,o),
(347,-6,c),
(331,-4,o),
(324,-14,o),
(323,-29,c),
(315,-120,ls),
(313,-148,o),
(323,-159,o),
(346,-163,c),
(391,-171,o),
(435,-175,o),
(476,-175,c),
(628,-175,o),
(709,-114,o),
(709,47,c),
(709,725,ls),
(709,736,o),
(704,742,o),
(694,742,c)
);
}
);
width = 761;
}
);
metricLeft = N;
metricRight = N;
unicode = 330;
},
{
glyphname = O;
kernLeft = O;
kernRight = O;
lastChange = "2024-09-04 09:59:18 +0000";
layers = (
{
anchors = (
{
name = bottom;
pos = (381,0);
},
{
name = center;
pos = (379,371);
},
{
name = ogonek;
pos = (451,9);
},
{
name = top;
pos = (381,742);
},
{
name = topleft;
pos = (20,742);
},
{
name = topright;
pos = (517,742);
}
);
background = {
anchors = (
{
name = bottom;
pos = (381,0);
},
{
name = ogonek;
pos = (451,9);
},
{
name = top;
pos = (381,742);
}
);
shapes = (
{
closed = 1;
nodes = (
(379,-10,l),
(567,-10,o),
(680,122,o),
(680,369,c),
(680,618,o),
(567,752,o),
(380,752,c),
(192,752,o),
(78,617,o),
(78,367,c),
(78,121,o),
(190,-10,o),
(379,-10,c)
);
},
{
closed = 1;
nodes = (
(381,32,l),
(215,32,o),
(126,143,o),
(126,369,c),
(126,597,o),
(215,710,o),
(380,710,c),
(544,710,o),
(632,598,o),
(632,369,c),
(632,142,o),
(546,32,o),
(381,32,c)
);
}
);
};
guides = (
{
angle = 90;
pos = (-576,431);
},
{
angle = 90;
pos = (381,640);
}
);
layerId = "91AB5BCA-6A50-42DA-B2F7-8181BF189245";
shapes = (
{
closed = 1;
nodes = (
(379,-10,l),
(567,-10,o),
(680,122,o),
(680,369,c),
(680,618,o),
(567,752,o),
(380,752,c),
(192,752,o),
(78,617,o),
(78,367,c),
(78,121,o),
(190,-10,o),
(379,-10,c)
);
},
{
closed = 1;
nodes = (
(381,32,l),
(215,32,o),
(126,143,o),
(126,369,c),
(126,597,o),
(215,710,o),
(380,710,c),
(544,710,o),
(632,598,o),
(632,369,c),
(632,142,o),
(546,32,o),
(381,32,c)
);
}
);
width = 758;
},
{
anchors = (
{
name = bottom;
pos = (392,0);
},
{
name = center;
pos = (390,371);
},
{
name = ogonek;
pos = (483,10);
},
{
name = top;
pos = (390,742);
},
{
name = topleft;
pos = (20,742);
},
{
name = topright;
pos = (582,742);
}
);
background = {
anchors = (
{
name = bottom;
pos = (392,0);
},
{
name = ogonek;
pos = (483,10);
},
{
name = top;
pos = (390,742);
}
);
shapes = (
{
closed = 1;
nodes = (
(391,-10,l),
(609,-10,o),
(749,139,o),
(749,369,c),
(749,601,o),
(606,752,o),
(391,752,c),
(174,752,o),
(31,601,o),
(31,369,c),
(31,138,o),
(170,-10,o),
(391,-10,c)
);
},
{
closed = 1;
nodes = (
(391,146,l),
(302,146,o),
(269,206,o),
(269,366,c),
(269,531,o),
(304,598,o),
(391,598,c),
(476,598,o),
(511,531,o),
(511,366,c),
(511,206,o),
(478,146,o),
(391,146,c)
);
}
);
};
guides = (
{
angle = 90;
pos = (-606,431);
}
);
layerId = "258ED206-D907-4350-8EBA-CBDDA1C16BF7";
shapes = (
{
closed = 1;
nodes = (
(391,-10,l),
(609,-10,o),
(749,139,o),
(749,369,c),
(749,601,o),
(606,752,o),
(391,752,c),
(174,752,o),
(31,601,o),
(31,369,c),
(31,138,o),
(170,-10,o),
(391,-10,c)
);
},
{
closed = 1;
nodes = (
(391,146,l),
(302,146,o),
(269,206,o),
(269,366,c),
(269,531,o),
(304,598,o),
(391,598,c),
(476,598,o),
(511,531,o),
(511,366,c),
(511,206,o),
(478,146,o),
(391,146,c)
);
}
);
width = 780;
}
);
unicode = 79;
},
{
glyphname = Oslash;
lastChange = "2024-09-04 09:59:18 +0000";
layers = (
{
anchors = (
{
name = top;
pos = (355,742);
}
);
background = {
anchors = (
{
name = top;
pos = (355,742);
}
);
shapes = (
{
closed = 1;
nodes = (
(684,727,l),
(659,749,l),
(654,753,o),
(650,751,o),
(646,746,c),
(571,659,l),
(519,720,o),
(446,752,o),
(355,752,c),
(167,752,o),
(53,617,o),
(53,367,c),
(53,266,o),
(72,184,o),
(108,123,c),
(24,26,l),
(20,21,o),
(21,18,o),
(28,11,c),
(45,-5,l),
(53,-11,o),
(58,-11,o),
(64,-3,c),
(137,81,l),
(188,21,o),
(262,-10,o),
(354,-10,c),
(542,-10,o),
(655,122,o),
(655,369,c),
(655,472,o),
(636,555,o),
(600,617,c),
(685,716,l),
(688,720,o),
(687,724,o),
(684,727,c)
);
},
{
closed = 1;
nodes = (
(104,369,l),
(104,597,o),
(190,709,o),
(355,709,c),
(437,709,o),
(499,681,o),
(541,625,c),
(141,161,l),
(116,214,o),
(104,283,o),
(104,369,c)
);
},
{
closed = 1;
nodes = (
(604,369,l),
(604,142,o),
(521,33,o),
(356,33,c),
(273,33,o),
(210,61,o),
(167,117,c),
(567,580,l),
(592,526,o),
(604,456,o),
(604,369,c)
);
}
);
};
layerId = "91AB5BCA-6A50-42DA-B2F7-8181BF189245";
shapes = (
{
closed = 1;
nodes = (
(684,727,l),
(659,749,l),
(654,753,o),
(650,751,o),
(646,746,c),
(571,659,l),
(519,720,o),
(446,752,o),
(355,752,c),
(167,752,o),
(53,617,o),
(53,367,c),
(53,266,o),
(72,184,o),
(108,123,c),
(24,26,l),
(20,21,o),
(21,18,o),
(28,11,c),
(45,-5,l),
(53,-11,o),
(58,-11,o),
(64,-3,c),
(137,81,l),
(188,21,o),
(262,-10,o),
(354,-10,c),
(542,-10,o),
(655,122,o),
(655,369,c),
(655,472,o),
(636,555,o),
(600,617,c),
(685,716,l),
(688,720,o),
(687,724,o),
(684,727,c)
);
},
{
closed = 1;
nodes = (
(104,369,l),
(104,597,o),
(190,709,o),
(355,709,c),
(437,709,o),
(499,681,o),
(541,625,c),
(141,161,l),
(116,214,o),
(104,283,o),
(104,369,c)
);
},
{
closed = 1;
nodes = (
(604,369,l),
(604,142,o),
(521,33,o),
(356,33,c),
(273,33,o),
(210,61,o),
(167,117,c),
(567,580,l),
(592,526,o),
(604,456,o),
(604,369,c)
);
}
);
width = 708;
},
{
anchors = (
{
name = top;
pos = (393,742);
}
);
background = {
anchors = (
{
name = top;
pos = (393,742);
}
);
shapes = (
{
closed = 1;
nodes = (
(776,686,l),
(722,742,ls),
(714,750,o),
(702,748,o),
(691,737,c),
(626,674,l),
(566,724,o),
(487,752,o),
(394,752,c),
(177,752,o),
(34,601,o),
(34,369,c),
(34,283,o),
(53,209,o),
(88,150,c),
(21,84,ls),
(9,72,o),
(10,62,o),
(25,47,c),
(64,7,ls),
(80,-9,o),
(92,-8,o),
(107,7,c),
(164,63,l),
(224,16,o),
(302,-10,o),
(394,-10,c),
(612,-10,o),
(752,139,o),
(752,369,c),
(752,453,o),
(733,526,o),
(699,585,c),
(775,659,l),
(785,668,o),
(784,678,o),
(776,686,c)
);
},
{
closed = 1;
nodes = (
(272,366,l),
(272,531,o),
(307,598,o),
(394,598,c),
(438,598,o),
(469,580,o),
(488,539,c),
(273,329,l),
(272,342,o),
(272,354,o),
(272,366,c)
);
},
{
closed = 1;
nodes = (
(514,366,l),
(514,206,o),
(481,146,o),
(394,146,c),
(350,146,o),
(319,161,o),
(300,195,c),
(513,404,l),
(514,391,o),
(514,379,o),
(514,366,c)
);
}
);
};
layerId = "258ED206-D907-4350-8EBA-CBDDA1C16BF7";
shapes = (
{
closed = 1;
nodes = (
(776,686,l),
(722,742,ls),
(714,750,o),
(702,748,o),
(691,737,c),
(626,674,l),
(566,724,o),
(487,752,o),
(394,752,c),
(177,752,o),
(34,601,o),
(34,369,c),
(34,283,o),
(53,209,o),
(88,150,c),
(21,84,ls),
(9,72,o),
(10,62,o),
(25,47,c),
(64,7,ls),
(80,-9,o),
(92,-8,o),
(107,7,c),
(164,63,l),
(224,16,o),
(302,-10,o),
(394,-10,c),
(612,-10,o),
(752,139,o),
(752,369,c),
(752,453,o),
(733,526,o),
(699,585,c),
(775,659,l),
(785,668,o),
(784,678,o),
(776,686,c)
);
},
{
closed = 1;
nodes = (
(272,366,l),
(272,531,o),
(307,598,o),
(394,598,c),
(438,598,o),
(469,580,o),
(488,539,c),
(273,329,l),
(272,342,o),
(272,354,o),
(272,366,c)
);
},
{
closed = 1;
nodes = (
(514,366,l),
(514,206,o),
(481,146,o),
(394,146,c),
(350,146,o),
(319,161,o),
(300,195,c),
(513,404,l),
(514,391,o),
(514,379,o),
(514,366,c)
);
}
);
width = 786;
}
);
unicode = 216;
},
{
glyphname = OE;
kernLeft = O;
lastChange = "2024-09-04 09:59:18 +0000";
layers = (
{
background = {
shapes = (
{
closed = 1;
nodes = (
(1062,40,l),
(689,40,ls),
(682,40,o),
(680,41,o),
(680,49,c),
(680,346,ls),
(680,354,o),
(682,355,o),
(689,355,c),
(966,355,ls),
(972,355,o),
(974,356,o),
(974,362,c),
(974,388,ls),
(974,393,o),
(972,395,o),
(967,395,c),
(689,395,ls),
(682,395,o),
(680,396,o),
(680,402,c),
(680,693,ls),
(680,701,o),
(682,702,o),
(689,702,c),
(1047,702,ls),
(1053,702,o),
(1055,703,o),
(1055,709,c),
(1055,735,ls),
(1055,740,o),
(1053,742,o),
(1048,742,c),
(643,742,ls),
(636,742,o),
(634,740,o),
(634,732,c),
(634,600,l),
(584,700,o),
(497,752,o),
(380,752,c),
(192,752,o),
(78,617,o),
(78,367,c),
(78,121,o),
(190,-10,o),
(379,-10,c),
(496,-10,o),
(584,41,o),
(634,140,c),
(634,10,ls),
(634,2,o),
(636,0,o),
(643,0,c),
(1063,0,ls),
(1068,0,o),
(1070,2,o),
(1070,7,c),
(1070,33,ls),
(1070,39,o),
(1068,40,o),
(1062,40,c)
);
},
{
closed = 1;
nodes = (
(381,32,l),
(215,32,o),
(126,143,o),
(126,369,c),
(126,597,o),
(215,710,o),
(380,710,c),
(544,710,o),
(629,598,o),
(629,369,c),
(629,142,o),
(546,32,o),
(381,32,c)
);
}
);
};
layerId = "91AB5BCA-6A50-42DA-B2F7-8181BF189245";
shapes = (
{
closed = 1;
nodes = (
(1062,40,l),
(689,40,ls),
(682,40,o),
(680,41,o),
(680,49,c),
(680,346,ls),
(680,354,o),
(682,355,o),
(689,355,c),
(966,355,ls),
(972,355,o),
(974,356,o),
(974,362,c),
(974,388,ls),
(974,393,o),
(972,395,o),
(967,395,c),
(689,395,ls),
(682,395,o),
(680,396,o),
(680,402,c),
(680,693,ls),
(680,701,o),
(682,702,o),
(689,702,c),
(1047,702,ls),
(1053,702,o),
(1055,703,o),
(1055,709,c),
(1055,735,ls),
(1055,740,o),
(1053,742,o),
(1048,742,c),
(643,742,ls),
(636,742,o),
(634,740,o),
(634,732,c),
(634,601,l),
(584,701,o),
(497,752,o),
(380,752,c),
(192,752,o),
(78,617,o),
(78,367,c),
(78,121,o),
(190,-10,o),
(379,-10,c),
(496,-10,o),
(583,32,o),
(633,131,c),
(633,10,ls),
(633,2,o),
(635,0,o),
(642,0,c),
(1063,0,ls),
(1068,0,o),
(1070,2,o),
(1070,7,c),
(1070,33,ls),
(1070,39,o),
(1068,40,o),
(1062,40,c)
);
},
{
closed = 1;
nodes = (
(381,32,l),
(215,32,o),
(126,143,o),
(126,369,c),
(126,597,o),
(215,710,o),
(380,710,c),
(540,710,o),
(632,601,o),
(632,433,c),
(632,333,ls),
(632,138,o),
(546,32,o),
(381,32,c)
);
}
);
width = 1122;
},
{
background = {
shapes = (
{
closed = 1;
nodes = (
(1075,164,l),
(750,164,ls),
(741,164,o),
(738,167,o),
(738,178,c),
(738,278,ls),
(738,286,o),
(744,292,o),
(754,292,c),
(939,292,ls),
(952,292,o),
(957,300,o),
(957,309,c),
(957,433,ls),
(957,446,o),
(950,453,o),
(936,453,c),
(756,453,ls),
(746,453,o),
(738,460,o),
(738,474,c),
(738,559,ls),
(738,572,o),
(746,578,o),
(761,578,c),
(1061,578,ls),
(1079,578,o),
(1087,589,o),
(1087,605,c),
(1088,721,ls),
(1088,734,o),
(1082,742,o),
(1070,742,c),
(522,742,l),
(515,742,o),
(512,740,o),
(512,735,c),
(512,730,l),
(486,745,o),
(450,752,o),
(401,752,c),
(175,752,o),
(31,601,o),
(31,367,c),
(31,138,o),
(169,-10,o),
(393,-10,c),
(445,-10,o),
(482,-2,o),
(512,16,c),
(512,8,ls),
(512,2,o),
(515,0,o),
(522,0,c),
(1073,0,ls),
(1090,0,o),
(1097,10,o),
(1097,22,c),
(1097,145,ls),
(1097,159,o),
(1089,164,o),
(1075,164,c)
);
},
{
closed = 1;
nodes = (
(390,146,l),
(302,146,o),
(269,206,o),
(269,366,c),
(269,530,o),
(304,598,o),
(391,598,c),
(476,598,o),
(511,532,o),
(511,366,c),
(511,205,o),
(478,146,o),
(390,146,c)
);
}
);
};
layerId = "258ED206-D907-4350-8EBA-CBDDA1C16BF7";
shapes = (
{
closed = 1;
nodes = (
(1075,164,l),
(750,164,ls),
(741,164,o),
(738,167,o),
(738,178,c),
(738,278,ls),
(738,286,o),
(744,292,o),
(754,292,c),
(939,292,ls),
(952,292,o),
(957,300,o),
(957,309,c),
(957,433,ls),
(957,446,o),
(950,453,o),
(936,453,c),
(756,453,ls),
(746,453,o),
(738,460,o),
(738,474,c),
(738,559,ls),
(738,572,o),
(746,578,o),
(761,578,c),
(1061,578,ls),
(1079,578,o),
(1087,589,o),
(1087,605,c),
(1088,721,ls),
(1088,734,o),
(1082,742,o),
(1070,742,c),
(522,742,l),
(515,742,o),
(512,740,o),
(512,735,c),
(512,720,l),
(483,742,o),
(431,752,o),
(378,752,c),
(172,752,o),
(31,601,o),
(31,368,c),
(31,137,o),
(169,-10,o),
(363,-10,c),
(425,-10,o),
(482,5,o),
(512,26,c),
(512,8,ls),
(512,2,o),
(515,0,o),
(522,0,c),
(1073,0,ls),
(1090,0,o),
(1097,10,o),
(1097,22,c),
(1097,145,ls),
(1097,159,o),
(1089,164,o),
(1075,164,c)
);
},
{
closed = 1;
nodes = (
(390,146,l),
(302,146,o),
(269,206,o),
(269,366,c),
(269,530,o),
(304,598,o),
(391,598,c),
(474,598,o),
(511,544,o),
(511,390,c),
(511,346,ls),
(511,205,o),
(478,146,o),
(390,146,c)
);
}
);
width = 1130;
}
);
metricLeft = O;
metricRight = E;
unicode = 338;
},
{
glyphname = P;
kernRight = P;
lastChange = "2024-09-04 09:59:18 +0000";
layers = (
{
background = {
shapes = (
{
closed = 1;
nodes = (
(611,535,l),
(611,684,o),
(500,742,o),
(345,742,c),
(123,742,ls),
(116,742,o),
(114,740,o),
(114,732,c),
(114,8,ls),
(114,3,o),
(117,0,o),
(122,0,c),
(152,0,ls),
(157,0,o),
(160,3,o),
(160,9,c),
(160,318,ls),
(160,324,o),
(162,327,o),
(168,327,c),
(351,327,ls),
(502,327,o),
(611,387,o),
(611,535,c)
);
},
{
closed = 1;
nodes = (
(563,538,l),
(563,415,o),
(479,367,o),
(351,367,c),
(167,367,ls),
(162,367,o),
(160,370,o),
(160,377,c),
(160,694,ls),
(160,700,o),
(163,702,o),
(169,702,c),
(344,702,ls),
(479,702,o),
(563,662,o),
(563,538,c)
);
}
);
};
layerId = "91AB5BCA-6A50-42DA-B2F7-8181BF189245";
shapes = (
{
closed = 1;
nodes = (
(611,535,l),
(611,684,o),
(500,742,o),
(345,742,c),
(123,742,ls),
(116,742,o),
(114,740,o),
(114,732,c),
(114,8,ls),
(114,3,o),
(117,0,o),
(122,0,c),
(152,0,ls),
(157,0,o),
(160,3,o),
(160,9,c),
(160,318,ls),
(160,324,o),
(162,327,o),
(168,327,c),
(351,327,ls),
(502,327,o),
(611,387,o),
(611,535,c)
);
},
{
closed = 1;
nodes = (
(563,538,l),
(563,415,o),
(479,367,o),
(351,367,c),
(167,367,ls),
(162,367,o),
(160,370,o),
(160,377,c),
(160,694,ls),
(160,700,o),
(163,702,o),
(169,702,c),
(344,702,ls),
(479,702,o),
(563,662,o),
(563,538,c)
);
}
);
width = 674;
},
{
background = {
shapes = (
{
closed = 1;
nodes = (
(703,501,l),
(703,662,o),
(566,742,o),
(402,742,c),
(71,742,ls),
(59,742,o),
(52,734,o),
(52,719,c),
(52,25,ls),
(52,8,o),
(58,0,o),
(78,0,c),
(246,0,ls),
(269,0,o),
(279,8,o),
(279,29,c),
(279,255,ls),
(279,262,o),
(282,266,o),
(291,266,c),
(428,266,ls),
(591,266,o),
(703,355,o),
(703,501,c)
);
},
{
closed = 1;
nodes = (
(471,504,l),
(471,461,o),
(442,426,o),
(394,426,c),
(296,426,ls),
(283,426,o),
(279,433,o),
(279,448,c),
(279,561,ls),
(279,576,o),
(285,582,o),
(302,582,c),
(388,582,ls),
(434,582,o),
(471,552,o),
(471,504,c)
);
}
);
};
layerId = "258ED206-D907-4350-8EBA-CBDDA1C16BF7";
shapes = (
{
closed = 1;
nodes = (
(703,501,l),
(703,662,o),
(566,742,o),
(402,742,c),
(71,742,ls),
(59,742,o),
(52,734,o),
(52,719,c),
(52,25,ls),
(52,8,o),
(58,0,o),
(78,0,c),
(246,0,ls),
(269,0,o),
(279,8,o),
(279,29,c),
(279,255,ls),
(279,262,o),
(282,266,o),
(291,266,c),
(428,266,ls),
(591,266,o),
(703,355,o),
(703,501,c)
);
},
{
closed = 1;
nodes = (
(471,504,l),
(471,461,o),
(442,426,o),
(394,426,c),
(296,426,ls),
(283,426,o),
(279,433,o),
(279,448,c),
(279,561,ls),
(279,576,o),
(285,582,o),
(302,582,c),
(388,582,ls),
(434,582,o),
(471,552,o),
(471,504,c)
);
}
);
width = 731;
}
);
unicode = 80;
},
{
glyphname = Thorn;
lastChange = "2024-09-04 09:59:18 +0000";
layers = (
{
background = {
shapes = (
{
closed = 1;
nodes = (
(611,390,l),
(611,522,o),
(501,579,o),
(345,579,c),
(166,579,ls),
(162,579,o),
(160,581,o),
(160,584,c),
(160,732,ls),
(160,740,o),
(158,742,o),
(151,742,c),
(123,742,ls),
(116,742,o),
(114,740,o),
(114,732,c),
(114,8,ls),
(114,3,o),
(117,0,o),
(122,0,c),
(152,0,ls),
(157,0,o),
(160,3,o),
(160,9,c),
(160,173,ls),
(160,179,o),
(162,182,o),
(168,182,c),
(351,182,ls),
(501,182,o),
(611,239,o),
(611,390,c)
);
},
{
closed = 1;
nodes = (
(563,390,l),
(563,268,o),
(479,222,o),
(351,222,c),
(167,222,ls),
(162,222,o),
(160,225,o),
(160,232,c),
(160,531,ls),
(160,537,o),
(163,539,o),
(169,539,c),
(344,539,ls),
(479,539,o),
(563,501,o),
(563,390,c)
);
}
);
};
layerId = "91AB5BCA-6A50-42DA-B2F7-8181BF189245";
shapes = (
{
closed = 1;
nodes = (
(611,390,l),
(611,522,o),
(501,579,o),
(345,579,c),
(166,579,ls),
(162,579,o),
(160,581,o),
(160,584,c),
(160,732,ls),
(160,740,o),
(158,742,o),
(151,742,c),
(123,742,ls),
(116,742,o),
(114,740,o),
(114,732,c),
(114,8,ls),
(114,3,o),
(117,0,o),
(122,0,c),
(152,0,ls),
(157,0,o),
(160,3,o),
(160,9,c),
(160,173,ls),
(160,179,o),
(162,182,o),
(168,182,c),
(351,182,ls),
(501,182,o),
(611,239,o),
(611,390,c)
);
},
{
closed = 1;
nodes = (
(563,390,l),
(563,268,o),
(479,222,o),
(351,222,c),
(167,222,ls),
(162,222,o),
(160,225,o),
(160,232,c),
(160,531,ls),
(160,537,o),
(163,539,o),
(169,539,c),
(344,539,ls),
(479,539,o),
(563,501,o),
(563,390,c)
);
}
);
width = 674;
},
{
background = {
shapes = (
{
closed = 1;
nodes = (
(716,372,l),
(716,530,o),
(579,608,o),
(415,608,c),
(289,608,ls),
(282,608,o),
(279,612,o),
(279,620,c),
(279,721,ls),
(279,734,o),
(273,742,o),
(261,742,c),
(71,742,ls),
(60,742,o),
(52,734,o),
(52,719,c),
(52,25,ls),
(52,8,o),
(58,0,o),
(78,0,c),
(246,0,ls),
(269,0,o),
(279,8,o),
(279,29,c),
(279,131,ls),
(279,138,o),
(282,142,o),
(291,142,c),
(441,142,ls),
(604,142,o),
(716,229,o),
(716,372,c)
);
},
{
closed = 1;
nodes = (
(484,375,l),
(484,335,o),
(455,302,o),
(407,302,c),
(296,302,ls),
(283,302,o),
(279,309,o),
(279,324,c),
(279,427,ls),
(279,442,o),
(285,448,o),
(302,448,c),
(401,448,ls),
(447,448,o),
(484,420,o),
(484,375,c)
);
}
);
};
layerId = "258ED206-D907-4350-8EBA-CBDDA1C16BF7";
shapes = (
{
closed = 1;
nodes = (
(716,372,l),
(716,530,o),
(579,608,o),
(415,608,c),
(289,608,ls),
(282,608,o),
(279,612,o),
(279,620,c),
(279,721,ls),
(279,734,o),
(273,742,o),
(261,742,c),
(71,742,ls),
(60,742,o),
(52,734,o),
(52,719,c),
(52,25,ls),
(52,8,o),
(58,0,o),
(78,0,c),
(246,0,ls),
(269,0,o),
(279,8,o),
(279,29,c),
(279,131,ls),
(279,138,o),
(282,142,o),
(291,142,c),
(441,142,ls),
(604,142,o),
(716,229,o),
(716,372,c)
);
},
{
closed = 1;
nodes = (
(484,375,l),
(484,335,o),
(455,302,o),
(407,302,c),
(296,302,ls),
(283,302,o),
(279,309,o),
(279,324,c),
(279,427,ls),
(279,442,o),
(285,448,o),
(302,448,c),
(401,448,ls),
(447,448,o),
(484,420,o),
(484,375,c)
);
}
);
width = 744;
}
);
metricLeft = P;
metricRight = P;
unicode = 222;
},
{
glyphname = Q;
kernLeft = O;
kernRight = O;
lastChange = "2024-09-04 09:59:18 +0000";
layers = (
{
background = {
shapes = (
{
closed = 1;
nodes = (
(78,369,l),
(78,116,o),
(195,-10,o),
(379,-10,c),
(405,-10,o),
(435,-7,o),
(460,-1,c),
(467,1,o),
(472,-1,o),
(475,-5,c),
(540,-96,o),
(606,-122,o),
(650,-122,c),
(664,-122,o),
(670,-120,o),
(670,-109,c),
(670,-87,ls),
(670,-84,o),
(669,-81,o),
(663,-80,c),
(588,-70,o),
(521,-11,o),
(521,16,c),
(521,20,o),
(522,22,o),
(527,25,c),
(624,83,o),
(680,189,o),
(680,369,c),
(680,620,o),
(567,752,o),
(379,752,c),
(191,752,o),
(78,620,o),
(78,369,c)
);
},
{
closed = 1;
nodes = (
(126,367,l),
(126,592,o),
(212,710,o),
(379,710,c),
(546,710,o),
(632,592,o),
(632,369,c),
(632,141,o),
(543,32,o),
(379,32,c),
(215,32,o),
(126,141,o),
(126,367,c)
);
}
);
};
layerId = "91AB5BCA-6A50-42DA-B2F7-8181BF189245";
shapes = (
{
closed = 1;
nodes = (
(78,369,l),
(78,116,o),
(195,-10,o),
(379,-10,c),
(405,-10,o),
(435,-7,o),
(460,-1,c),
(467,1,o),
(472,-1,o),
(475,-5,c),
(540,-96,o),
(606,-122,o),
(650,-122,c),
(664,-122,o),
(670,-120,o),
(670,-109,c),
(670,-87,ls),
(670,-84,o),
(669,-81,o),
(663,-80,c),
(588,-70,o),
(521,-11,o),
(521,16,c),
(521,20,o),
(522,22,o),
(527,25,c),
(624,83,o),
(680,189,o),
(680,369,c),
(680,620,o),
(567,752,o),
(379,752,c),
(191,752,o),
(78,620,o),
(78,369,c)
);
},
{
closed = 1;
nodes = (
(126,367,l),
(126,592,o),
(212,710,o),
(379,710,c),
(546,710,o),
(632,592,o),
(632,369,c),
(632,141,o),
(543,32,o),
(379,32,c),
(215,32,o),
(126,141,o),
(126,367,c)
);
}
);
width = 758;
},
{
background = {
shapes = (
{
closed = 1;
nodes = (
(31,369,l),
(31,138,o),
(170,-10,o),
(391,-10,c),
(417,-10,o),
(438,-9,o),
(462,-6,c),
(469,-5,o),
(474,-6,o),
(477,-10,c),
(534,-84,o),
(606,-128,o),
(706,-128,c),
(738,-128,o),
(750,-122,o),
(750,-97,c),
(750,13,ls),
(750,20,o),
(747,28,o),
(733,30,c),
(690,36,o),
(643,61,o),
(643,78,c),
(643,82,o),
(643,84,o),
(645,86,c),
(712,152,o),
(750,249,o),
(750,369,c),
(750,601,o),
(607,752,o),
(391,752,c),
(174,752,o),
(31,601,o),
(31,369,c)
);
},
{
closed = 1;
nodes = (
(269,367,l),
(269,532,o),
(304,598,o),
(391,598,c),
(477,598,o),
(512,532,o),
(512,367,c),
(512,206,o),
(479,146,o),
(391,146,c),
(302,146,o),
(269,206,o),
(269,367,c)
);
}
);
};
layerId = "258ED206-D907-4350-8EBA-CBDDA1C16BF7";
shapes = (
{
closed = 1;
nodes = (
(31,369,l),
(31,138,o),
(170,-10,o),
(391,-10,c),
(417,-10,o),
(438,-9,o),
(462,-6,c),
(469,-5,o),
(474,-6,o),
(477,-10,c),
(534,-84,o),
(606,-128,o),
(706,-128,c),
(738,-128,o),
(750,-122,o),
(750,-97,c),
(750,13,ls),
(750,20,o),
(747,28,o),
(733,30,c),
(690,36,o),
(643,61,o),
(643,78,c),
(643,82,o),
(643,84,o),
(645,86,c),
(712,152,o),
(750,249,o),
(750,369,c),
(750,601,o),
(607,752,o),
(391,752,c),
(174,752,o),
(31,601,o),
(31,369,c)
);
},
{
closed = 1;
nodes = (
(269,367,l),
(269,532,o),
(304,598,o),
(391,598,c),
(477,598,o),
(512,532,o),
(512,367,c),
(512,206,o),
(479,146,o),
(391,146,c),
(302,146,o),
(269,206,o),
(269,367,c)
);
}
);
width = 782;
}
);
unicode = 81;
},
{
glyphname = R;
kernRight = R;
lastChange = "2024-09-04 09:59:18 +0000";
layers = (
{
anchors = (
{
name = bottom;
pos = (341,0);
},
{
name = top;
pos = (334,742);
}
);
background = {
anchors = (
{
name = bottom;
pos = (341,0);
},
{
name = top;
pos = (334,742);
}
);
shapes = (
{
closed = 1;
nodes = (
(599,14,l),
(453,359,l),
(452,362,o),
(453,365,o),
(457,366,c),
(526,384,o),
(609,435,o),
(609,558,c),
(609,680,o),
(525,742,o),
(381,742,c),
(123,742,ls),
(116,742,o),
(114,740,o),
(114,732,c),
(114,9,ls),
(114,3,o),
(116,0,o),
(124,0,c),
(150,0,ls),
(158,0,o),
(160,3,o),
(160,11,c),
(160,344,ls),
(160,351,o),
(163,355,o),
(172,355,c),
(388,355,ls),
(401,355,o),
(406,352,o),
(409,345,c),
(551,9,ls),
(554,3,o),
(556,0,o),
(563,0,c),
(591,0,ls),
(598,0,o),
(602,7,o),
(599,14,c)
);
},
{
closed = 1;
nodes = (
(346,395,l),
(167,395,ls),
(162,395,o),
(160,398,o),
(160,404,c),
(160,694,ls),
(160,700,o),
(163,702,o),
(171,702,c),
(380,702,ls),
(501,702,o),
(561,653,o),
(561,551,c),
(561,439,o),
(489,395,o),
(346,395,c)
);
}
);
};
layerId = "91AB5BCA-6A50-42DA-B2F7-8181BF189245";
shapes = (
{
closed = 1;
nodes = (
(599,14,l),
(453,359,l),
(452,362,o),
(453,365,o),
(457,366,c),
(526,384,o),
(609,435,o),
(609,558,c),
(609,680,o),
(525,742,o),
(381,742,c),
(123,742,ls),
(116,742,o),
(114,740,o),
(114,732,c),
(114,9,ls),
(114,3,o),
(116,0,o),
(124,0,c),
(150,0,ls),
(158,0,o),
(160,3,o),
(160,11,c),
(160,344,ls),
(160,351,o),
(163,355,o),
(172,355,c),
(388,355,ls),
(401,355,o),
(406,352,o),
(409,345,c),
(551,9,ls),
(554,3,o),
(556,0,o),
(563,0,c),
(591,0,ls),
(598,0,o),
(602,7,o),
(599,14,c)
);
},
{
closed = 1;
nodes = (
(346,395,l),
(167,395,ls),
(162,395,o),
(160,398,o),
(160,404,c),
(160,694,ls),
(160,700,o),
(163,702,o),
(171,702,c),
(380,702,ls),
(501,702,o),
(561,653,o),
(561,551,c),
(561,439,o),
(489,395,o),
(346,395,c)
);
}
);
width = 679;
},
{
anchors = (
{
name = bottom;
pos = (368,0);
},
{
name = top;
pos = (358,742);
}
);
background = {
anchors = (
{
name = bottom;
pos = (368,0);
},
{
name = top;
pos = (358,742);
}
);
shapes = (
{
closed = 1;
nodes = (
(701,32,l),
(575,312,ls),
(572,320,o),
(572,328,o),
(579,331,c),
(655,360,o),
(710,436,o),
(710,530,c),
(710,664,o),
(598,742,o),
(405,742,c),
(71,742,ls),
(59,742,o),
(52,734,o),
(52,719,c),
(52,25,ls),
(52,8,o),
(58,0,o),
(78,0,c),
(246,0,ls),
(269,0,o),
(279,8,o),
(279,29,c),
(279,284,ls),
(279,287,o),
(282,295,o),
(291,295,c),
(337,295,ls),
(356,295,o),
(364,290,o),
(368,279,c),
(462,21,ls),
(466,7,o),
(475,0,o),
(489,0,c),
(683,0,ls),
(699,0,o),
(708,15,o),
(701,32,c)
);
},
{
closed = 1;
nodes = (
(396,444,l),
(296,444,ls),
(283,444,o),
(279,450,o),
(279,465,c),
(279,574,ls),
(279,589,o),
(285,594,o),
(302,594,c),
(390,594,ls),
(435,594,o),
(475,567,o),
(475,516,c),
(475,473,o),
(447,444,o),
(396,444,c)
);
}
);
};
layerId = "258ED206-D907-4350-8EBA-CBDDA1C16BF7";
shapes = (
{
closed = 1;
nodes = (
(701,32,l),
(575,312,ls),
(572,320,o),
(572,328,o),
(579,331,c),
(655,360,o),
(710,436,o),
(710,530,c),
(710,664,o),
(598,742,o),
(405,742,c),
(71,742,ls),
(59,742,o),
(52,734,o),
(52,719,c),
(52,25,ls),
(52,8,o),
(58,0,o),
(78,0,c),
(246,0,ls),
(269,0,o),
(279,8,o),
(279,29,c),
(279,284,ls),
(279,287,o),
(282,295,o),
(291,295,c),
(337,295,ls),
(356,295,o),
(364,290,o),
(368,279,c),
(462,21,ls),
(466,7,o),
(475,0,o),
(489,0,c),
(683,0,ls),
(699,0,o),
(708,15,o),
(701,32,c)
);
},
{
closed = 1;
nodes = (
(396,444,l),
(296,444,ls),
(283,444,o),
(279,450,o),
(279,465,c),
(279,574,ls),
(279,589,o),
(285,594,o),
(302,594,c),
(390,594,ls),
(435,594,o),
(475,567,o),
(475,516,c),
(475,473,o),
(447,444,o),
(396,444,c)
);
}
);
width = 739;
}
);
unicode = 82;
},
{
glyphname = S;
kernLeft = S;
kernRight = S;
lastChange = "2024-09-04 09:59:18 +0000";
layers = (
{
anchors = (
{
name = bottom;
pos = (323,0);
},
{
name = top;
pos = (319,742);
}
);
background = {
anchors = (
{
name = bottom;
pos = (323,0);
},
{
name = top;
pos = (319,742);
}
);
shapes = (
{
closed = 1;
nodes = (
(500,627,l),
(506,620,o),
(508,618,o),
(513,622,c),
(535,642,ls),
(541,647,o),
(539,652,o),
(535,656,c),
(478,716,o),
(411,752,o),
(318,752,c),
(181,752,o),
(86,681,o),
(86,556,c),
(86,492,o),
(116,421,o),
(224,380,c),
(375,322,ls),
(484,280,o),
(507,239,o),
(507,180,c),
(507,73,o),
(428,32,o),
(309,32,c),
(202,32,o),
(154,69,o),
(98,141,c),
(93,147,o),
(88,148,o),
(78,141,c),
(67,133,ls),
(57,126,o),
(56,120,o),
(61,113,c),
(120,29,o),
(198,-10,o),
(309,-10,c),
(460,-10,o),
(553,60,o),
(553,182,c),
(553,266,o),
(510,326,o),
(392,369,c),
(254,419,ls),
(147,458,o),
(132,518,o),
(132,557,c),
(132,656,o),
(206,710,o),
(315,710,c),
(399,710,o),
(460,674,o),
(500,627,c)
);
}
);
};
layerId = "91AB5BCA-6A50-42DA-B2F7-8181BF189245";
shapes = (
{
closed = 1;
nodes = (
(500,627,l),
(506,620,o),
(508,618,o),
(513,622,c),
(535,642,ls),
(541,647,o),
(539,652,o),
(535,656,c),
(478,716,o),
(411,752,o),
(318,752,c),
(181,752,o),
(86,681,o),
(86,556,c),
(86,492,o),
(116,421,o),
(224,380,c),
(375,322,ls),
(484,280,o),
(507,239,o),
(507,180,c),
(507,73,o),
(428,32,o),
(309,32,c),
(202,32,o),
(154,69,o),
(98,141,c),
(93,147,o),
(88,148,o),
(78,141,c),
(67,133,ls),
(57,126,o),
(56,120,o),
(61,113,c),
(120,29,o),
(198,-10,o),
(309,-10,c),
(460,-10,o),
(553,60,o),
(553,182,c),
(553,266,o),
(510,326,o),
(392,369,c),
(254,419,ls),
(147,458,o),
(132,518,o),
(132,557,c),
(132,656,o),
(206,710,o),
(315,710,c),
(399,710,o),
(460,674,o),
(500,627,c)
);
}
);
width = 618;
},
{
anchors = (
{
name = bottom;
pos = (355,0);
},
{
name = top;
pos = (355,742);
}
);
background = {
anchors = (
{
name = bottom;
pos = (355,0);
},
{
name = top;
pos = (355,742);
}
);
shapes = (
{
closed = 1;
nodes = (
(494,543,l),
(508,529,o),
(514,528,o),
(524,535,c),
(633,614,ls),
(646,624,o),
(639,635,o),
(633,644,c),
(587,709,o),
(474,752,o),
(355,752,c),
(166,752,o),
(47,645,o),
(47,515,c),
(47,410,o),
(123,323,o),
(243,293,c),
(395,256,ls),
(438,246,o),
(458,226,o),
(458,202,c),
(458,165,o),
(410,144,o),
(337,144,c),
(258,144,o),
(219,167,o),
(175,224,c),
(167,234,o),
(155,238,o),
(137,226,c),
(34,155,ls),
(20,144,o),
(20,136,o),
(28,122,c),
(75,43,o),
(208,-10,o),
(354,-10,c),
(551,-10,o),
(674,86,o),
(674,234,c),
(674,337,o),
(616,421,o),
(491,452,c),
(325,495,ls),
(275,507,o),
(261,528,o),
(261,546,c),
(261,571,o),
(288,597,o),
(363,597,c),
(441,597,o),
(470,569,o),
(494,543,c)
);
}
);
};
layerId = "258ED206-D907-4350-8EBA-CBDDA1C16BF7";
shapes = (
{
closed = 1;
nodes = (
(494,543,l),
(508,529,o),
(514,528,o),
(524,535,c),
(633,614,ls),
(646,624,o),
(639,635,o),
(633,644,c),
(587,709,o),
(474,752,o),
(355,752,c),
(166,752,o),
(47,645,o),
(47,515,c),
(47,410,o),
(123,323,o),
(243,293,c),
(395,256,ls),
(438,246,o),
(458,226,o),
(458,202,c),
(458,165,o),
(410,144,o),
(337,144,c),
(258,144,o),
(219,167,o),
(175,224,c),
(167,234,o),
(155,238,o),
(137,226,c),
(34,155,ls),
(20,144,o),
(20,136,o),
(28,122,c),
(75,43,o),
(208,-10,o),
(354,-10,c),
(551,-10,o),
(674,86,o),
(674,234,c),
(674,337,o),
(616,421,o),
(491,452,c),
(325,495,ls),
(275,507,o),
(261,528,o),
(261,546,c),
(261,571,o),
(288,597,o),
(363,597,c),
(441,597,o),
(470,569,o),
(494,543,c)
);
}
);
width = 701;
}
);
unicode = 83;
},
{
glyphname = T;
kernLeft = T;
kernRight = T;
lastChange = "2024-09-04 09:59:18 +0000";
layers = (
{
anchors = (
{
name = bottom;
pos = (323,0);
},
{
name = top;
pos = (323,742);
}
);
background = {
anchors = (
{
name = bottom;
pos = (323,0);
},
{
name = top;
pos = (323,742);
}
);
shapes = (
{
closed = 1;
nodes = (
(47,709,l),
(47,703,o),
(49,702,o),
(55,702,c),
(289,702,ls),
(297,702,o),
(299,701,o),
(299,693,c),
(299,10,ls),
(299,2,o),
(301,0,o),
(309,0,c),
(336,0,ls),
(343,0,o),
(345,2,o),
(345,10,c),
(345,693,ls),
(345,701,o),
(347,702,o),
(355,702,c),
(568,702,ls),
(574,702,o),
(576,703,o),
(576,709,c),
(576,735,ls),
(576,740,o),
(574,742,o),
(569,742,c),
(54,742,ls),
(49,742,o),
(47,740,o),
(47,735,c)
);
}
);
};
layerId = "91AB5BCA-6A50-42DA-B2F7-8181BF189245";
shapes = (
{
closed = 1;
nodes = (
(47,709,l),
(47,703,o),
(49,702,o),
(55,702,c),
(289,702,ls),
(297,702,o),
(299,701,o),
(299,693,c),
(299,10,ls),
(299,2,o),
(301,0,o),
(309,0,c),
(336,0,ls),
(343,0,o),
(345,2,o),
(345,10,c),
(345,693,ls),
(345,701,o),
(347,702,o),
(355,702,c),
(568,702,ls),
(574,702,o),
(576,703,o),
(576,709,c),
(576,735,ls),
(576,740,o),
(574,742,o),
(569,742,c),
(54,742,ls),
(49,742,o),
(47,740,o),
(47,735,c)
);
}
);
width = 623;
},
{
anchors = (
{
name = bottom;
pos = (352,0);
},
{
name = top;
pos = (352,742);
}
);
background = {
anchors = (
{
name = bottom;
pos = (352,0);
},
{
name = top;
pos = (352,742);
}
);
shapes = (
{
closed = 1;
nodes = (
(28,600,l),
(28,586,o),
(37,581,o),
(51,581,c),
(227,581,ls),
(235,581,o),
(238,577,o),
(238,567,c),
(238,20,ls),
(238,7,o),
(245,0,o),
(256,0,c),
(446,0,ls),
(457,0,o),
(465,7,o),
(465,22,c),
(465,571,ls),
(465,578,o),
(469,581,o),
(477,581,c),
(654,581,ls),
(667,581,o),
(676,586,o),
(676,600,c),
(676,719,ls),
(676,732,o),
(668,742,o),
(651,742,c),
(53,742,ls),
(36,742,o),
(28,732,o),
(28,719,c)
);
}
);
};
layerId = "258ED206-D907-4350-8EBA-CBDDA1C16BF7";
shapes = (
{
closed = 1;
nodes = (
(28,600,l),
(28,586,o),
(37,581,o),
(51,581,c),
(227,581,ls),
(235,581,o),
(238,577,o),
(238,567,c),
(238,20,ls),
(238,7,o),
(245,0,o),
(256,0,c),
(446,0,ls),
(457,0,o),
(465,7,o),
(465,22,c),
(465,571,ls),
(465,578,o),
(469,581,o),
(477,581,c),
(654,581,ls),
(667,581,o),
(676,586,o),
(676,600,c),
(676,719,ls),
(676,732,o),
(668,742,o),
(651,742,c),
(53,742,ls),
(36,742,o),
(28,732,o),
(28,719,c)
);
}
);
width = 704;
}
);
unicode = 84;
},
{
glyphname = Tbar;
lastChange = "2024-09-04 09:59:18 +0000";
layers = (
{
background = {
shapes = (
{
closed = 1;
nodes = (
(504,394,l),
(504,399,o),
(502,402,o),
(497,402,c),
(145,402,ls),
(140,402,o),
(138,399,o),
(138,393,c),
(138,370,ls),
(138,363,o),
(140,360,o),
(148,360,c),
(491,360,ls),
(500,360,o),
(504,363,o),
(504,371,c)
);
},
{
ref = T;
}
);
};
guides = (
{
angle = 90;
pos = (175,188);
}
);
layerId = "91AB5BCA-6A50-42DA-B2F7-8181BF189245";
shapes = (
{
closed = 1;
nodes = (
(504,394,l),
(504,399,o),
(502,402,o),
(497,402,c),
(145,402,ls),
(140,402,o),
(138,399,o),
(138,393,c),
(138,370,ls),
(138,363,o),
(140,360,o),
(148,360,c),
(491,360,ls),
(500,360,o),
(504,363,o),
(504,371,c)
);
},
{
ref = T;
}
);
width = 623;
},
{
background = {
shapes = (
{
closed = 1;
nodes = (
(554,402,l),
(554,414,o),
(547,422,o),
(536,422,c),
(135,422,ls),
(123,422,o),
(116,414,o),
(116,399,c),
(116,306,ls),
(116,289,o),
(122,281,o),
(142,281,c),
(521,281,ls),
(544,281,o),
(554,289,o),
(554,309,c)
);
},
{
ref = T;
}
);
};
layerId = "258ED206-D907-4350-8EBA-CBDDA1C16BF7";
shapes = (
{
closed = 1;
nodes = (
(554,402,l),
(554,414,o),
(547,422,o),
(536,422,c),
(135,422,ls),
(123,422,o),
(116,414,o),
(116,399,c),
(116,306,ls),
(116,289,o),
(122,281,o),
(142,281,c),
(521,281,ls),
(544,281,o),
(554,289,o),
(554,309,c)
);
},
{
ref = T;
}
);
width = 704;
}
);
metricLeft = T;
metricRight = T;
unicode = 358;
},
{
glyphname = U;
kernLeft = U;
kernRight = U;
lastChange = "2024-09-04 09:59:18 +0000";
layers = (
{
anchors = (
{
name = bottom;
pos = (351,0);
},
{
name = ogonek;
pos = (423,9);
},
{
name = top;
pos = (355,742);
},
{
name = topright;
pos = (632,742);
}
);
background = {
anchors = (
{
name = ogonek;
pos = (423,9);
},
{
name = top;
pos = (355,742);
}
);
shapes = (
{
closed = 1;
nodes = (
(598,230,l),
(598,733,ls),
(598,739,o),
(596,742,o),
(590,742,c),
(566,742,ls),
(560,742,o),
(558,739,o),
(558,733,c),
(558,229,ls),
(558,97,o),
(491,32,o),
(353,32,c),
(217,32,o),
(150,96,o),
(150,226,c),
(150,732,ls),
(150,740,o),
(148,742,o),
(140,742,c),
(112,742,ls),
(106,742,o),
(104,739,o),
(104,731,c),
(104,245,ls),
(104,71,o),
(183,-10,o),
(351,-10,c),
(517,-10,o),
(598,69,o),
(598,230,c)
);
}
);
};
layerId = "91AB5BCA-6A50-42DA-B2F7-8181BF189245";
shapes = (
{
closed = 1;
nodes = (
(598,230,l),
(598,733,ls),
(598,739,o),
(596,742,o),
(590,742,c),
(566,742,ls),
(560,742,o),
(558,739,o),
(558,733,c),
(558,229,ls),
(558,97,o),
(491,32,o),
(353,32,c),
(217,32,o),
(150,96,o),
(150,226,c),
(150,732,ls),
(150,740,o),
(148,742,o),
(140,742,c),
(112,742,ls),
(106,742,o),
(104,739,o),
(104,731,c),
(104,245,ls),
(104,71,o),
(183,-10,o),
(351,-10,c),
(517,-10,o),
(598,69,o),
(598,230,c)
);
}
);
width = 702;
},
{
anchors = (
{
name = bottom;
pos = (364,0);
},
{
name = ogonek;
pos = (476,10);
},
{
name = top;
pos = (381,742);
},
{
name = topright;
pos = (708,742);
}
);
background = {
anchors = (
{
name = ogonek;
pos = (476,10);
},
{
name = top;
pos = (381,742);
}
);
shapes = (
{
closed = 1;
nodes = (
(684,293,l),
(684,721,ls),
(684,734,o),
(678,742,o),
(666,742,c),
(516,742,ls),
(504,742,o),
(497,734,o),
(497,719,c),
(497,292,ls),
(497,181,o),
(443,149,o),
(381,149,c),
(313,149,o),
(271,187,o),
(271,289,c),
(271,721,ls),
(271,734,o),
(265,742,o),
(253,742,c),
(63,742,ls),
(52,742,o),
(44,734,o),
(44,719,c),
(44,313,ls),
(44,104,o),
(125,-10,o),
(364,-10,c),
(555,-10,o),
(684,62,o),
(684,293,c)
);
}
);
};
layerId = "258ED206-D907-4350-8EBA-CBDDA1C16BF7";
shapes = (
{
closed = 1;
nodes = (
(684,293,l),
(684,721,ls),
(684,734,o),
(678,742,o),
(666,742,c),
(516,742,ls),
(504,742,o),
(497,734,o),
(497,719,c),
(497,292,ls),
(497,181,o),
(443,149,o),
(381,149,c),
(313,149,o),
(271,187,o),
(271,289,c),
(271,721,ls),
(271,734,o),
(265,742,o),
(253,742,c),
(63,742,ls),
(52,742,o),
(44,734,o),
(44,719,c),
(44,313,ls),
(44,104,o),
(125,-10,o),
(364,-10,c),
(555,-10,o),
(684,62,o),
(684,293,c)
);
}
);
width = 728;
}
);
unicode = 85;
},
{
glyphname = V;
kernLeft = V;
kernRight = V;
lastChange = "2024-09-04 09:59:18 +0000";
layers = (
{
background = {
shapes = (
{
closed = 1;
nodes = (
(630,742,l),
(605,742,ls),
(599,742,o),
(596,740,o),
(594,735,c),
(350,65,ls),
(345,51,o),
(339,51,o),
(334,64,c),
(97,734,ls),
(95,740,o),
(92,742,o),
(84,742,c),
(61,742,ls),
(54,742,o),
(51,738,o),
(53,732,c),
(308,10,ls),
(310,3,o),
(316,0,o),
(327,0,c),
(359,0,ls),
(368,0,o),
(372,3,o),
(375,11,c),
(637,733,ls),
(639,738,o),
(636,742,o),
(630,742,c)
);
}
);
};
layerId = "91AB5BCA-6A50-42DA-B2F7-8181BF189245";
shapes = (
{
closed = 1;
nodes = (
(630,742,l),
(605,742,ls),
(599,742,o),
(596,740,o),
(594,735,c),
(350,65,ls),
(345,51,o),
(339,51,o),
(334,64,c),
(97,734,ls),
(95,740,o),
(92,742,o),
(84,742,c),
(61,742,ls),
(54,742,o),
(51,738,o),
(53,732,c),
(308,10,ls),
(310,3,o),
(316,0,o),
(327,0,c),
(359,0,ls),
(368,0,o),
(372,3,o),
(375,11,c),
(637,733,ls),
(639,738,o),
(636,742,o),
(630,742,c)
);
}
);
width = 690;
},
{
background = {
shapes = (
{
closed = 1;
nodes = (
(707,742,l),
(558,742,ls),
(546,742,o),
(535,734,o),
(532,721,c),
(407,283,ls),
(404,273,o),
(400,273,o),
(397,282,c),
(263,721,ls),
(259,734,o),
(250,742,o),
(238,742,c),
(45,742,ls),
(29,742,o),
(20,728,o),
(26,713,c),
(258,25,ls),
(263,8,o),
(275,0,o),
(295,0,c),
(457,0,ls),
(477,0,o),
(489,8,o),
(494,25,c),
(726,713,ls),
(731,728,o),
(723,742,o),
(707,742,c)
);
}
);
};
layerId = "258ED206-D907-4350-8EBA-CBDDA1C16BF7";
shapes = (
{
closed = 1;
nodes = (
(707,742,l),
(558,742,ls),
(546,742,o),
(535,734,o),
(532,721,c),
(407,283,ls),
(404,273,o),
(400,273,o),
(397,282,c),
(263,721,ls),
(259,734,o),
(250,742,o),
(238,742,c),
(45,742,ls),
(29,742,o),
(20,728,o),
(26,713,c),
(258,25,ls),
(263,8,o),
(275,0,o),
(295,0,c),
(457,0,ls),
(477,0,o),
(489,8,o),
(494,25,c),
(726,713,ls),
(731,728,o),
(723,742,o),
(707,742,c)
);
}
);
width = 751;
}
);
unicode = 86;
},
{
glyphname = W;
kernLeft = W;
kernRight = W;
lastChange = "2024-09-04 09:59:18 +0000";
layers = (
{
anchors = (
{
name = top;
pos = (513,742);
}
);
background = {
anchors = (
{
name = top;
pos = (513,742);
}
);
shapes = (
{
closed = 1;
nodes = (
(960,742,l),
(935,742,ls),
(929,742,o),
(924,740,o),
(923,735,c),
(734,72,ls),
(730,58,o),
(726,58,o),
(722,71,c),
(537,734,ls),
(535,740,o),
(533,742,o),
(525,742,c),
(500,742,ls),
(491,742,o),
(488,738,o),
(487,735,c),
(298,72,ls),
(294,58,o),
(290,58,o),
(286,71,c),
(101,734,ls),
(99,740,o),
(97,742,o),
(89,742,c),
(64,742,ls),
(57,742,o),
(54,738,o),
(56,732,c),
(258,10,ls),
(260,3,o),
(266,0,o),
(276,0,c),
(308,0,ls),
(318,0,o),
(322,3,o),
(324,11,c),
(509,658,ls),
(510,662,o),
(512,662,o),
(513,658,c),
(694,10,ls),
(696,3,o),
(702,0,o),
(712,0,c),
(744,0,ls),
(754,0,o),
(758,3,o),
(760,11,c),
(967,733,ls),
(968,738,o),
(966,742,o),
(960,742,c)
);
}
);
};
guides = (
{
pos = (47,125);
}
);
layerId = "91AB5BCA-6A50-42DA-B2F7-8181BF189245";
shapes = (
{
closed = 1;
nodes = (
(960,742,l),
(935,742,ls),
(929,742,o),
(924,740,o),
(923,735,c),
(734,72,ls),
(730,58,o),
(726,58,o),
(722,71,c),
(537,734,ls),
(535,740,o),
(533,742,o),
(525,742,c),
(500,742,ls),
(491,742,o),
(488,738,o),
(487,735,c),
(298,72,ls),
(294,58,o),
(290,58,o),
(286,71,c),
(101,734,ls),
(99,740,o),
(97,742,o),
(89,742,c),
(64,742,ls),
(57,742,o),
(54,738,o),
(56,732,c),
(258,10,ls),
(260,3,o),
(266,0,o),
(276,0,c),
(308,0,ls),
(318,0,o),
(322,3,o),
(324,11,c),
(509,658,ls),
(510,662,o),
(512,662,o),
(513,658,c),
(694,10,ls),
(696,3,o),
(702,0,o),
(712,0,c),
(744,0,ls),
(754,0,o),
(758,3,o),
(760,11,c),
(967,733,ls),
(968,738,o),
(966,742,o),
(960,742,c)
);
}
);
width = 1021;
},
{
anchors = (
{
name = top;
pos = (556,742);
}
);
background = {
anchors = (
{
name = top;
pos = (556,742);
}
);
shapes = (
{
closed = 1;
nodes = (
(1052,742,l),
(936,742,ls),
(915,742,o),
(907,734,o),
(904,721,c),
(802,339,ls),
(800,331,o),
(793,333,o),
(791,341,c),
(681,721,ls),
(677,734,o),
(670,742,o),
(649,742,c),
(509,742,ls),
(488,742,o),
(480,734,o),
(477,721,c),
(372,346,ls),
(369,335,o),
(364,335,o),
(360,350,c),
(254,721,ls),
(250,734,o),
(243,742,o),
(222,742,c),
(57,742,ls),
(31,742,o),
(21,725,o),
(27,702,c),
(231,25,ls),
(237,8,o),
(247,0,o),
(267,0,c),
(410,0,ls),
(431,0,o),
(441,8,o),
(446,25,c),
(549,375,ls),
(556,395,o),
(561,393,o),
(565,377,c),
(669,25,ls),
(674,8,o),
(685,0,o),
(705,0,c),
(843,0,ls),
(863,0,o),
(873,8,o),
(879,25,c),
(1082,702,ls),
(1088,725,o),
(1078,742,o),
(1052,742,c)
);
}
);
};
layerId = "258ED206-D907-4350-8EBA-CBDDA1C16BF7";
shapes = (
{
closed = 1;
nodes = (
(1052,742,l),
(936,742,ls),
(915,742,o),
(907,734,o),
(904,721,c),
(802,339,ls),
(800,331,o),
(793,333,o),
(791,341,c),
(681,721,ls),
(677,734,o),
(670,742,o),
(649,742,c),
(509,742,ls),
(488,742,o),
(480,734,o),
(477,721,c),
(372,346,ls),
(369,335,o),
(364,335,o),
(360,350,c),
(254,721,ls),
(250,734,o),
(243,742,o),
(222,742,c),
(57,742,ls),
(31,742,o),
(21,725,o),
(27,702,c),
(231,25,ls),
(237,8,o),
(247,0,o),
(267,0,c),
(410,0,ls),
(431,0,o),
(441,8,o),
(446,25,c),
(549,375,ls),
(556,395,o),
(561,393,o),
(565,377,c),
(669,25,ls),
(674,8,o),
(685,0,o),
(705,0,c),
(843,0,ls),
(863,0,o),
(873,8,o),
(879,25,c),
(1082,702,ls),
(1088,725,o),
(1078,742,o),
(1052,742,c)
);
}
);
width = 1109;
}
);
unicode = 87;
},
{
glyphname = X;
kernLeft = X;
kernRight = X;
lastChange = "2024-09-04 09:59:18 +0000";
layers = (
{
background = {
shapes = (
{
closed = 1;
nodes = (
(607,10,l),
(362,374,ls),
(358,380,o),
(359,384,o),
(363,390,c),
(597,736,ls),
(599,739,o),
(599,742,o),
(595,742,c),
(554,742,ls),
(550,742,o),
(548,741,o),
(546,738,c),
(339,431,ls),
(332,421,o),
(328,422,o),
(322,430,c),
(115,738,ls),
(113,741,o),
(112,742,o),
(106,742,c),
(67,742,ls),
(63,742,o),
(62,737,o),
(64,734,c),
(296,391,ls),
(301,383,o),
(302,377,o),
(297,370,c),
(55,10,ls),
(50,2,o),
(52,0,o),
(58,0,c),
(94,0,ls),
(97,0,o),
(100,1,o),
(102,4,c),
(319,324,ls),
(329,339,o),
(333,338,o),
(340,327,c),
(560,4,ls),
(562,1,o),
(563,0,o),
(567,0,c),
(603,0,ls),
(609,0,o),
(613,2,o),
(607,10,c)
);
}
);
};
guides = (
{
angle = 90;
pos = (60,437);
},
{
angle = 90;
pos = (571,372);
},
{
pos = (26,716);
},
{
pos = (20,32);
},
{
pos = (90,454);
},
{
pos = (88,290);
},
{
angle = 236.602;
pos = (303,374);
},
{
angle = 123.344;
pos = (360,374);
},
{
angle = 56.5817;
pos = (348,370);
},
{
angle = 123.4;
pos = (313,370);
}
);
layerId = "91AB5BCA-6A50-42DA-B2F7-8181BF189245";
shapes = (
{
closed = 1;
nodes = (
(607,10,l),
(362,374,ls),
(358,380,o),
(359,384,o),
(363,390,c),
(597,736,ls),
(599,739,o),
(599,742,o),
(595,742,c),
(554,742,ls),
(550,742,o),
(548,741,o),
(546,738,c),
(339,431,ls),
(332,421,o),
(328,422,o),
(322,430,c),
(115,738,ls),
(113,741,o),
(112,742,o),
(106,742,c),
(67,742,ls),
(63,742,o),
(62,737,o),
(64,734,c),
(296,391,ls),
(301,383,o),
(302,377,o),
(297,370,c),
(55,10,ls),
(50,2,o),
(52,0,o),
(58,0,c),
(94,0,ls),
(97,0,o),
(100,1,o),
(102,4,c),
(319,324,ls),
(329,339,o),
(333,338,o),
(340,327,c),
(560,4,ls),
(562,1,o),
(563,0,o),
(567,0,c),
(603,0,ls),
(609,0,o),
(613,2,o),
(607,10,c)
);
}
);
width = 662;
},
{
background = {
shapes = (
{
closed = 1;
nodes = (
(719,51,l),
(503,383,ls),
(493,398,o),
(492,405,o),
(501,419,c),
(690,709,ls),
(700,724,o),
(701,742,o),
(677,742,c),
(522,742,ls),
(500,742,o),
(491,735,o),
(483,721,c),
(392,560,ls),
(386,549,o),
(376,549,o),
(370,560,c),
(279,721,ls),
(271,735,o),
(261,742,o),
(239,742,c),
(50,742,ls),
(27,742,o),
(24,722,o),
(34,707,c),
(236,392,ls),
(245,377,o),
(246,371,o),
(236,356,c),
(39,51,ls),
(13,11,o),
(24,0,o),
(52,0,c),
(194,0,ls),
(214,0,o),
(229,5,o),
(237,20,c),
(345,209,ls),
(356,228,o),
(362,227,o),
(373,208,c),
(483,20,ls),
(491,6,o),
(505,0,o),
(525,0,c),
(705,0,ls),
(733,0,o),
(744,12,o),
(719,51,c)
);
}
);
};
layerId = "258ED206-D907-4350-8EBA-CBDDA1C16BF7";
shapes = (
{
closed = 1;
nodes = (
(719,51,l),
(503,383,ls),
(493,398,o),
(492,405,o),
(501,419,c),
(690,709,ls),
(700,724,o),
(701,742,o),
(677,742,c),
(522,742,ls),
(500,742,o),
(491,735,o),
(483,721,c),
(392,560,ls),
(386,549,o),
(376,549,o),
(370,560,c),
(279,721,ls),
(271,735,o),
(261,742,o),
(239,742,c),
(50,742,ls),
(27,742,o),
(24,722,o),
(34,707,c),
(236,392,ls),
(245,377,o),
(246,371,o),
(236,356,c),
(39,51,ls),
(13,11,o),
(24,0,o),
(52,0,c),
(194,0,ls),
(214,0,o),
(229,5,o),
(237,20,c),
(345,209,ls),
(356,228,o),
(362,227,o),
(373,208,c),
(483,20,ls),
(491,6,o),
(505,0,o),
(525,0,c),
(705,0,ls),
(733,0,o),
(744,12,o),
(719,51,c)
);
}
);
width = 756;
}
);
unicode = 88;
},
{
glyphname = Y;
kernLeft = Y;
kernRight = Y;
lastChange = "2024-09-04 09:59:18 +0000";
layers = (
{
anchors = (
{
name = bottom;
pos = (319,0);
},
{
name = top;
pos = (314,742);
},
{
name = topleft;
pos = (20,742);
}
);
background = {
anchors = (
{
name = top;
pos = (314,742);
}
);
shapes = (
{
closed = 1;
nodes = (
(582,742,l),
(556,742,ls),
(547,742,o),
(545,741,o),
(540,733,c),
(331,374,ls),
(323,361,o),
(316,360,o),
(307,376,c),
(97,733,ls),
(93,740,o),
(90,742,o),
(81,742,c),
(58,742,ls),
(48,742,o),
(46,737,o),
(50,730,c),
(294,315,ls),
(298,308,o),
(299,305,o),
(299,295,c),
(299,11,ls),
(299,4,o),
(302,0,o),
(311,0,c),
(330,0,ls),
(341,0,o),
(345,4,o),
(345,13,c),
(345,306,ls),
(345,316,o),
(345,320,o),
(349,326,c),
(588,731,ls),
(592,737,o),
(589,742,o),
(582,742,c)
);
}
);
};
layerId = "91AB5BCA-6A50-42DA-B2F7-8181BF189245";
shapes = (
{
closed = 1;
nodes = (
(582,742,l),
(556,742,ls),
(547,742,o),
(545,741,o),
(540,733,c),
(331,374,ls),
(323,361,o),
(316,360,o),
(307,376,c),
(97,733,ls),
(93,740,o),
(90,742,o),
(81,742,c),
(58,742,ls),
(48,742,o),
(46,737,o),
(50,730,c),
(294,315,ls),
(298,308,o),
(299,305,o),
(299,295,c),
(299,11,ls),
(299,4,o),
(302,0,o),
(311,0,c),
(330,0,ls),
(341,0,o),
(345,4,o),
(345,13,c),
(345,306,ls),
(345,316,o),
(345,320,o),
(349,326,c),
(588,731,ls),
(592,737,o),
(589,742,o),
(582,742,c)
);
}
);
width = 638;
},
{
anchors = (
{
name = bottom;
pos = (387,0);
},
{
name = top;
pos = (403,742);
},
{
name = topleft;
pos = (20,742);
}
);
background = {
anchors = (
{
name = top;
pos = (403,742);
}
);
shapes = (
{
closed = 1;
nodes = (
(733,742,l),
(576,742,ls),
(557,742,o),
(550,738,o),
(542,721,c),
(421,498,ls),
(414,486,o),
(410,487,o),
(404,499,c),
(281,721,ls),
(272,737,o),
(267,742,o),
(247,742,c),
(46,742,ls),
(25,742,o),
(18,730,o),
(28,714,c),
(262,332,ls),
(271,317,o),
(276,309,o),
(276,288,c),
(276,25,ls),
(276,8,o),
(282,0,o),
(302,0,c),
(470,0,ls),
(493,0,o),
(503,8,o),
(503,29,c),
(503,275,ls),
(503,317,o),
(504,327,o),
(513,341,c),
(747,719,ls),
(755,732,o),
(750,742,o),
(733,742,c)
);
}
);
};
layerId = "258ED206-D907-4350-8EBA-CBDDA1C16BF7";
shapes = (
{
closed = 1;
nodes = (
(733,742,l),
(576,742,ls),
(557,742,o),
(550,738,o),
(542,721,c),
(421,498,ls),
(414,486,o),
(410,487,o),
(404,499,c),
(281,721,ls),
(272,737,o),
(267,742,o),
(247,742,c),
(46,742,ls),
(25,742,o),
(18,730,o),
(28,714,c),
(262,332,ls),
(271,317,o),
(276,309,o),
(276,288,c),
(276,25,ls),
(276,8,o),
(282,0,o),
(302,0,c),
(470,0,ls),
(493,0,o),
(503,8,o),
(503,29,c),
(503,275,ls),
(503,317,o),
(504,327,o),
(513,341,c),
(747,719,ls),
(755,732,o),
(750,742,o),
(733,742,c)
);
}
);
width = 774;
}
);
unicode = 89;
},
{
glyphname = Z;
kernLeft = Z;
kernRight = Z;
lastChange = "2024-09-04 09:59:18 +0000";
layers = (
{
anchors = (
{
name = bottom;
pos = (312,0);
},
{
name = top;
pos = (305,742);
}
);
background = {
anchors = (
{
name = bottom;
pos = (312,0);
},
{
name = top;
pos = (305,742);
}
);
shapes = (
{
closed = 1;
nodes = (
(63,0,l),
(537,0,ls),
(542,0,o),
(544,3,o),
(544,7,c),
(544,35,ls),
(544,39,o),
(542,40,o),
(538,40,c),
(117,40,ls),
(113,40,o),
(112,43,o),
(115,48,c),
(539,707,ls),
(542,712,o),
(544,714,o),
(544,719,c),
(544,736,ls),
(544,740,o),
(542,742,o),
(538,742,c),
(71,742,ls),
(67,742,o),
(65,740,o),
(65,736,c),
(65,709,ls),
(65,704,o),
(67,702,o),
(72,702,c),
(478,702,ls),
(483,702,o),
(485,700,o),
(482,695,c),
(62,39,ls),
(57,32,o),
(55,28,o),
(55,22,c),
(55,7,ls),
(55,2,o),
(57,0,o),
(63,0,c)
);
}
);
};
layerId = "91AB5BCA-6A50-42DA-B2F7-8181BF189245";
shapes = (
{
closed = 1;
nodes = (
(63,0,l),
(537,0,ls),
(542,0,o),
(544,3,o),
(544,7,c),
(544,35,ls),
(544,39,o),
(542,40,o),
(538,40,c),
(117,40,ls),
(113,40,o),
(112,43,o),
(115,48,c),
(539,707,ls),
(542,712,o),
(544,714,o),
(544,719,c),
(544,736,ls),
(544,740,o),
(542,742,o),
(538,742,c),
(71,742,ls),
(67,742,o),
(65,740,o),
(65,736,c),
(65,709,ls),
(65,704,o),
(67,702,o),
(72,702,c),
(478,702,ls),
(483,702,o),
(485,700,o),
(482,695,c),
(62,39,ls),
(57,32,o),
(55,28,o),
(55,22,c),
(55,7,ls),
(55,2,o),
(57,0,o),
(63,0,c)
);
}
);
width = 600;
},
{
anchors = (
{
name = bottom;
pos = (347,0);
},
{
name = top;
pos = (371,742);
}
);
background = {
anchors = (
{
name = bottom;
pos = (347,0);
},
{
name = top;
pos = (371,742);
}
);
shapes = (
{
closed = 1;
nodes = (
(52,0,l),
(653,0,ls),
(670,0,o),
(677,10,o),
(677,22,c),
(677,147,ls),
(677,161,o),
(669,166,o),
(655,166,c),
(358,166,ls),
(349,166,o),
(339,169,o),
(346,180,c),
(666,630,ls),
(679,648,o),
(683,656,o),
(683,671,c),
(683,722,ls),
(683,734,o),
(676,742,o),
(664,742,c),
(77,742,ls),
(66,742,o),
(59,734,o),
(59,721,c),
(59,601,ls),
(59,583,o),
(64,577,o),
(81,577,c),
(346,577,ls),
(360,577,o),
(362,572,o),
(355,561,c),
(47,121,ls),
(28,94,o),
(26,91,o),
(26,70,c),
(26,25,ls),
(26,5,o),
(32,0,o),
(52,0,c)
);
}
);
};
layerId = "258ED206-D907-4350-8EBA-CBDDA1C16BF7";
shapes = (
{
closed = 1;
nodes = (
(52,0,l),
(653,0,ls),
(670,0,o),
(677,10,o),
(677,22,c),
(677,147,ls),
(677,161,o),
(669,166,o),
(655,166,c),
(358,166,ls),
(349,166,o),
(339,169,o),
(346,180,c),
(666,630,ls),
(679,648,o),
(683,656,o),
(683,671,c),
(683,722,ls),
(683,734,o),
(676,742,o),
(664,742,c),
(77,742,ls),
(66,742,o),
(59,734,o),
(59,721,c),
(59,601,ls),
(59,583,o),
(64,577,o),
(81,577,c),
(346,577,ls),
(360,577,o),
(362,572,o),
(355,561,c),
(47,121,ls),
(28,94,o),
(26,91,o),
(26,70,c),
(26,25,ls),
(26,5,o),
(32,0,o),
(52,0,c)
);
}
);
width = 714;
}
);
unicode = 90;
},
{
glyphname = a;
kernLeft = a;
kernRight = a;
lastChange = "2024-09-04 09:59:18 +0000";
layers = (
{
anchors = (
{
name = bottom;
pos = (269,0);
},
{
name = ogonek;
pos = (451,14);
},
{
name = top;
pos = (266,530);
}
);
background = {
anchors = (
{
name = ogonek;
pos = (451,14);
},
{
name = top;
pos = (266,530);
}
);
shapes = (
{
closed = 1;
nodes = (
(408,72,l),
(413,78,o),
(417,77,o),
(418,70,c),
(420,9,ls),
(420,2,o),
(423,0,o),
(429,0,c),
(447,0,ls),
(453,0,o),
(457,2,o),
(457,10,c),
(457,367,ls),
(457,475,o),
(383,540,o),
(270,540,c),
(175,540,o),
(108,493,o),
(66,431,c),
(62,426,o),
(63,423,o),
(66,421,c),
(90,406,ls),
(94,403,o),
(96,405,o),
(100,410,c),
(145,470,o),
(199,502,o),
(268,502,c),
(358,502,o),
(417,448,o),
(417,363,c),
(417,332,ls),
(417,323,o),
(411,318,o),
(400,317,c),
(295,308,ls),
(131,294,o),
(48,236,o),
(48,135,c),
(48,45,o),
(113,-10,o),
(218,-10,c),
(292,-10,o),
(353,17,o),
(408,72,c)
);
},
{
closed = 1;
nodes = (
(417,266,l),
(417,171,ls),
(417,141,o),
(397,107,o),
(360,77,c),
(322,47,o),
(273,28,o),
(224,28,c),
(143,28,o),
(90,69,o),
(90,138,c),
(90,215,o),
(157,261,o),
(314,273,c),
(403,280,ls),
(412,281,o),
(417,277,o),
(417,266,c)
);
}
);
};
layerId = "91AB5BCA-6A50-42DA-B2F7-8181BF189245";
shapes = (
{
closed = 1;
nodes = (
(408,72,l),
(413,78,o),
(417,77,o),
(418,70,c),
(420,9,ls),
(420,2,o),
(423,0,o),
(429,0,c),
(447,0,ls),
(453,0,o),
(457,2,o),
(457,10,c),
(457,367,ls),
(457,475,o),
(383,540,o),
(270,540,c),
(175,540,o),
(108,493,o),
(66,431,c),
(62,426,o),
(63,423,o),
(66,421,c),
(90,406,ls),
(94,403,o),
(96,405,o),
(100,410,c),
(145,470,o),
(199,502,o),
(268,502,c),
(358,502,o),
(417,448,o),
(417,363,c),
(417,332,ls),
(417,323,o),
(411,318,o),
(400,317,c),
(295,308,ls),
(131,294,o),
(48,236,o),
(48,135,c),
(48,45,o),
(113,-10,o),
(218,-10,c),
(292,-10,o),
(353,17,o),
(408,72,c)
);
},
{
closed = 1;
nodes = (
(417,266,l),
(417,171,ls),
(417,141,o),
(397,107,o),
(360,77,c),
(322,47,o),
(273,28,o),
(224,28,c),
(143,28,o),
(90,69,o),
(90,138,c),
(90,215,o),
(157,261,o),
(314,273,c),
(403,280,ls),
(412,281,o),
(417,277,o),
(417,266,c)
);
}
);
width = 538;
},
{
anchors = (
{
name = bottom;
pos = (277,0);
},
{
name = ogonek;
pos = (499,10);
},
{
name = top;
pos = (287,530);
}
);
background = {
anchors = (
{
name = ogonek;
pos = (499,10);
},
{
name = top;
pos = (287,530);
}
);
shapes = (
{
closed = 1;
nodes = (
(313,42,l),
(330,56,o),
(338,55,o),
(340,42,c),
(341,35,ls),
(344,16,o),
(349,0,o),
(367,0,c),
(504,0,ls),
(523,0,o),
(527,7,o),
(527,27,c),
(527,375,ls),
(527,473,o),
(472,540,o),
(287,540,c),
(156,540,o),
(65,506,o),
(35,421,c),
(26,396,o),
(32,391,o),
(42,389,c),
(173,363,ls),
(191,360,o),
(195,363,o),
(200,374,c),
(217,411,o),
(250,421,o),
(278,421,c),
(318,421,o),
(337,400,o),
(337,363,c),
(337,346,ls),
(337,334,o),
(327,332,o),
(322,332,c),
(315,332,ls),
(126,332,o),
(8,253,o),
(8,136,c),
(8,53,o),
(68,-10,o),
(168,-10,c),
(230,-10,o),
(277,12,o),
(313,42,c)
);
},
{
closed = 1;
nodes = (
(337,224,l),
(337,171,ls),
(337,156,o),
(326,145,o),
(314,135,c),
(303,126,o),
(285,116,o),
(259,116,c),
(223,116,o),
(202,135,o),
(202,163,c),
(202,219,o),
(286,242,o),
(318,242,c),
(322,242,ls),
(334,242,o),
(337,236,o),
(337,224,c)
);
}
);
};
guides = (
{
angle = 90;
pos = (337,102);
}
);
layerId = "258ED206-D907-4350-8EBA-CBDDA1C16BF7";
shapes = (
{
closed = 1;
nodes = (
(313,42,l),
(330,56,o),
(338,55,o),
(340,42,c),
(341,35,ls),
(344,16,o),
(349,0,o),
(367,0,c),
(504,0,ls),
(523,0,o),
(527,7,o),
(527,27,c),
(527,375,ls),
(527,473,o),
(472,540,o),
(287,540,c),
(156,540,o),
(65,506,o),
(35,421,c),
(26,396,o),
(32,391,o),
(42,389,c),
(173,363,ls),
(191,360,o),
(195,363,o),
(200,374,c),
(217,411,o),
(250,421,o),
(278,421,c),
(318,421,o),
(337,400,o),
(337,363,c),
(337,346,ls),
(337,334,o),
(327,332,o),
(322,332,c),
(315,332,ls),
(126,332,o),
(8,253,o),
(8,136,c),
(8,53,o),
(68,-10,o),
(168,-10,c),
(230,-10,o),
(277,12,o),
(313,42,c)
);
},
{
closed = 1;
nodes = (
(337,224,l),
(337,171,ls),
(337,156,o),
(326,145,o),
(314,135,c),
(303,126,o),
(285,116,o),
(259,116,c),
(223,116,o),
(202,135,o),
(202,163,c),
(202,219,o),
(286,242,o),
(318,242,c),
(322,242,ls),
(334,242,o),
(337,236,o),
(337,224,c)
);
}
);
width = 573;
}
);
unicode = 97;
},
{
glyphname = ae;
kernLeft = a;
kernRight = e;
lastChange = "2024-09-04 09:59:18 +0000";
layers = (
{
anchors = (
{
name = top;
pos = (453,530);
}
);
background = {
anchors = (
{
name = top;
pos = (453,530);
}
);
shapes = (
{
closed = 1;
nodes = (
(471,253,l),
(863,254,ls),
(877,254,o),
(881,261,o),
(881,274,c),
(881,444,o),
(789,540,o),
(652,540,c),
(558,540,o),
(486,500,o),
(446,421,c),
(426,501,o),
(370,540,o),
(271,540,c),
(186,540,o),
(109,500,o),
(66,431,c),
(63,426,o),
(63,423,o),
(66,421,c),
(88,406,ls),
(92,403,o),
(94,404,o),
(99,410,c),
(145,470,o),
(199,502,o),
(263,502,c),
(363,502,o),
(417,448,o),
(417,363,c),
(417,332,ls),
(417,323,o),
(411,318,o),
(399,317,c),
(287,308,ls),
(124,294,o),
(48,234,o),
(48,136,c),
(48,45,o),
(110,-10,o),
(214,-10,c),
(345,-10,o),
(403,62,o),
(439,108,c),
(441,111,o),
(442,111,o),
(444,108,c),
(473,65,o),
(527,-10,o),
(649,-10,c),
(746,-10,o),
(827,37,o),
(861,100,c),
(864,106,o),
(863,108,o),
(860,110,c),
(838,125,ls),
(833,128,o),
(832,127,o),
(827,121,c),
(798,81,o),
(755,28,o),
(651,28,c),
(539,28,o),
(451,134,o),
(451,228,c),
(451,249,o),
(454,253,o),
(471,253,c)
);
},
{
closed = 1;
nodes = (
(649,502,l),
(759,502,o),
(838,414,o),
(838,306,c),
(838,294,o),
(837,290,o),
(821,290,c),
(453,291,l),
(454,418,o),
(539,502,o),
(649,502,c)
);
},
{
closed = 1;
nodes = (
(417,265,l),
(417,177,l),
(417,99,o),
(331,34,o),
(224,29,c),
(140,25,o),
(91,71,o),
(91,138,c),
(91,215,o),
(157,260,o),
(307,272,c),
(402,279,ls),
(415,280,o),
(417,275,o),
(417,265,c)
);
}
);
};
layerId = "91AB5BCA-6A50-42DA-B2F7-8181BF189245";
shapes = (
{
closed = 1;
nodes = (
(471,253,l),
(863,254,ls),
(877,254,o),
(881,261,o),
(881,274,c),
(881,444,o),
(789,540,o),
(652,540,c),
(558,540,o),
(486,500,o),
(446,421,c),
(426,501,o),
(370,540,o),
(271,540,c),
(186,540,o),
(109,500,o),
(66,431,c),
(63,426,o),
(63,423,o),
(66,421,c),
(88,406,ls),
(92,403,o),
(94,404,o),
(99,410,c),
(145,470,o),
(199,502,o),
(263,502,c),
(363,502,o),
(417,448,o),
(417,363,c),
(417,332,ls),
(417,323,o),
(411,318,o),
(399,317,c),
(287,308,ls),
(124,294,o),
(48,234,o),
(48,136,c),
(48,45,o),
(110,-10,o),
(214,-10,c),
(345,-10,o),
(403,62,o),
(439,108,c),
(441,111,o),
(442,111,o),
(444,108,c),
(473,65,o),
(527,-10,o),
(649,-10,c),
(746,-10,o),
(827,37,o),
(861,100,c),
(864,106,o),
(863,108,o),
(860,110,c),
(838,125,ls),
(833,128,o),
(832,127,o),
(827,121,c),
(798,81,o),
(755,28,o),
(651,28,c),
(539,28,o),
(451,134,o),
(451,228,c),
(451,249,o),
(454,253,o),
(471,253,c)
);
},
{
closed = 1;
nodes = (
(649,502,l),
(759,502,o),
(838,414,o),
(838,306,c),
(838,294,o),
(837,290,o),
(821,290,c),
(453,291,l),
(454,418,o),
(539,502,o),
(649,502,c)
);
},
{
closed = 1;
nodes = (
(417,265,l),
(417,177,l),
(417,99,o),
(331,34,o),
(224,29,c),
(140,25,o),
(91,71,o),
(91,138,c),
(91,215,o),
(157,260,o),
(307,272,c),
(402,279,ls),
(415,280,o),
(417,275,o),
(417,265,c)
);
}
);
width = 930;
},
{
anchors = (
{
name = top;
pos = (446,530);
}
);
background = {
anchors = (
{
name = top;
pos = (446,530);
}
);
shapes = (
{
closed = 1;
nodes = (
(557,229,l),
(868,229,ls),
(885,230,o),
(886,237,o),
(886,254,c),
(886,435,o),
(771,540,o),
(614,540,c),
(562,540,o),
(512,526,o),
(469,500,c),
(431,525,o),
(372,539,o),
(283,540,c),
(130,540,o),
(73,499,o),
(35,421,c),
(30,410,o),
(33,391,o),
(42,389,c),
(173,363,ls),
(191,360,o),
(195,361,o),
(200,374,c),
(217,411,o),
(250,421,o),
(278,421,c),
(318,421,o),
(337,400,o),
(337,363,c),
(337,346,ls),
(337,334,o),
(327,332,o),
(319,332,c),
(296,331,ls),
(104,322,o),
(8,250,o),
(8,143,c),
(8,52,o),
(68,-10,o),
(181,-10,c),
(273,-10,o),
(338,12,o),
(399,71,c),
(403,75,o),
(406,75,o),
(410,71,c),
(460,20,o),
(534,-10,o),
(618,-10,c),
(730,-10,o),
(798,17,o),
(870,118,c),
(879,129,o),
(876,138,o),
(866,142,c),
(775,179,ls),
(762,184,o),
(759,183,o),
(754,178,c),
(710,135,o),
(679,122,o),
(645,122,c),
(587,122,o),
(542,151,o),
(542,212,c),
(542,224,o),
(547,229,o),
(557,229,c)
);
},
{
closed = 1;
nodes = (
(623,423,l),
(673,423,o),
(692,372,o),
(692,346,c),
(692,334,o),
(688,332,o),
(675,332,c),
(545,333,l),
(544,395,o),
(582,423,o),
(623,423,c)
);
},
{
closed = 1;
nodes = (
(337,216,l),
(337,160,ls),
(337,127,o),
(300,108,o),
(262,108,c),
(223,108,o),
(202,127,o),
(202,156,c),
(202,205,o),
(267,230,o),
(305,233,c),
(319,234,ls),
(331,234,o),
(337,228,o),
(337,216,c)
);
}
);
};
layerId = "258ED206-D907-4350-8EBA-CBDDA1C16BF7";
shapes = (
{
closed = 1;
nodes = (
(557,229,l),
(868,229,ls),
(885,230,o),
(886,237,o),
(886,254,c),
(886,435,o),
(771,540,o),
(614,540,c),
(562,540,o),
(512,526,o),
(469,500,c),
(431,525,o),
(372,539,o),
(283,540,c),
(130,540,o),
(73,499,o),
(35,421,c),
(30,410,o),
(33,391,o),
(42,389,c),
(173,363,ls),
(191,360,o),
(195,361,o),
(200,374,c),
(217,411,o),
(250,421,o),
(278,421,c),
(318,421,o),
(337,400,o),
(337,363,c),
(337,346,ls),
(337,334,o),
(327,332,o),
(319,332,c),
(296,331,ls),
(104,322,o),
(8,250,o),
(8,143,c),
(8,52,o),
(68,-10,o),
(181,-10,c),
(273,-10,o),
(338,12,o),
(399,71,c),
(403,75,o),
(406,75,o),
(410,71,c),
(460,20,o),
(534,-10,o),
(618,-10,c),
(730,-10,o),
(798,17,o),
(870,118,c),
(879,129,o),
(876,138,o),
(866,142,c),
(775,179,ls),
(762,184,o),
(759,183,o),
(754,178,c),
(710,135,o),
(679,122,o),
(645,122,c),
(587,122,o),
(542,151,o),
(542,212,c),
(542,224,o),
(547,229,o),
(557,229,c)
);
},
{
closed = 1;
nodes = (
(623,423,l),
(673,423,o),
(692,372,o),
(692,346,c),
(692,334,o),
(688,332,o),
(675,332,c),
(545,333,l),
(544,395,o),
(582,423,o),
(623,423,c)
);
},
{
closed = 1;
nodes = (
(337,216,l),
(337,160,ls),
(337,127,o),
(300,108,o),
(262,108,c),
(223,108,o),
(202,127,o),
(202,156,c),
(202,205,o),
(267,230,o),
(305,233,c),
(319,234,ls),
(331,234,o),
(337,228,o),
(337,216,c)
);
}
);
width = 905;
}
);
metricLeft = a;
metricRight = e;
unicode = 230;
},
{
glyphname = b;
kernRight = b;
lastChange = "2024-09-04 09:59:18 +0000";
layers = (
{
background = {
shapes = (
{
closed = 1;
nodes = (
(113,0,l),
(125,0,o),
(128,3,o),
(128,13,c),
(130,64,ls),
(130,73,o),
(135,74,o),
(140,67,c),
(152,50,o),
(202,-10,o),
(305,-10,c),
(449,-10,o),
(533,96,o),
(533,267,c),
(533,416,o),
(469,540,o),
(316,540,c),
(210,540,o),
(154,482,o),
(144,473,c),
(135,465,o),
(131,465,o),
(131,478,c),
(131,731,ls),
(131,739,o),
(129,742,o),
(123,742,c),
(100,742,ls),
(94,742,o),
(91,739,o),
(91,732,c),
(91,13,ls),
(91,3,o),
(94,0,o),
(102,0,c)
);
},
{
closed = 1;
nodes = (
(131,415,l),
(171,463,o),
(235,502,o),
(309,502,c),
(427,502,o),
(490,409,o),
(490,267,c),
(490,103,o),
(405,28,o),
(301,28,c),
(217,28,o),
(131,96,o),
(131,177,c)
);
}
);
};
layerId = "91AB5BCA-6A50-42DA-B2F7-8181BF189245";
shapes = (
{
closed = 1;
nodes = (
(113,0,l),
(125,0,o),
(128,3,o),
(128,13,c),
(130,64,ls),
(130,73,o),
(135,74,o),
(140,67,c),
(152,50,o),
(202,-10,o),
(305,-10,c),
(449,-10,o),
(533,96,o),
(533,267,c),
(533,416,o),
(469,540,o),
(316,540,c),
(210,540,o),
(154,482,o),
(144,473,c),
(135,465,o),
(131,465,o),
(131,478,c),
(131,731,ls),
(131,739,o),
(129,742,o),
(123,742,c),
(100,742,ls),
(94,742,o),
(91,739,o),
(91,732,c),
(91,13,ls),
(91,3,o),
(94,0,o),
(102,0,c)
);
},
{
closed = 1;
nodes = (
(131,415,l),
(171,463,o),
(235,502,o),
(309,502,c),
(427,502,o),
(490,409,o),
(490,267,c),
(490,103,o),
(405,28,o),
(301,28,c),
(217,28,o),
(131,96,o),
(131,177,c)
);
}
);
width = 592;
},
{
background = {
shapes = (
{
closed = 1;
nodes = (
(155,0,l),
(168,0,o),
(176,7,o),
(181,23,c),
(197,70,ls),
(200,78,o),
(204,79,o),
(210,73,c),
(249,22,o),
(303,-10,o),
(366,-10,c),
(512,-10,o),
(593,99,o),
(593,269,c),
(593,436,o),
(517,540,o),
(387,540,c),
(342,540,o),
(301,527,o),
(260,488,c),
(250,480,o),
(241,480,o),
(241,496,c),
(241,721,ls),
(241,734,o),
(235,742,o),
(223,742,c),
(60,742,ls),
(49,742,o),
(41,734,o),
(41,719,c),
(41,25,ls),
(41,8,o),
(47,0,o),
(68,0,c)
);
},
{
closed = 1;
nodes = (
(241,378,l),
(261,403,o),
(284,418,o),
(315,418,c),
(364,418,o),
(391,381,o),
(391,265,c),
(391,148,o),
(364,107,o),
(312,107,c),
(270,107,o),
(241,135,o),
(241,185,c)
);
}
);
};
layerId = "258ED206-D907-4350-8EBA-CBDDA1C16BF7";
shapes = (
{
closed = 1;
nodes = (
(155,0,l),
(168,0,o),
(176,7,o),
(181,23,c),
(197,70,ls),
(200,78,o),
(204,79,o),
(210,73,c),
(249,22,o),
(303,-10,o),
(366,-10,c),
(512,-10,o),
(593,99,o),
(593,269,c),
(593,436,o),
(517,540,o),
(387,540,c),
(342,540,o),
(301,527,o),
(260,488,c),
(250,480,o),
(241,480,o),
(241,496,c),
(241,721,ls),
(241,734,o),
(235,742,o),
(223,742,c),
(60,742,ls),
(49,742,o),
(41,734,o),
(41,719,c),
(41,25,ls),
(41,8,o),
(47,0,o),
(68,0,c)
);
},
{
closed = 1;
nodes = (
(241,378,l),
(261,403,o),
(284,418,o),
(315,418,c),
(364,418,o),
(391,381,o),
(391,265,c),
(391,148,o),
(364,107,o),
(312,107,c),
(270,107,o),
(241,135,o),
(241,185,c)
);
}
);
width = 616;
}
);
unicode = 98;
},
{
glyphname = c;
kernLeft = o;
kernRight = c;
lastChange = "2024-09-04 09:59:18 +0000";
layers = (
{
anchors = (
{
name = bottom;
pos = (297,0);
},
{
name = top;
pos = (295,530);
}
);
background = {
anchors = (
{
name = bottom;
pos = (297,0);
},
{
name = top;
pos = (295,530);
}
);
shapes = (
{
closed = 1;
nodes = (
(296,540,l),
(155,540,o),
(56,425,o),
(56,263,c),
(56,100,o),
(153,-10,o),
(296,-10,c),
(381,-10,o),
(453,29,o),
(501,107,c),
(503,111,o),
(502,115,o),
(499,117,c),
(476,132,ls),
(472,135,o),
(470,134,o),
(466,128,c),
(422,60,o),
(368,28,o),
(300,28,c),
(178,28,o),
(98,123,o),
(98,265,c),
(98,407,o),
(178,502,o),
(301,502,c),
(357,502,o),
(402,478,o),
(457,411,c),
(461,406,o),
(465,405,o),
(468,407,c),
(492,423,ls),
(495,425,o),
(496,427,o),
(492,433,c),
(446,499,o),
(385,540,o),
(296,540,c)
);
}
);
};
layerId = "91AB5BCA-6A50-42DA-B2F7-8181BF189245";
shapes = (
{
closed = 1;
nodes = (
(296,540,l),
(155,540,o),
(56,425,o),
(56,263,c),
(56,100,o),
(153,-10,o),
(296,-10,c),
(381,-10,o),
(453,29,o),
(501,107,c),
(503,111,o),
(502,115,o),
(499,117,c),
(476,132,ls),
(472,135,o),
(470,134,o),
(466,128,c),
(422,60,o),
(368,28,o),
(300,28,c),
(178,28,o),
(98,123,o),
(98,265,c),
(98,407,o),
(178,502,o),
(301,502,c),
(357,502,o),
(402,478,o),
(457,411,c),
(461,406,o),
(465,405,o),
(468,407,c),
(492,423,ls),
(495,425,o),
(496,427,o),
(492,433,c),
(446,499,o),
(385,540,o),
(296,540,c)
);
}
);
width = 537;
},
{
anchors = (
{
name = bottom;
pos = (297,0);
},
{
name = top;
pos = (298,530);
}
);
background = {
anchors = (
{
name = bottom;
pos = (297,0);
},
{
name = top;
pos = (298,530);
}
);
shapes = (
{
closed = 1;
nodes = (
(298,540,l),
(140,540,o),
(21,428,o),
(21,263,c),
(21,101,o),
(138,-10,o),
(298,-10,c),
(460,-10,o),
(526,105,o),
(536,157,c),
(540,172,o),
(538,178,o),
(527,180,c),
(433,198,ls),
(420,200,o),
(416,198,o),
(413,193,c),
(388,148,o),
(369,114,o),
(314,114,c),
(257,114,o),
(223,154,o),
(223,265,c),
(223,372,o),
(254,414,o),
(303,414,c),
(351,414,o),
(360,376,o),
(364,351,c),
(366,340,o),
(370,336,o),
(381,337,c),
(518,344,ls),
(535,345,o),
(541,353,o),
(536,370,c),
(520,447,o),
(441,540,o),
(298,540,c)
);
}
);
};
layerId = "258ED206-D907-4350-8EBA-CBDDA1C16BF7";
shapes = (
{
closed = 1;
nodes = (
(298,540,l),
(140,540,o),
(21,428,o),
(21,263,c),
(21,101,o),
(138,-10,o),
(298,-10,c),
(460,-10,o),
(526,105,o),
(536,157,c),
(540,172,o),
(538,178,o),
(527,180,c),
(433,198,ls),
(420,200,o),
(416,198,o),
(413,193,c),
(388,148,o),
(369,114,o),
(314,114,c),
(257,114,o),
(223,154,o),
(223,265,c),
(223,372,o),
(254,414,o),
(303,414,c),
(351,414,o),
(360,376,o),
(364,351,c),
(366,340,o),
(370,336,o),
(381,337,c),
(518,344,ls),
(535,345,o),
(541,353,o),
(536,370,c),
(520,447,o),
(441,540,o),
(298,540,c)
);
}
);
width = 556;
}
);
unicode = 99;
},
{
glyphname = d;
kernLeft = d;
lastChange = "2024-09-04 09:59:18 +0000";
layers = (
{
anchors = (
{
name = bottom;
pos = (302,0);
},
{
name = center;
pos = (314,265);
},
{
name = topright;
pos = (627,742);
}
);
background = {
anchors = (
{
name = bottom;
pos = (302,0);
},
{
name = center;
pos = (314,265);
},
{
name = topright;
pos = (627,742);
}
);
shapes = (
{
closed = 1;
nodes = (
(473,0,l),
(489,0,ls),
(498,0,o),
(501,3,o),
(501,12,c),
(501,733,ls),
(501,739,o),
(498,742,o),
(493,742,c),
(470,742,ls),
(463,742,o),
(461,739,o),
(461,732,c),
(461,493,ls),
(461,480,o),
(459,476,o),
(447,486,c),
(416,510,o),
(373,540,o),
(300,540,c),
(153,540,o),
(57,425,o),
(57,255,c),
(57,78,o),
(160,-10,o),
(288,-10,c),
(384,-10,o),
(435,49,o),
(451,66,c),
(459,74,o),
(463,73,o),
(463,62,c),
(463,11,ls),
(463,4,o),
(466,0,o),
(473,0,c)
);
},
{
closed = 1;
nodes = (
(461,426,l),
(461,170,ls),
(461,110,o),
(389,28,o),
(293,28,c),
(191,28,o),
(99,100,o),
(99,259,c),
(99,411,o),
(184,502,o),
(301,502,c),
(362,502,o),
(412,474,o),
(461,426,c)
);
}
);
};
layerId = "91AB5BCA-6A50-42DA-B2F7-8181BF189245";
shapes = (
{
closed = 1;
nodes = (
(473,0,l),
(489,0,ls),
(498,0,o),
(501,3,o),
(501,12,c),
(501,733,ls),
(501,739,o),
(498,742,o),
(493,742,c),
(470,742,ls),
(463,742,o),
(461,739,o),
(461,732,c),
(461,493,ls),
(461,480,o),
(459,476,o),
(447,486,c),
(416,510,o),
(373,540,o),
(300,540,c),
(153,540,o),
(57,425,o),
(57,255,c),
(57,78,o),
(160,-10,o),
(288,-10,c),
(384,-10,o),
(435,49,o),
(451,66,c),
(459,74,o),
(463,73,o),
(463,62,c),
(463,11,ls),
(463,4,o),
(466,0,o),
(473,0,c)
);
},
{
closed = 1;
nodes = (
(461,426,l),
(461,170,ls),
(461,110,o),
(389,28,o),
(293,28,c),
(191,28,o),
(99,100,o),
(99,259,c),
(99,411,o),
(184,502,o),
(301,502,c),
(362,502,o),
(412,474,o),
(461,426,c)
);
}
);
width = 592;
},
{
anchors = (
{
name = bottom;
pos = (307,0);
},
{
name = center;
pos = (307,265);
},
{
name = topright;
pos = (593,530);
}
);
background = {
anchors = (
{
name = bottom;
pos = (307,0);
},
{
name = center;
pos = (307,265);
},
{
name = topright;
pos = (593,530);
}
);
shapes = (
{
closed = 1;
nodes = (
(403,0,l),
(548,0,ls),
(569,0,o),
(575,8,o),
(575,25,c),
(575,719,ls),
(575,734,o),
(567,742,o),
(556,742,c),
(394,742,ls),
(382,742,o),
(376,734,o),
(376,721,c),
(376,496,ls),
(376,480,o),
(367,480,o),
(357,488,c),
(316,528,o),
(278,540,o),
(233,540,c),
(123,540,o),
(23,431,o),
(23,263,c),
(23,82,o),
(105,-10,o),
(223,-10,c),
(285,-10,o),
(324,10,o),
(363,46,c),
(370,52,o),
(378,51,o),
(378,42,c),
(378,23,ls),
(378,6,o),
(390,0,o),
(403,0,c)
);
},
{
closed = 1;
nodes = (
(375,378,l),
(375,176,ls),
(375,137,o),
(344,110,o),
(305,110,c),
(254,110,o),
(225,149,o),
(225,264,c),
(225,380,o),
(258,416,o),
(305,416,c),
(336,416,o),
(354,403,o),
(375,378,c)
);
}
);
};
layerId = "258ED206-D907-4350-8EBA-CBDDA1C16BF7";
shapes = (
{
closed = 1;
nodes = (
(403,0,l),
(548,0,ls),
(569,0,o),
(575,8,o),
(575,25,c),
(575,719,ls),
(575,734,o),
(567,742,o),
(556,742,c),
(394,742,ls),
(382,742,o),
(376,734,o),
(376,721,c),
(376,496,ls),
(376,480,o),
(367,480,o),
(357,488,c),
(316,528,o),
(278,540,o),
(233,540,c),
(123,540,o),
(23,431,o),
(23,263,c),
(23,82,o),
(105,-10,o),
(223,-10,c),
(285,-10,o),
(324,10,o),
(363,46,c),
(370,52,o),
(378,51,o),
(378,42,c),
(378,23,ls),
(378,6,o),
(390,0,o),
(403,0,c)
);
},
{
closed = 1;
nodes = (
(375,378,l),
(375,176,ls),
(375,137,o),
(344,110,o),
(305,110,c),
(254,110,o),
(225,149,o),
(225,264,c),
(225,380,o),
(258,416,o),
(305,416,c),
(336,416,o),
(354,403,o),
(375,378,c)
);
}
);
width = 616;
}
);
unicode = 100;
},
{
glyphname = dcroat;
kernLeft = d;
lastChange = "2024-09-04 09:59:18 +0000";
layers = (
{
background = {
shapes = (
{
closed = 1;
nodes = (
(577,656,l),
(577,660,o),
(575,662,o),
(572,662,c),
(293,662,ls),
(290,662,o),
(288,660,o),
(288,655,c),
(288,635,ls),
(288,629,o),
(289,627,o),
(295,627,c),
(567,627,ls),
(574,627,o),
(577,629,o),
(577,635,c)
);
},
{
ref = d;
}
);
};
layerId = "91AB5BCA-6A50-42DA-B2F7-8181BF189245";
shapes = (
{
closed = 1;
nodes = (
(577,656,l),
(577,660,o),
(575,662,o),
(572,662,c),
(293,662,ls),
(290,662,o),
(288,660,o),
(288,655,c),
(288,635,ls),
(288,629,o),
(289,627,o),
(295,627,c),
(567,627,ls),
(574,627,o),
(577,629,o),
(577,635,c)
);
},
{
ref = d;
}
);
width = 602;
},
{
background = {
shapes = (
{
closed = 1;
nodes = (
(613,669,l),
(613,680,o),
(607,687,o),
(597,687,c),
(258,687,ls),
(248,687,o),
(242,680,o),
(242,667,c),
(242,602,ls),
(242,587,o),
(247,580,o),
(264,580,c),
(584,580,ls),
(604,580,o),
(613,587,o),
(613,604,c)
);
},
{
ref = d;
}
);
};
layerId = "258ED206-D907-4350-8EBA-CBDDA1C16BF7";
shapes = (
{
closed = 1;
nodes = (
(613,669,l),
(613,680,o),
(607,687,o),
(597,687,c),
(258,687,ls),
(248,687,o),
(242,680,o),
(242,667,c),
(242,602,ls),
(242,587,o),
(247,580,o),
(264,580,c),
(584,580,ls),
(604,580,o),
(613,587,o),
(613,604,c)
);
},
{
ref = d;
}
);
width = 626;
}
);
metricLeft = d;
unicode = 273;
},
{
glyphname = eth;
lastChange = "2024-09-04 09:59:18 +0000";
layers = (
{
background = {
shapes = (
{
closed = 1;
nodes = (
(542,255,l),
(542,422,o),
(487,563,o),
(331,669,c),
(421,719,ls),
(424,721,o),
(424,724,o),
(422,727,c),
(410,749,ls),
(409,751,o),
(404,752,o),
(401,750,c),
(297,692,l),
(262,713,o),
(225,731,o),
(181,749,c),
(172,753,o),
(169,751,o),
(163,747,c),
(145,735,ls),
(140,731,o),
(141,726,o),
(146,724,c),
(188,707,o),
(225,689,o),
(259,670,c),
(104,583,ls),
(101,581,o),
(99,578,o),
(103,572,c),
(112,558,ls),
(116,552,o),
(119,550,o),
(125,553,c),
(293,648,l),
(379,590,o),
(432,523,o),
(463,451,c),
(420,494,o),
(361,520,o),
(290,520,c),
(154,520,o),
(56,408,o),
(56,252,c),
(56,98,o),
(153,-10,o),
(297,-10,c),
(451,-10,o),
(542,101,o),
(542,255,c)
);
},
{
closed = 1;
nodes = (
(301,28,l),
(185,28,o),
(98,128,o),
(98,254,c),
(98,380,o),
(185,482,o),
(300,482,c),
(414,482,o),
(500,381,o),
(500,254,c),
(500,127,o),
(416,28,o),
(301,28,c)
);
}
);
};
layerId = "91AB5BCA-6A50-42DA-B2F7-8181BF189245";
shapes = (
{
closed = 1;
nodes = (
(542,255,l),
(542,422,o),
(487,563,o),
(331,669,c),
(421,719,ls),
(424,721,o),
(424,724,o),
(422,727,c),
(410,749,ls),
(409,751,o),
(404,752,o),
(401,750,c),
(297,692,l),
(262,713,o),
(225,731,o),
(181,749,c),
(172,753,o),
(169,751,o),
(163,747,c),
(145,735,ls),
(140,731,o),
(141,726,o),
(146,724,c),
(188,707,o),
(225,689,o),
(259,670,c),
(104,583,ls),
(101,581,o),
(99,578,o),
(103,572,c),
(112,558,ls),
(116,552,o),
(119,550,o),
(125,553,c),
(293,648,l),
(379,590,o),
(432,523,o),
(463,451,c),
(420,494,o),
(361,520,o),
(290,520,c),
(154,520,o),
(56,408,o),
(56,252,c),
(56,98,o),
(153,-10,o),
(297,-10,c),
(451,-10,o),
(542,101,o),
(542,255,c)
);
},
{
closed = 1;
nodes = (
(301,28,l),
(185,28,o),
(98,128,o),
(98,254,c),
(98,380,o),
(185,482,o),
(300,482,c),
(414,482,o),
(500,381,o),
(500,254,c),
(500,127,o),
(416,28,o),
(301,28,c)
);
}
);
width = 598;
},
{
background = {
shapes = (
{
closed = 1;
nodes = (
(579,282,l),
(579,440,o),
(504,582,o),
(380,669,c),
(426,695,ls),
(432,699,o),
(433,704,o),
(430,709,c),
(409,747,ls),
(405,752,o),
(398,754,o),
(391,749,c),
(316,707,l),
(279,726,o),
(238,740,o),
(195,750,c),
(183,753,o),
(181,752,o),
(174,746,c),
(90,677,ls),
(83,671,o),
(86,665,o),
(92,663,c),
(122,653,o),
(149,641,o),
(174,628,c),
(103,589,ls),
(96,586,o),
(93,578,o),
(101,567,c),
(116,543,ls),
(123,532,o),
(129,530,o),
(140,536,c),
(236,590,l),
(264,569,o),
(283,551,o),
(302,525,c),
(304,522,o),
(304,520,o),
(300,520,c),
(142,520,o),
(21,409,o),
(21,252,c),
(21,103,o),
(135,-10,o),
(299,-10,c),
(466,-10,o),
(579,102,o),
(579,282,c)
);
},
{
closed = 1;
nodes = (
(300,118,l),
(247,118,o),
(223,162,o),
(223,256,c),
(223,351,o),
(247,396,o),
(300,396,c),
(354,396,o),
(377,351,o),
(377,256,c),
(377,163,o),
(354,118,o),
(300,118,c)
);
}
);
};
layerId = "258ED206-D907-4350-8EBA-CBDDA1C16BF7";
shapes = (
{
closed = 1;
nodes = (
(579,282,l),
(579,440,o),
(504,582,o),
(380,669,c),
(426,695,ls),
(432,699,o),
(433,704,o),
(430,709,c),
(409,747,ls),
(405,752,o),
(398,754,o),
(391,749,c),
(316,707,l),
(279,726,o),
(238,740,o),
(195,750,c),
(183,753,o),
(181,752,o),
(174,746,c),
(90,677,ls),
(83,671,o),
(86,665,o),
(92,663,c),
(122,653,o),
(149,641,o),
(174,628,c),
(103,589,ls),
(96,586,o),
(93,578,o),
(101,567,c),
(116,543,ls),
(123,532,o),
(129,530,o),
(140,536,c),
(236,590,l),
(264,569,o),
(283,551,o),
(302,525,c),
(304,522,o),
(304,520,o),
(300,520,c),
(142,520,o),
(21,409,o),
(21,252,c),
(21,103,o),
(135,-10,o),
(299,-10,c),
(466,-10,o),
(579,102,o),
(579,282,c)
);
},
{
closed = 1;
nodes = (
(300,118,l),
(247,118,o),
(223,162,o),
(223,256,c),
(223,351,o),
(247,396,o),
(300,396,c),
(354,396,o),
(377,351,o),
(377,256,c),
(377,163,o),
(354,118,o),
(300,118,c)
);
}
);
width = 600;
}
);
metricLeft = o;
metricRight = o;
unicode = 240;
},
{
glyphname = e;
kernLeft = o;
kernRight = e;
lastChange = "2024-09-04 09:59:18 +0000";
layers = (
{
anchors = (
{
name = bottom;
pos = (300,0);
},
{
name = ogonek;
pos = (393,18);
},
{
name = top;
pos = (297,530);
}
);
background = {
anchors = (
{
name = bottom;
pos = (300,0);
},
{
name = ogonek;
pos = (393,18);
},
{
name = top;
pos = (297,530);
}
);
shapes = (
{
closed = 1;
nodes = (
(98,240,l),
(98,247,o),
(100,254,o),
(104,254,c),
(515,254,ls),
(530,254,o),
(528,266,o),
(528,274,c),
(528,442,o),
(440,540,o),
(299,540,c),
(158,540,o),
(56,436,o),
(56,261,c),
(56,100,o),
(155,-10,o),
(299,-10,c),
(393,-10,o),
(463,27,o),
(509,100,c),
(512,104,o),
(511,108,o),
(508,110,c),
(485,125,ls),
(481,128,o),
(478,127,o),
(474,121,c),
(438,61,o),
(379,28,o),
(299,28,c),
(187,28,o),
(98,127,o),
(98,240,c)
);
},
{
closed = 1;
nodes = (
(99,290,l),
(98,390,o),
(166,502,o),
(298,502,c),
(414,502,o),
(486,414,o),
(486,304,c),
(486,293,o),
(483,290,o),
(469,290,c)
);
}
);
};
layerId = "91AB5BCA-6A50-42DA-B2F7-8181BF189245";
shapes = (
{
closed = 1;
nodes = (
(98,240,l),
(98,247,o),
(100,254,o),
(104,254,c),
(515,254,ls),
(530,254,o),
(528,266,o),
(528,274,c),
(528,442,o),
(440,540,o),
(299,540,c),
(158,540,o),
(56,436,o),
(56,261,c),
(56,100,o),
(155,-10,o),
(299,-10,c),
(393,-10,o),
(463,27,o),
(509,100,c),
(512,104,o),
(511,108,o),
(508,110,c),
(485,125,ls),
(481,128,o),
(478,127,o),
(474,121,c),
(438,61,o),
(379,28,o),
(299,28,c),
(187,28,o),
(98,127,o),
(98,240,c)
);
},
{
closed = 1;
nodes = (
(99,290,l),
(98,390,o),
(166,502,o),
(298,502,c),
(414,502,o),
(486,414,o),
(486,304,c),
(486,293,o),
(483,290,o),
(469,290,c)
);
}
);
width = 577;
},
{
anchors = (
{
name = bottom;
pos = (304,0);
},
{
name = ogonek;
pos = (433,26);
},
{
name = top;
pos = (301,530);
}
);
background = {
anchors = (
{
name = bottom;
pos = (304,0);
},
{
name = ogonek;
pos = (433,26);
},
{
name = top;
pos = (301,530);
}
);
shapes = (
{
closed = 1;
nodes = (
(227,212,l),
(227,224,o),
(232,229,o),
(242,229,c),
(553,229,ls),
(570,230,o),
(571,237,o),
(571,254,c),
(571,435,o),
(456,540,o),
(299,540,c),
(151,540,o),
(21,426,o),
(21,256,c),
(21,99,o),
(143,-10,o),
(303,-10,c),
(415,-10,o),
(483,17,o),
(555,118,c),
(564,129,o),
(561,138,o),
(551,142,c),
(460,179,ls),
(447,184,o),
(444,183,o),
(439,178,c),
(395,135,o),
(364,122,o),
(330,122,c),
(272,122,o),
(227,151,o),
(227,212,c)
);
},
{
closed = 1;
nodes = (
(230,333,l),
(229,395,o),
(267,423,o),
(308,423,c),
(358,423,o),
(377,372,o),
(377,346,c),
(377,334,o),
(373,332,o),
(360,332,c)
);
}
);
};
layerId = "258ED206-D907-4350-8EBA-CBDDA1C16BF7";
shapes = (
{
closed = 1;
nodes = (
(227,212,l),
(227,224,o),
(232,229,o),
(242,229,c),
(553,229,ls),
(570,230,o),
(571,237,o),
(571,254,c),
(571,435,o),
(456,540,o),
(299,540,c),
(151,540,o),
(21,426,o),
(21,256,c),
(21,99,o),
(143,-10,o),
(303,-10,c),
(415,-10,o),
(483,17,o),
(555,118,c),
(564,129,o),
(561,138,o),
(551,142,c),
(460,179,ls),
(447,184,o),
(444,183,o),
(439,178,c),
(395,135,o),
(364,122,o),
(330,122,c),
(272,122,o),
(227,151,o),
(227,212,c)
);
},
{
closed = 1;
nodes = (
(230,333,l),
(229,395,o),
(267,423,o),
(308,423,c),
(358,423,o),
(377,372,o),
(377,346,c),
(377,334,o),
(373,332,o),
(360,332,c)
);
}
);
width = 590;
}
);
unicode = 101;
},
{
glyphname = schwa;
kernLeft = o;
kernRight = o;
lastChange = "2024-09-04 09:59:18 +0000";
layers = (
{
layerId = "91AB5BCA-6A50-42DA-B2F7-8181BF189245";
shapes = (
{
closed = 1;
nodes = (
(479,290,l),
(479,283,o),
(477,276,o),
(473,276,cs),
(62,276,ls),
(47,276,o),
(49,264,o),
(49,256,cs),
(49,88,o),
(137,-10,o),
(278,-10,cs),
(419,-10,o),
(521,94,o),
(521,269,cs),
(521,430,o),
(422,540,o),
(278,540,cs),
(184,540,o),
(114,503,o),
(68,430,c),
(65,426,o),
(66,422,o),
(69,420,cs),
(92,405,l),
(96,402,o),
(99,403,o),
(103,409,cs),
(139,469,o),
(198,502,o),
(278,502,cs),
(390,502,o),
(479,403,o),
(479,290,c)
);
},
{
closed = 1;
nodes = (
(478,240,l),
(479,140,o),
(411,28,o),
(279,28,cs),
(163,28,o),
(91,116,o),
(91,226,cs),
(91,237,o),
(94,240,o),
(108,240,cs)
);
}
);
width = 577;
},
{
layerId = "258ED206-D907-4350-8EBA-CBDDA1C16BF7";
shapes = (
{
closed = 1;
nodes = (
(363,318,l),
(363,306,o),
(358,301,o),
(348,301,cs),
(37,301,l),
(20,300,o),
(19,293,o),
(19,276,cs),
(19,95,o),
(134,-10,o),
(291,-10,cs),
(439,-10,o),
(569,104,o),
(569,274,cs),
(569,431,o),
(447,540,o),
(287,540,cs),
(175,540,o),
(107,513,o),
(35,412,c),
(26,401,o),
(29,392,o),
(39,388,cs),
(130,351,ls),
(143,346,o),
(146,347,o),
(151,352,cs),
(195,395,o),
(226,408,o),
(260,408,cs),
(318,408,o),
(363,379,o),
(363,318,c)
);
},
{
closed = 1;
nodes = (
(360,197,l),
(361,135,o),
(323,107,o),
(282,107,cs),
(232,107,o),
(213,158,o),
(213,184,cs),
(213,196,o),
(217,198,o),
(230,198,cs)
);
}
);
width = 590;
}
);
metricLeft = "=|e";
metricRight = "=|e";
unicode = 601;
},
{
glyphname = f;
kernLeft = f;
kernRight = f;
lastChange = "2024-09-04 09:59:18 +0000";
layers = (
{
background = {
shapes = (
{
closed = 1;
nodes = (
(333,530,l),
(199,530,ls),
(194,530,o),
(192,532,o),
(192,537,c),
(192,627,ls),
(192,678,o),
(205,707,o),
(255,707,c),
(335,707,ls),
(340,707,o),
(343,709,o),
(343,714,c),
(343,735,ls),
(343,740,o),
(341,742,o),
(337,742,c),
(265,742,ls),
(185,742,o),
(152,700,o),
(152,618,c),
(152,537,ls),
(152,532,o),
(150,530,o),
(145,530,c),
(32,530,ls),
(28,530,o),
(26,528,o),
(26,524,c),
(26,501,ls),
(26,497,o),
(28,495,o),
(32,495,c),
(146,495,ls),
(150,495,o),
(152,492,o),
(152,488,c),
(152,10,ls),
(152,3,o),
(154,0,o),
(160,0,c),
(183,0,ls),
(189,0,o),
(192,3,o),
(192,11,c),
(192,488,ls),
(192,493,o),
(194,495,o),
(199,495,c),
(332,495,ls),
(336,495,o),
(338,497,o),
(338,501,c),
(338,524,ls),
(338,528,o),
(336,530,o),
(333,530,c)
);
}
);
};
layerId = "91AB5BCA-6A50-42DA-B2F7-8181BF189245";
shapes = (
{
closed = 1;
nodes = (
(333,530,l),
(199,530,ls),
(194,530,o),
(192,532,o),
(192,537,c),
(192,627,ls),
(192,678,o),
(205,707,o),
(255,707,c),
(335,707,ls),
(340,707,o),
(343,709,o),
(343,714,c),
(343,735,ls),
(343,740,o),
(341,742,o),
(337,742,c),
(265,742,ls),
(185,742,o),
(152,700,o),
(152,618,c),
(152,537,ls),
(152,532,o),
(150,530,o),
(145,530,c),
(32,530,ls),
(28,530,o),
(26,528,o),
(26,524,c),
(26,501,ls),
(26,497,o),
(28,495,o),
(32,495,c),
(146,495,ls),
(150,495,o),
(152,492,o),
(152,488,c),
(152,10,ls),
(152,3,o),
(154,0,o),
(160,0,c),
(183,0,ls),
(189,0,o),
(192,3,o),
(192,11,c),
(192,488,ls),
(192,493,o),
(194,495,o),
(199,495,c),
(332,495,ls),
(336,495,o),
(338,497,o),
(338,501,c),
(338,524,ls),
(338,528,o),
(336,530,o),
(333,530,c)
);
}
);
width = 364;
},
{
background = {
shapes = (
{
closed = 1;
nodes = (
(375,530,l),
(312,530,ls),
(304,530,o),
(299,533,o),
(299,543,c),
(299,561,ls),
(299,589,o),
(321,612,o),
(344,612,c),
(387,612,ls),
(399,612,o),
(405,621,o),
(405,632,c),
(404,716,l),
(404,732,o),
(394,742,o),
(375,742,c),
(262,742,ls),
(165,742,o),
(104,688,o),
(104,601,c),
(104,548,ls),
(104,535,o),
(101,530,o),
(90,530,c),
(42,530,ls),
(25,530,o),
(18,520,o),
(18,508,c),
(18,414,ls),
(18,400,o),
(26,395,o),
(40,395,c),
(96,395,ls),
(102,395,o),
(104,392,o),
(104,385,c),
(104,20,ls),
(104,7,o),
(111,0,o),
(122,0,c),
(285,0,ls),
(297,0,o),
(304,7,o),
(304,22,c),
(304,383,ls),
(304,391,o),
(309,395,o),
(316,395,c),
(378,395,ls),
(391,395,o),
(400,400,o),
(400,414,c),
(400,508,ls),
(400,520,o),
(392,530,o),
(375,530,c)
);
}
);
};
layerId = "258ED206-D907-4350-8EBA-CBDDA1C16BF7";
shapes = (
{
closed = 1;
nodes = (
(375,530,l),
(312,530,ls),
(304,530,o),
(299,533,o),
(299,543,c),
(299,561,ls),
(299,589,o),
(321,612,o),
(344,612,c),
(387,612,ls),
(399,612,o),
(405,621,o),
(405,632,c),
(404,716,l),
(404,732,o),
(394,742,o),
(375,742,c),
(262,742,ls),
(165,742,o),
(104,688,o),
(104,601,c),
(104,548,ls),
(104,535,o),
(101,530,o),
(90,530,c),
(42,530,ls),
(25,530,o),
(18,520,o),
(18,508,c),
(18,414,ls),
(18,400,o),
(26,395,o),
(40,395,c),
(96,395,ls),
(102,395,o),
(104,392,o),
(104,385,c),
(104,20,ls),
(104,7,o),
(111,0,o),
(122,0,c),
(285,0,ls),
(297,0,o),
(304,7,o),
(304,22,c),
(304,383,ls),
(304,391,o),
(309,395,o),
(316,395,c),
(378,395,ls),
(391,395,o),
(400,400,o),
(400,414,c),
(400,508,ls),
(400,520,o),
(392,530,o),
(375,530,c)
);
}
);
width = 418;
}
);
unicode = 102;
},
{
glyphname = g;
kernLeft = g;
kernRight = g;
lastChange = "2024-09-04 09:59:18 +0000";
layers = (
{
anchors = (
{
name = top;
pos = (283,530);
}
);
background = {
anchors = (
{
name = top;
pos = (283,530);
}
);
shapes = (
{
closed = 1;
nodes = (
(533,530,l),
(497,530,o),
(467,507,o),
(447,492,c),
(440,487,o),
(436,487,o),
(429,493,c),
(395,522,o),
(352,538,o),
(286,538,c),
(154,538,o),
(76,475,o),
(76,369,c),
(76,307,o),
(100,266,o),
(155,235,c),
(162,231,o),
(164,225,o),
(156,223,c),
(106,207,o),
(89,181,o),
(89,159,c),
(89,137,o),
(100,121,o),
(127,109,c),
(134,106,o),
(134,102,o),
(127,98,c),
(64,63,o),
(35,21,o),
(35,-27,c),
(35,-120,o),
(121,-175,o),
(275,-175,c),
(426,-175,o),
(514,-119,o),
(514,-19,c),
(514,60,o),
(467,110,o),
(360,116,c),
(240,123,ls),
(163,127,o),
(131,136,o),
(131,160,c),
(131,184,o),
(164,209,o),
(279,209,c),
(420,209,o),
(481,280,o),
(481,369,c),
(481,411,o),
(467,434,o),
(460,451,c),
(457,458,o),
(462,464,o),
(480,474,c),
(496,483,o),
(509,487,o),
(535,488,c),
(549,489,o),
(552,495,o),
(552,504,c),
(552,517,ls),
(552,526,o),
(548,530,o),
(533,530,c)
);
},
{
closed = 1;
nodes = (
(280,247,l),
(175,247,o),
(116,290,o),
(116,371,c),
(116,453,o),
(176,500,o),
(280,500,c),
(386,500,o),
(441,454,o),
(441,371,c),
(441,289,o),
(388,247,o),
(280,247,c)
);
},
{
closed = 1;
nodes = (
(359,75,l),
(443,70,o),
(472,36,o),
(472,-19,c),
(472,-101,o),
(406,-137,o),
(284,-137,c),
(153,-137,o),
(77,-96,o),
(77,-23,c),
(77,43,o),
(151,88,o),
(183,86,c)
);
}
);
};
guides = (
{
angle = 90;
pos = (279,374);
}
);
layerId = "91AB5BCA-6A50-42DA-B2F7-8181BF189245";
shapes = (
{
closed = 1;
nodes = (
(533,530,l),
(497,530,o),
(467,507,o),
(447,492,c),
(440,487,o),
(436,487,o),
(429,493,c),
(395,522,o),
(352,538,o),
(286,538,c),
(154,538,o),
(76,475,o),
(76,369,c),
(76,307,o),
(100,266,o),
(155,235,c),
(162,231,o),
(164,225,o),
(156,223,c),
(106,207,o),
(89,181,o),
(89,159,c),
(89,137,o),
(100,121,o),
(127,109,c),
(134,106,o),
(134,102,o),
(127,98,c),
(64,63,o),
(35,21,o),
(35,-27,c),
(35,-120,o),
(121,-175,o),
(275,-175,c),
(426,-175,o),
(514,-119,o),
(514,-19,c),
(514,60,o),
(467,110,o),
(360,116,c),
(240,123,ls),
(163,127,o),
(131,136,o),
(131,160,c),
(131,184,o),
(164,209,o),
(279,209,c),
(420,209,o),
(481,280,o),
(481,369,c),
(481,411,o),
(467,434,o),
(460,451,c),
(457,458,o),
(462,464,o),
(480,474,c),
(496,483,o),
(509,487,o),
(535,488,c),
(549,489,o),
(552,495,o),
(552,504,c),
(552,517,ls),
(552,526,o),
(548,530,o),
(533,530,c)
);
},
{
closed = 1;
nodes = (
(280,247,l),
(175,247,o),
(116,290,o),
(116,371,c),
(116,453,o),
(176,500,o),
(280,500,c),
(386,500,o),
(441,454,o),
(441,371,c),
(441,289,o),
(388,247,o),
(280,247,c)
);
},
{
closed = 1;
nodes = (
(359,75,l),
(443,70,o),
(472,36,o),
(472,-19,c),
(472,-101,o),
(406,-137,o),
(284,-137,c),
(153,-137,o),
(77,-96,o),
(77,-23,c),
(77,43,o),
(151,88,o),
(183,86,c)
);
}
);
width = 582;
},
{
anchors = (
{
name = top;
pos = (306,530);
}
);
background = {
anchors = (
{
name = top;
pos = (306,530);
}
);
shapes = (
{
closed = 1;
nodes = (
(615,562,l),
(586,562,o),
(530,534,o),
(503,496,c),
(496,486,o),
(482,485,o),
(472,493,c),
(439,519,o),
(381,538,o),
(305,538,c),
(126,538,o),
(35,469,o),
(35,373,c),
(35,312,o),
(73,265,o),
(139,237,c),
(149,231,o),
(142,228,o),
(136,225,c),
(82,202,o),
(27,169,o),
(27,122,c),
(27,81,o),
(58,56,o),
(93,39,c),
(101,35,o),
(103,31,o),
(93,28,c),
(40,13,o),
(-4,-8,o),
(-4,-53,c),
(-4,-137,o),
(98,-175,o),
(307,-175,c),
(508,-175,o),
(610,-99,o),
(610,3,c),
(610,85,o),
(544,143,o),
(396,152,c),
(244,161,ls),
(215,163,o),
(200,167,o),
(200,182,c),
(200,198,o),
(227,209,o),
(293,209,c),
(461,209,o),
(550,284,o),
(550,374,c),
(550,384,o),
(548,395,o),
(545,405,c),
(541,419,o),
(546,428,o),
(565,428,c),
(577,428,o),
(596,425,o),
(609,421,c),
(624,416,o),
(635,424,o),
(635,447,c),
(635,537,ls),
(635,555,o),
(626,562,o),
(615,562,c)
);
},
{
closed = 1;
nodes = (
(291,300,l),
(241,300,o),
(213,334,o),
(213,370,c),
(213,411,o),
(241,445,o),
(291,445,c),
(347,445,o),
(369,411,o),
(369,370,c),
(369,335,o),
(347,300,o),
(291,300,c)
);
},
{
closed = 1;
nodes = (
(371,2,l),
(414,0,o),
(437,-16,o),
(437,-35,c),
(437,-64,o),
(395,-86,o),
(317,-86,c),
(192,-86,o),
(157,-64,o),
(157,-27,c),
(157,-6,o),
(183,10,o),
(226,8,c)
);
}
);
};
layerId = "258ED206-D907-4350-8EBA-CBDDA1C16BF7";
shapes = (
{
closed = 1;
nodes = (
(615,562,l),
(586,562,o),
(530,534,o),
(503,496,c),
(496,486,o),
(482,485,o),
(472,493,c),
(439,519,o),
(381,538,o),
(305,538,c),
(126,538,o),
(35,469,o),
(35,373,c),
(35,312,o),
(73,265,o),
(139,237,c),
(149,231,o),
(142,228,o),
(136,225,c),
(82,202,o),
(27,169,o),
(27,122,c),
(27,81,o),
(58,56,o),
(93,39,c),
(101,35,o),
(103,31,o),
(93,28,c),
(40,13,o),
(-4,-8,o),
(-4,-53,c),
(-4,-137,o),
(98,-175,o),
(307,-175,c),
(508,-175,o),
(610,-99,o),
(610,3,c),
(610,85,o),
(544,143,o),
(396,152,c),
(244,161,ls),
(215,163,o),
(200,167,o),
(200,182,c),
(200,198,o),
(227,209,o),
(293,209,c),
(461,209,o),
(550,284,o),
(550,374,c),
(550,384,o),
(548,395,o),
(545,405,c),
(541,419,o),
(546,428,o),
(565,428,c),
(577,428,o),
(596,425,o),
(609,421,c),
(624,416,o),
(635,424,o),
(635,447,c),
(635,537,ls),
(635,555,o),
(626,562,o),
(615,562,c)
);
},
{
closed = 1;
nodes = (
(291,300,l),
(241,300,o),
(213,334,o),
(213,370,c),
(213,411,o),
(241,445,o),
(291,445,c),
(347,445,o),
(369,411,o),
(369,370,c),
(369,335,o),
(347,300,o),
(291,300,c)
);
},
{
closed = 1;
nodes = (
(371,2,l),
(414,0,o),
(437,-16,o),
(437,-35,c),
(437,-64,o),
(395,-86,o),
(317,-86,c),
(192,-86,o),
(157,-64,o),
(157,-27,c),
(157,-6,o),
(183,10,o),
(226,8,c)
);
}
);
width = 653;
}
);
unicode = 103;
},
{
glyphname = gacute;
kernLeft = g;
lastChange = "2024-09-04 09:59:18 +0000";
layers = (
{
layerId = "91AB5BCA-6A50-42DA-B2F7-8181BF189245";
shapes = (
{
ref = g;
},
{
pos = (419,0);
ref = acutecomb;
}
);
width = 582;
},
{
background = {
shapes = (
{
closed = 1;
nodes = (
(635,430,o,{
name = inserted;
}),
(629,420,o),
(617,420,c),
(614,420,o,{
name = inserted;
}),
(612,421,o),
(609,421,c),
(594,426,o,{
name = inserted;
}),
(580,428,o),
(565,428,c),
(552,428,o,{
name = inserted;
}),
(544,424,o),
(544,413,c),
(544,410,o,{
name = inserted;
}),
(545,408,o),
(545,405,c),
(549,394,o,{
name = inserted;
}),
(550,383,o),
(550,374,c),
(550,312,o),
(510,260,o),
(432,231,cs,{
name = inserted;
}),
(393,216,o,{
name = inserted;
}),
(348,209,o),
(293,209,c),
(231,209,o,{
name = inserted;
}),
(200,201,o),
(200,182,c),
(200,167,o),
(213,164,o),
(244,161,c),
(396,152,l),
(541,143,o),
(610,89,o),
(610,3,c),
(610,-67,o),
(564,-121,o),
(473,-152,cs,{
name = inserted;
}),
(427,-167,o,{
name = inserted;
}),
(373,-175,o),
(307,-175,c),
(95,-175,o),
(-4,-137,o),
(-4,-53,c),
(-4,-11,o),
(31,11,o),
(93,28,c),
(98,29,o,{
name = inserted;
}),
(100,30,o),
(100,33,c),
(100,36,o,{
name = inserted;
}),
(98,38,o),
(93,39,c),
(49,60,o,{
name = inserted;
}),
(27,89,o),
(27,122,c),
(27,161,o,{
name = inserted;
}),
(64,194,o),
(136,225,c),
(144,229,o),
(148,232,o),
(139,237,c),
(72,265,o),
(35,313,o),
(35,373,c),
(35,474,o),
(131,538,o),
(305,538,c),
(379,538,o),
(437,520,o),
(472,493,c),
(476,490,o,{
name = inserted;
}),
(480,488,o),
(487,488,c),
(495,488,o,{
name = inserted;
}),
(500,491,o),
(503,496,c),
(528,532,o),
(584,562,o),
(615,562,c),
(628,562,o,{
name = inserted;
}),
(635,554,o),
(635,537,c),
(635,447,l)
);
},
{
closed = 1;
nodes = (
(369,331,o),
(369,370,c),
(369,414,o),
(345,445,o),
(291,445,c),
(243,445,o),
(213,413,o),
(213,370,c),
(213,331,o),
(243,300,o),
(291,300,c),
(343,300,o)
);
},
{
closed = 1;
nodes = (
(184,9,o),
(157,-6,o),
(157,-27,c),
(157,-67,o),
(198,-86,o),
(317,-86,c),
(393,-86,o),
(437,-66,o),
(437,-35,c),
(437,-15,o),
(413,1,o),
(371,2,c),
(226,8,l)
);
},
{
closed = 1;
nodes = (
(455,655,o,{
name = inserted;
}),
(456,652,o),
(456,647,c),
(456,638,o,{
name = inserted;
}),
(450,630,o),
(435,626,c),
(202,570,l),
(195,569,o,{
name = inserted;
}),
(192,568,o),
(191,568,c),
(183,568,o,{
name = inserted;
}),
(177,574,o),
(173,583,c),
(158,626,l),
(157,631,o,{
name = inserted;
}),
(156,635,o),
(156,636,c),
(156,643,o,{
name = inserted;
}),
(159,647,o),
(166,650,c),
(404,751,l),
(405,752,o,{
name = inserted;
}),
(407,752,o),
(410,752,c),
(417,752,o,{
name = inserted;
}),
(422,748,o),
(425,739,c),
(454,658,l)
);
}
);
};
layerId = "258ED206-D907-4350-8EBA-CBDDA1C16BF7";
shapes = (
{
ref = g;
},
{
pos = (466,0);
ref = acutecomb;
}
);
width = 653;
}
);
unicode = 501;
},
{
glyphname = gcommaaccent;
kernLeft = g;
kernRight = g;
lastChange = "2024-09-04 09:59:18 +0000";
layers = (
{
anchors = (
{
name = top;
pos = (283,550);
}
);
layerId = "91AB5BCA-6A50-42DA-B2F7-8181BF189245";
shapes = (
{
closed = 1;
nodes = (
(257,632,l),
(302,632,ls),
(306,632,o),
(309,634,o),
(309,640,c),
(309,706,ls),
(309,713,o),
(307,715,o),
(301,715,c),
(293,715,ls),
(288,715,o),
(286,718,o),
(289,724,c),
(314,778,ls),
(316,782,o),
(314,786,o),
(310,786,c),
(297,786,ls),
(289,786,o),
(286,785,o),
(283,780,c),
(252,721,ls),
(252,720,o),
(251,717,o),
(251,715,c),
(251,639,ls),
(251,634,o),
(253,632,o),
(257,632,c)
);
},
{
ref = g;
}
);
width = 582;
},
{
anchors = (
{
name = top;
pos = (303,550);
}
);
layerId = "258ED206-D907-4350-8EBA-CBDDA1C16BF7";
shapes = (
{
closed = 1;
nodes = (
(256,599,l),
(350,599,ls),
(360,599,o),
(368,605,o),
(368,619,c),
(368,680,ls),
(368,696,o),
(362,702,o),
(345,702,c),
(336,702,ls),
(322,702,o),
(316,717,o),
(327,731,c),
(360,776,ls),
(366,784,o),
(359,796,o),
(348,796,c),
(330,796,ls),
(312,796,o),
(305,793,o),
(297,782,c),
(243,715,ls),
(242,712,o),
(239,707,o),
(239,702,c),
(239,615,ls),
(239,605,o),
(245,599,o),
(256,599,c)
);
},
{
ref = g;
}
);
width = 653;
}
);
unicode = 291;
},
{
glyphname = h;
kernRight = n;
lastChange = "2024-09-04 09:59:18 +0000";
layers = (
{
anchors = (
{
name = bottom;
pos = (303,0);
},
{
name = top;
pos = (325,530);
}
);
background = {
anchors = (
{
name = bottom;
pos = (303,0);
},
{
name = top;
pos = (325,530);
}
);
shapes = (
{
closed = 1;
nodes = (
(100,0,l),
(122,0,ls),
(128,0,o),
(131,3,o),
(131,9,c),
(131,410,l),
(211,471,o),
(258,502,o),
(329,502,c),
(416,502,o),
(452,455,o),
(452,377,c),
(452,9,ls),
(452,3,o),
(455,0,o),
(461,0,c),
(483,0,ls),
(489,0,o),
(492,3,o),
(492,10,c),
(492,393,ls),
(492,480,o),
(437,540,o),
(330,540,c),
(257,540,o),
(212,511,o),
(136,457,c),
(130,452,o),
(128,453,o),
(128,460,c),
(128,734,ls),
(128,740,o),
(126,742,o),
(120,742,c),
(99,742,ls),
(93,742,o),
(91,739,o),
(91,733,c),
(91,9,ls),
(91,3,o),
(94,0,o),
(100,0,c)
);
}
);
};
layerId = "91AB5BCA-6A50-42DA-B2F7-8181BF189245";
shapes = (
{
closed = 1;
nodes = (
(100,0,l),
(122,0,ls),
(128,0,o),
(131,3,o),
(131,9,c),
(131,410,l),
(211,471,o),
(258,502,o),
(329,502,c),
(416,502,o),
(452,455,o),
(452,377,c),
(452,9,ls),
(452,3,o),
(455,0,o),
(461,0,c),
(483,0,ls),
(489,0,o),
(492,3,o),
(492,10,c),
(492,393,ls),
(492,480,o),
(437,540,o),
(330,540,c),
(257,540,o),
(212,511,o),
(136,457,c),
(130,452,o),
(128,453,o),
(128,460,c),
(128,734,ls),
(128,740,o),
(126,742,o),
(120,742,c),
(99,742,ls),
(93,742,o),
(91,739,o),
(91,733,c),
(91,9,ls),
(91,3,o),
(94,0,o),
(100,0,c)
);
}
);
width = 576;
},
{
anchors = (
{
name = bottom;
pos = (306,0);
},
{
name = top;
pos = (445,530);
}
);
background = {
anchors = (
{
name = bottom;
pos = (306,0);
},
{
name = top;
pos = (445,530);
}
);
shapes = (
{
closed = 1;
nodes = (
(68,0,l),
(209,0,ls),
(233,0,o),
(242,8,o),
(242,29,c),
(242,349,l),
(261,383,o),
(285,399,o),
(316,399,c),
(348,399,o),
(368,381,o),
(368,351,c),
(368,25,ls),
(368,6,o),
(374,0,o),
(391,0,c),
(538,0,ls),
(559,0,o),
(568,10,o),
(568,30,c),
(568,375,ls),
(568,481,o),
(511,540,o),
(412,540,c),
(359,540,o),
(309,523,o),
(252,468,c),
(244,461,o),
(239,464,o),
(239,472,c),
(239,721,ls),
(239,734,o),
(233,742,o),
(221,742,c),
(61,742,ls),
(49,742,o),
(42,733,o),
(42,719,c),
(42,25,ls),
(42,7,o),
(49,0,o),
(68,0,c)
);
}
);
};
layerId = "258ED206-D907-4350-8EBA-CBDDA1C16BF7";
shapes = (
{
closed = 1;
nodes = (
(68,0,l),
(209,0,ls),
(233,0,o),
(242,8,o),
(242,29,c),
(242,349,l),
(261,383,o),
(285,399,o),
(316,399,c),
(348,399,o),
(368,381,o),
(368,351,c),
(368,25,ls),
(368,6,o),
(374,0,o),
(391,0,c),
(538,0,ls),
(559,0,o),
(568,10,o),
(568,30,c),
(568,375,ls),
(568,481,o),
(511,540,o),
(412,540,c),
(359,540,o),
(309,523,o),
(252,468,c),
(244,461,o),
(239,464,o),
(239,472,c),
(239,721,ls),
(239,734,o),
(233,742,o),
(221,742,c),
(61,742,ls),
(49,742,o),
(42,733,o),
(42,719,c),
(42,25,ls),
(42,7,o),
(49,0,o),
(68,0,c)
);
}
);
width = 605;
}
);
unicode = 104;
},
{
glyphname = hbar;
kernRight = n;
lastChange = "2024-09-04 09:59:18 +0000";
layers = (
{
background = {
shapes = (
{
closed = 1;
nodes = (
(309,656,l),
(309,660,o),
(307,662,o),
(304,662,c),
(25,662,ls),
(22,662,o),
(20,660,o),
(20,655,c),
(20,635,ls),
(20,629,o),
(21,627,o),
(27,627,c),
(299,627,ls),
(306,627,o),
(309,629,o),
(309,635,c)
);
},
{
ref = h;
}
);
};
layerId = "91AB5BCA-6A50-42DA-B2F7-8181BF189245";
shapes = (
{
closed = 1;
nodes = (
(309,656,l),
(309,660,o),
(307,662,o),
(304,662,c),
(25,662,ls),
(22,662,o),
(20,660,o),
(20,655,c),
(20,635,ls),
(20,629,o),
(21,627,o),
(27,627,c),
(299,627,ls),
(306,627,o),
(309,629,o),
(309,635,c)
);
},
{
ref = h;
}
);
width = 576;
},
{
background = {
shapes = (
{
closed = 1;
nodes = (
(374,669,l),
(374,680,o),
(368,687,o),
(358,687,c),
(19,687,ls),
(9,687,o),
(3,680,o),
(3,667,c),
(3,602,ls),
(3,587,o),
(8,580,o),
(25,580,c),
(345,580,ls),
(365,580,o),
(374,587,o),
(374,604,c)
);
},
{
pos = (3,0);
ref = h;
}
);
};
layerId = "258ED206-D907-4350-8EBA-CBDDA1C16BF7";
shapes = (
{
closed = 1;
nodes = (
(374,669,l),
(374,680,o),
(368,687,o),
(358,687,c),
(19,687,ls),
(9,687,o),
(3,680,o),
(3,667,c),
(3,602,ls),
(3,587,o),
(8,580,o),
(25,580,c),
(345,580,ls),
(365,580,o),
(374,587,o),
(374,604,c)
);
},
{
pos = (3,0);
ref = h;
}
);
width = 608;
}
);
metricRight = h;
unicode = 295;
},
{
glyphname = i;
lastChange = "2024-09-04 09:59:18 +0000";
layers = (
{
background = {
shapes = (
{
closed = 1;
nodes = (
(131,520,l),
(131,528,o),
(129,530,o),
(122,530,c),
(100,530,ls),
(93,530,o),
(91,528,o),
(91,520,c),
(91,10,ls),
(91,2,o),
(93,0,o),
(102,0,c),
(119,0,ls),
(129,0,o),
(131,2,o),
(131,12,c)
);
},
{
closed = 1;
nodes = (
(136,729,l),
(136,737,o),
(131,742,o),
(124,742,c),
(98,742,ls),
(91,742,o),
(86,737,o),
(86,729,c),
(86,658,ls),
(86,650,o),
(88,644,o),
(97,644,c),
(124,644,ls),
(134,644,o),
(136,650,o),
(136,660,c)
);
}
);
};
layerId = "91AB5BCA-6A50-42DA-B2F7-8181BF189245";
shapes = (
{
closed = 1;
nodes = (
(131,520,l),
(131,528,o),
(129,530,o),
(122,530,c),
(100,530,ls),
(93,530,o),
(91,528,o),
(91,520,c),
(91,10,ls),
(91,2,o),
(93,0,o),
(102,0,c),
(119,0,ls),
(129,0,o),
(131,2,o),
(131,12,c)
);
},
{
closed = 1;
nodes = (
(136,729,l),
(136,737,o),
(131,742,o),
(124,742,c),
(98,742,ls),
(91,742,o),
(86,737,o),
(86,729,c),
(86,658,ls),
(86,650,o),
(88,644,o),
(97,644,c),
(124,644,ls),
(134,644,o),
(136,650,o),
(136,660,c)
);
}
);
width = 222;
},
{
background = {
shapes = (
{
closed = 1;
nodes = (
(241,510,l),
(241,522,o),
(234,530,o),
(223,530,c),
(60,530,ls),
(48,530,o),
(41,522,o),
(41,507,c),
(41,25,ls),
(41,8,o),
(47,0,o),
(67,0,c),
(208,0,ls),
(231,0,o),
(241,8,o),
(241,29,c)
);
},
{
closed = 1;
nodes = (
(241,721,l),
(241,734,o),
(234,742,o),
(223,742,c),
(60,742,ls),
(48,742,o),
(41,734,o),
(41,719,c),
(41,600,ls),
(41,583,o),
(47,574,o),
(67,574,c),
(208,574,ls),
(231,574,o),
(241,583,o),
(241,603,c)
);
}
);
};
layerId = "258ED206-D907-4350-8EBA-CBDDA1C16BF7";
shapes = (
{
closed = 1;
nodes = (
(241,510,l),
(241,522,o),
(234,530,o),
(223,530,c),
(60,530,ls),
(48,530,o),
(41,522,o),
(41,507,c),
(41,25,ls),
(41,8,o),
(47,0,o),
(67,0,c),
(208,0,ls),
(231,0,o),
(241,8,o),
(241,29,c)
);
},
{
closed = 1;
nodes = (
(241,721,l),
(241,734,o),
(234,742,o),
(223,742,c),
(60,742,ls),
(48,742,o),
(41,734,o),
(41,719,c),
(41,600,ls),
(41,583,o),
(47,574,o),
(67,574,c),
(208,574,ls),
(231,574,o),
(241,583,o),
(241,603,c)
);
}
);
width = 282;
}
);
unicode = 105;
},
{
glyphname = idotless;
lastChange = "2024-09-04 09:59:18 +0000";
layers = (
{
anchors = (
{
name = ogonek;
pos = (123,13);
},
{
name = top;
pos = (111,530);
}
);
background = {
anchors = (
{
name = ogonek;
pos = (123,13);
},
{
name = top;
pos = (111,530);
}
);
shapes = (
{
closed = 1;
nodes = (
(131,520,l),
(131,528,o),
(129,530,o),
(122,530,c),
(100,530,ls),
(93,530,o),
(91,528,o),
(91,520,c),
(91,10,ls),
(91,2,o),
(93,0,o),
(102,0,c),
(119,0,ls),
(129,0,o),
(131,2,o),
(131,12,c)
);
}
);
};
layerId = "91AB5BCA-6A50-42DA-B2F7-8181BF189245";
shapes = (
{
closed = 1;
nodes = (
(131,520,l),
(131,528,o),
(129,530,o),
(122,530,c),
(100,530,ls),
(93,530,o),
(91,528,o),
(91,520,c),
(91,10,ls),
(91,2,o),
(93,0,o),
(102,0,c),
(119,0,ls),
(129,0,o),
(131,2,o),
(131,12,c)
);
}
);
width = 222;
},
{
anchors = (
{
name = ogonek;
pos = (213,9);
},
{
name = top;
pos = (145,530);
}
);
background = {
anchors = (
{
name = ogonek;
pos = (213,9);
},
{
name = top;
pos = (145,530);
}
);
shapes = (
{
closed = 1;
nodes = (
(245,510,l),
(245,522,o),
(238,530,o),
(227,530,c),
(64,530,ls),
(52,530,o),
(45,522,o),
(45,507,c),
(45,25,ls),
(45,8,o),
(51,0,o),
(71,0,c),
(212,0,ls),
(235,0,o),
(245,8,o),
(245,29,c)
);
}
);
};
layerId = "258ED206-D907-4350-8EBA-CBDDA1C16BF7";
shapes = (
{
closed = 1;
nodes = (
(241,510,l),
(241,522,o),
(234,530,o),
(223,530,c),
(60,530,ls),
(48,530,o),
(41,522,o),
(41,507,c),
(41,25,ls),
(41,8,o),
(47,0,o),
(67,0,c),
(208,0,ls),
(231,0,o),
(241,8,o),
(241,29,c)
);
}
);
width = 282;
}
);
unicode = 305;
},
{
glyphname = j;
kernLeft = j;
kernRight = j;
lastChange = "2024-09-04 09:59:18 +0000";
layers = (
{
background = {
shapes = (
{
closed = 1;
nodes = (
(131,-51,l),
(131,520,ls),
(131,527,o),
(129,530,o),
(123,530,c),
(101,530,ls),
(94,530,o),
(91,527,o),
(91,520,c),
(91,-46,ls),
(91,-110,o),
(70,-132,o),
(17,-133,c),
(-41,-134,ls),
(-45,-134,o),
(-47,-136,o),
(-47,-140,c),
(-47,-161,ls),
(-47,-169,o),
(-41,-170,o),
(18,-170,c),
(109,-170,o),
(131,-133,o),
(131,-51,c)
);
},
{
closed = 1;
nodes = (
(136,729,l),
(136,737,o),
(131,742,o),
(124,742,c),
(98,742,ls),
(91,742,o),
(86,737,o),
(86,729,c),
(86,658,ls),
(86,650,o),
(88,644,o),
(97,644,c),
(124,644,ls),
(134,644,o),
(136,650,o),
(136,660,c)
);
}
);
};
layerId = "91AB5BCA-6A50-42DA-B2F7-8181BF189245";
shapes = (
{
closed = 1;
nodes = (
(131,-51,l),
(131,520,ls),
(131,527,o),
(129,530,o),
(123,530,c),
(101,530,ls),
(94,530,o),
(91,527,o),
(91,520,c),
(91,-46,ls),
(91,-110,o),
(70,-132,o),
(17,-133,c),
(-41,-134,ls),
(-45,-134,o),
(-47,-136,o),
(-47,-140,c),
(-47,-161,ls),
(-47,-169,o),
(-41,-170,o),
(18,-170,c),
(109,-170,o),
(131,-133,o),
(131,-51,c)
);
},
{
closed = 1;
nodes = (
(136,729,l),
(136,737,o),
(131,742,o),
(124,742,c),
(98,742,ls),
(91,742,o),
(86,737,o),
(86,729,c),
(86,658,ls),
(86,650,o),
(88,644,o),
(97,644,c),
(124,644,ls),
(134,644,o),
(136,650,o),
(136,660,c)
);
}
);
width = 222;
},
{
background = {
shapes = (
{
closed = 1;
nodes = (
(242,29,l),
(242,510,ls),
(242,522,o),
(236,530,o),
(224,530,c),
(62,530,ls),
(50,530,o),
(42,522,o),
(42,507,c),
(42,36,ls),
(42,2,o),
(31,-6,o),
(18,-10,c),
(-17,-16,ls),
(-30,-19,o),
(-37,-32,o),
(-37,-43,c),
(-36,-145,ls),
(-36,-166,o),
(-24,-170,o),
(32,-170,c),
(174,-170,o),
(242,-103,o),
(242,29,c)
);
},
{
closed = 1;
nodes = (
(242,721,l),
(242,734,o),
(236,742,o),
(224,742,c),
(62,742,ls),
(50,742,o),
(42,734,o),
(42,719,c),
(42,600,ls),
(42,583,o),
(49,574,o),
(69,574,c),
(210,574,ls),
(233,574,o),
(242,583,o),
(242,603,c)
);
}
);
};
layerId = "258ED206-D907-4350-8EBA-CBDDA1C16BF7";
shapes = (
{
closed = 1;
nodes = (
(242,29,l),
(242,510,ls),
(242,522,o),
(236,530,o),
(224,530,c),
(62,530,ls),
(50,530,o),
(42,522,o),
(42,507,c),
(42,36,ls),
(42,2,o),
(31,-6,o),
(18,-10,c),
(-17,-16,ls),
(-30,-19,o),
(-37,-32,o),
(-37,-43,c),
(-36,-145,ls),
(-36,-166,o),
(-24,-170,o),
(32,-170,c),
(174,-170,o),
(242,-103,o),
(242,29,c)
);
},
{
closed = 1;
nodes = (
(242,721,l),
(242,734,o),
(236,742,o),
(224,742,c),
(62,742,ls),
(50,742,o),
(42,734,o),
(42,719,c),
(42,600,ls),
(42,583,o),
(49,574,o),
(69,574,c),
(210,574,ls),
(233,574,o),
(242,583,o),
(242,603,c)
);
}
);
width = 283;
}
);
unicode = 106;
},
{
glyphname = jdotless;
kernLeft = j;
kernRight = j;
lastChange = "2024-09-04 09:59:18 +0000";
layers = (
{
anchors = (
{
name = top;
pos = (111,530);
}
);
background = {
anchors = (
{
name = top;
pos = (131,530);
}
);
shapes = (
{
closed = 1;
nodes = (
(151,-51,l),
(151,520,ls),
(151,527,o),
(149,530,o),
(143,530,c),
(121,530,ls),
(114,530,o),
(111,527,o),
(111,520,c),
(111,-46,ls),
(111,-110,o),
(90,-132,o),
(37,-133,c),
(-21,-134,ls),
(-25,-134,o),
(-27,-136,o),
(-27,-140,c),
(-27,-161,ls),
(-27,-169,o),
(-21,-170,o),
(38,-170,c),
(129,-170,o),
(151,-133,o),
(151,-51,c)
);
}
);
};
layerId = "91AB5BCA-6A50-42DA-B2F7-8181BF189245";
shapes = (
{
closed = 1;
nodes = (
(131,-51,l),
(131,520,ls),
(131,527,o),
(129,530,o),
(123,530,c),
(101,530,ls),
(94,530,o),
(91,527,o),
(91,520,c),
(91,-46,ls),
(91,-110,o),
(70,-132,o),
(17,-133,c),
(-41,-134,ls),
(-45,-134,o),
(-47,-136,o),
(-47,-140,c),
(-47,-161,ls),
(-47,-169,o),
(-41,-170,o),
(18,-170,c),
(109,-170,o),
(131,-133,o),
(131,-51,c)
);
}
);
width = 222;
},
{
anchors = (
{
name = top;
pos = (142,530);
}
);
background = {
anchors = (
{
name = top;
pos = (154,530);
}
);
shapes = (
{
closed = 1;
nodes = (
(248,29,l),
(248,510,ls),
(248,522,o),
(242,530,o),
(230,530,c),
(68,530,ls),
(56,530,o),
(48,522,o),
(48,507,c),
(48,36,ls),
(48,2,o),
(37,-6,o),
(24,-10,c),
(-1,-16,ls),
(-14,-19,o),
(-21,-32,o),
(-21,-43,c),
(-20,-145,ls),
(-20,-166,o),
(-8,-170,o),
(38,-170,c),
(155,-170,o),
(248,-103,o),
(248,29,c)
);
}
);
};
layerId = "258ED206-D907-4350-8EBA-CBDDA1C16BF7";
shapes = (
{
closed = 1;
nodes = (
(242,29,l),
(242,510,ls),
(242,522,o),
(236,530,o),
(224,530,c),
(62,530,ls),
(50,530,o),
(42,522,o),
(42,507,c),
(42,36,ls),
(42,2,o),
(31,-6,o),
(18,-10,c),
(-17,-16,ls),
(-30,-19,o),
(-37,-32,o),
(-37,-43,c),
(-36,-145,ls),
(-36,-166,o),
(-24,-170,o),
(32,-170,c),
(174,-170,o),
(242,-103,o),
(242,29,c)
);
}
);
width = 283;
}
);
unicode = 567;
},
{
glyphname = k;
kernRight = k;
lastChange = "2024-09-04 09:59:18 +0000";
layers = (
{
anchors = (
{
name = bottom;
pos = (273,0);
}
);
background = {
anchors = (
{
name = bottom;
pos = (273,0);
}
);
shapes = (
{
closed = 1;
nodes = (
(504,12,l),
(306,331,ls),
(303,336,o),
(304,339,o),
(307,342,c),
(476,515,ls),
(485,524,o),
(484,530,o),
(474,530,c),
(442,530,ls),
(435,530,o),
(432,528,o),
(425,520,c),
(141,229,ls),
(133,221,o),
(131,222,o),
(131,234,c),
(131,732,ls),
(131,740,o),
(129,742,o),
(122,742,c),
(100,742,ls),
(93,742,o),
(91,740,o),
(91,732,c),
(91,10,ls),
(91,2,o),
(93,0,o),
(102,0,c),
(119,0,ls),
(129,0,o),
(131,2,o),
(131,12,c),
(131,152,ls),
(131,159,o),
(133,164,o),
(138,169,c),
(266,299,ls),
(271,304,o),
(272,302,o),
(274,299,c),
(456,7,ls),
(459,2,o),
(462,0,o),
(468,0,c),
(499,0,ls),
(508,0,o),
(509,4,o),
(504,12,c)
);
}
);
};
layerId = "91AB5BCA-6A50-42DA-B2F7-8181BF189245";
shapes = (
{
closed = 1;
nodes = (
(504,12,l),
(306,331,ls),
(303,336,o),
(304,339,o),
(307,342,c),
(476,515,ls),
(485,524,o),
(484,530,o),
(474,530,c),
(442,530,ls),
(435,530,o),
(432,528,o),
(425,520,c),
(141,229,ls),
(133,221,o),
(131,222,o),
(131,234,c),
(131,732,ls),
(131,740,o),
(129,742,o),
(122,742,c),
(100,742,ls),
(93,742,o),
(91,740,o),
(91,732,c),
(91,10,ls),
(91,2,o),
(93,0,o),
(102,0,c),
(119,0,ls),
(129,0,o),
(131,2,o),
(131,12,c),
(131,152,ls),
(131,159,o),
(133,164,o),
(138,169,c),
(266,299,ls),
(271,304,o),
(272,302,o),
(274,299,c),
(456,7,ls),
(459,2,o),
(462,0,o),
(468,0,c),
(499,0,ls),
(508,0,o),
(509,4,o),
(504,12,c)
);
}
);
width = 538;
},
{
anchors = (
{
name = bottom;
pos = (302,0);
}
);
background = {
anchors = (
{
name = bottom;
pos = (302,0);
}
);
shapes = (
{
closed = 1;
nodes = (
(615,28,l),
(455,337,ls),
(446,355,o),
(448,361,o),
(457,372,c),
(586,501,ls),
(599,515,o),
(595,530,o),
(572,530,c),
(435,530,ls),
(425,530,o),
(414,523,o),
(404,513,c),
(254,344,ls),
(246,335,o),
(242,340,o),
(242,346,c),
(242,721,ls),
(242,734,o),
(236,742,o),
(224,742,c),
(61,742,ls),
(50,742,o),
(42,734,o),
(42,719,c),
(42,25,ls),
(42,8,o),
(48,0,o),
(69,0,c),
(210,0,ls),
(233,0,o),
(242,8,o),
(242,29,c),
(242,130,ls),
(242,146,o),
(245,153,o),
(251,158,c),
(299,203,ls),
(309,213,o),
(314,211,o),
(320,198,c),
(392,26,ls),
(399,10,o),
(408,0,o),
(425,0,c),
(596,0,ls),
(614,0,o),
(621,17,o),
(615,28,c)
);
}
);
};
layerId = "258ED206-D907-4350-8EBA-CBDDA1C16BF7";
shapes = (
{
closed = 1;
nodes = (
(615,28,l),
(455,337,ls),
(446,355,o),
(448,361,o),
(457,372,c),
(586,501,ls),
(599,515,o),
(595,530,o),
(572,530,c),
(435,530,ls),
(425,530,o),
(414,523,o),
(404,513,c),
(254,344,ls),
(246,335,o),
(242,340,o),
(242,346,c),
(242,721,ls),
(242,734,o),
(236,742,o),
(224,742,c),
(61,742,ls),
(50,742,o),
(42,734,o),
(42,719,c),
(42,25,ls),
(42,8,o),
(48,0,o),
(69,0,c),
(210,0,ls),
(233,0,o),
(242,8,o),
(242,29,c),
(242,130,ls),
(242,146,o),
(245,153,o),
(251,158,c),
(299,203,ls),
(309,213,o),
(314,211,o),
(320,198,c),
(392,26,ls),
(399,10,o),
(408,0,o),
(425,0,c),
(596,0,ls),
(614,0,o),
(621,17,o),
(615,28,c)
);
}
);
width = 631;
}
);
unicode = 107;
},
{
glyphname = kgreenlandic;
kernRight = k;
lastChange = "2024-09-04 09:59:18 +0000";
layers = (
{
background = {
shapes = (
{
closed = 1;
nodes = (
(504,12,l),
(306,331,ls),
(303,336,o),
(304,339,o),
(307,342,c),
(476,515,ls),
(485,524,o),
(484,530,o),
(474,530,c),
(442,530,ls),
(435,530,o),
(432,528,o),
(425,520,c),
(141,229,ls),
(133,221,o),
(131,222,o),
(131,234,c),
(131,520,ls),
(131,528,o),
(129,530,o),
(122,530,c),
(100,530,ls),
(93,530,o),
(91,528,o),
(91,520,c),
(91,10,ls),
(91,2,o),
(93,0,o),
(102,0,c),
(119,0,ls),
(129,0,o),
(131,2,o),
(131,12,c),
(131,152,ls),
(131,159,o),
(133,164,o),
(138,169,c),
(266,299,ls),
(271,304,o),
(272,302,o),
(274,299,c),
(456,7,ls),
(459,2,o),
(462,0,o),
(468,0,c),
(499,0,ls),
(508,0,o),
(509,4,o),
(504,12,c)
);
}
);
};
layerId = "91AB5BCA-6A50-42DA-B2F7-8181BF189245";
shapes = (
{
closed = 1;
nodes = (
(504,12,l),
(306,331,ls),
(303,336,o),
(304,339,o),
(307,342,c),
(476,515,ls),
(485,524,o),
(484,530,o),
(474,530,c),
(442,530,ls),
(435,530,o),
(432,528,o),
(425,520,c),
(141,229,ls),
(133,221,o),
(131,222,o),
(131,234,c),
(131,520,ls),
(131,528,o),
(129,530,o),
(122,530,c),
(100,530,ls),
(93,530,o),
(91,528,o),
(91,520,c),
(91,10,ls),
(91,2,o),
(93,0,o),
(102,0,c),
(119,0,ls),
(129,0,o),
(131,2,o),
(131,12,c),
(131,152,ls),
(131,159,o),
(133,164,o),
(138,169,c),
(266,299,ls),
(271,304,o),
(272,302,o),
(274,299,c),
(456,7,ls),
(459,2,o),
(462,0,o),
(468,0,c),
(499,0,ls),
(508,0,o),
(509,4,o),
(504,12,c)
);
}
);
width = 538;
},
{
background = {
shapes = (
{
closed = 1;
nodes = (
(615,28,l),
(455,337,ls),
(446,355,o),
(448,361,o),
(457,372,c),
(586,501,ls),
(599,515,o),
(595,530,o),
(572,530,c),
(435,530,ls),
(425,530,o),
(414,523,o),
(404,513,c),
(254,344,ls),
(246,335,o),
(242,340,o),
(242,346,c),
(242,509,ls),
(242,522,o),
(236,530,o),
(224,530,c),
(61,530,ls),
(50,530,o),
(42,522,o),
(42,507,c),
(42,25,ls),
(42,8,o),
(48,0,o),
(69,0,c),
(210,0,ls),
(233,0,o),
(242,8,o),
(242,29,c),
(242,130,ls),
(242,146,o),
(245,153,o),
(251,158,c),
(299,203,ls),
(309,213,o),
(314,211,o),
(320,198,c),
(392,26,ls),
(399,10,o),
(408,0,o),
(425,0,c),
(596,0,ls),
(614,0,o),
(621,17,o),
(615,28,c)
);
}
);
};
layerId = "258ED206-D907-4350-8EBA-CBDDA1C16BF7";
shapes = (
{
closed = 1;
nodes = (
(615,28,l),
(455,337,ls),
(446,355,o),
(448,361,o),
(457,372,c),
(586,501,ls),
(599,515,o),
(595,530,o),
(572,530,c),
(435,530,ls),
(425,530,o),
(414,523,o),
(404,513,c),
(254,344,ls),
(246,335,o),
(242,340,o),
(242,346,c),
(242,509,ls),
(242,522,o),
(236,530,o),
(224,530,c),
(61,530,ls),
(50,530,o),
(42,522,o),
(42,507,c),
(42,25,ls),
(42,8,o),
(48,0,o),
(69,0,c),
(210,0,ls),
(233,0,o),
(242,8,o),
(242,29,c),
(242,130,ls),
(242,146,o),
(245,153,o),
(251,158,c),
(299,203,ls),
(309,213,o),
(314,211,o),
(320,198,c),
(392,26,ls),
(399,10,o),
(408,0,o),
(425,0,c),
(596,0,ls),
(614,0,o),
(621,17,o),
(615,28,c)
);
}
);
width = 631;
}
);
metricLeft = k;
metricRight = k;
unicode = 312;
},
{
glyphname = l;
lastChange = "2024-09-04 09:59:18 +0000";
layers = (
{
anchors = (
{
name = bottom;
pos = (111,0);
},
{
name = top;
pos = (111,742);
},
{
name = topright;
pos = (256,742);
}
);
background = {
anchors = (
{
name = bottom;
pos = (111,0);
},
{
name = top;
pos = (111,742);
},
{
name = topright;
pos = (256,742);
}
);
shapes = (
{
closed = 1;
nodes = (
(131,732,l),
(131,740,o),
(129,742,o),
(122,742,c),
(100,742,ls),
(93,742,o),
(91,740,o),
(91,732,c),
(91,10,ls),
(91,2,o),
(93,0,o),
(102,0,c),
(119,0,ls),
(129,0,o),
(131,2,o),
(131,12,c)
);
}
);
};
layerId = "91AB5BCA-6A50-42DA-B2F7-8181BF189245";
shapes = (
{
closed = 1;
nodes = (
(131,732,l),
(131,740,o),
(129,742,o),
(122,742,c),
(100,742,ls),
(93,742,o),
(91,740,o),
(91,732,c),
(91,10,ls),
(91,2,o),
(93,0,o),
(102,0,c),
(119,0,ls),
(129,0,o),
(131,2,o),
(131,12,c)
);
}
);
width = 222;
},
{
anchors = (
{
name = bottom;
pos = (146,0);
},
{
name = top;
pos = (146,742);
},
{
name = topright;
pos = (333,530);
}
);
background = {
anchors = (
{
name = bottom;
pos = (146,0);
},
{
name = top;
pos = (146,742);
},
{
name = topright;
pos = (333,530);
}
);
shapes = (
{
closed = 1;
nodes = (
(242,721,l),
(242,734,o),
(235,742,o),
(224,742,c),
(64,742,ls),
(52,742,o),
(45,734,o),
(45,719,c),
(40,25,ls),
(40,8,o),
(47,0,o),
(67,0,c),
(209,0,ls),
(232,0,o),
(242,8,o),
(242,29,c)
);
}
);
};
layerId = "258ED206-D907-4350-8EBA-CBDDA1C16BF7";
shapes = (
{
closed = 1;
nodes = (
(242,721,l),
(242,734,o),
(235,742,o),
(224,742,c),
(64,742,ls),
(52,742,o),
(45,734,o),
(45,719,c),
(40,25,ls),
(40,8,o),
(47,0,o),
(67,0,c),
(209,0,ls),
(232,0,o),
(242,8,o),
(242,29,c)
);
}
);
width = 284;
}
);
unicode = 108;
},
{
glyphname = lslash;
lastChange = "2024-09-04 09:59:18 +0000";
layers = (
{
background = {
shapes = (
{
closed = 1;
nodes = (
(240,433,l),
(240,437,o),
(238,439,o),
(233,435,c),
(8,225,ls),
(5,222,o),
(3,219,o),
(3,215,c),
(3,186,ls),
(3,181,o),
(5,177,o),
(10,181,c),
(234,392,ls),
(238,396,o),
(240,399,o),
(240,403,c)
);
},
{
pos = (10,0);
ref = l;
}
);
};
layerId = "91AB5BCA-6A50-42DA-B2F7-8181BF189245";
shapes = (
{
closed = 1;
nodes = (
(240,433,l),
(240,437,o),
(238,439,o),
(233,435,c),
(8,225,ls),
(5,222,o),
(3,219,o),
(3,215,c),
(3,186,ls),
(3,181,o),
(5,177,o),
(10,181,c),
(234,392,ls),
(238,396,o),
(240,399,o),
(240,403,c)
);
},
{
pos = (10,0);
ref = l;
}
);
width = 242;
},
{
background = {
shapes = (
{
closed = 1;
nodes = (
(344,491,l),
(344,507,o),
(337,511,o),
(320,500,c),
(39,324,ls),
(27,316,o),
(20,305,o),
(20,290,c),
(20,170,ls),
(20,153,o),
(26,150,o),
(46,163,c),
(324,345,ls),
(337,354,o),
(344,366,o),
(344,378,c)
);
},
{
pos = (40,0);
ref = l;
}
);
};
layerId = "258ED206-D907-4350-8EBA-CBDDA1C16BF7";
shapes = (
{
closed = 1;
nodes = (
(344,491,l),
(344,507,o),
(337,511,o),
(320,500,c),
(39,324,ls),
(27,316,o),
(20,305,o),
(20,290,c),
(20,170,ls),
(20,153,o),
(26,150,o),
(46,163,c),
(324,345,ls),
(337,354,o),
(344,366,o),
(344,378,c)
);
},
{
pos = (40,0);
ref = l;
}
);
width = 364;
}
);
unicode = 322;
},
{
glyphname = m;
kernLeft = n;
kernRight = n;
lastChange = "2024-09-04 09:59:18 +0000";
layers = (
{
background = {
shapes = (
{
closed = 1;
nodes = (
(100,0,l),
(122,0,ls),
(128,0,o),
(131,3,o),
(131,9,c),
(131,410,l),
(207,471,o),
(252,502,o),
(319,502,c),
(399,502,o),
(432,455,o),
(432,377,c),
(432,9,ls),
(432,3,o),
(436,0,o),
(441,0,c),
(463,0,ls),
(468,0,o),
(472,3,o),
(472,10,c),
(472,393,ls),
(472,407,o),
(477,413,o),
(489,423,c),
(528,455,o),
(587,502,o),
(660,502,c),
(740,502,o),
(773,455,o),
(773,377,c),
(773,9,ls),
(773,3,o),
(776,0,o),
(782,0,c),
(804,0,ls),
(810,0,o),
(813,3,o),
(813,10,c),
(813,393,ls),
(813,480,o),
(761,540,o),
(661,540,c),
(592,540,o),
(549,511,o),
(477,457,c),
(471,452,o),
(464,448,o),
(462,454,c),
(449,494,o),
(404,540,o),
(320,540,c),
(251,540,o),
(208,511,o),
(136,457,c),
(130,452,o),
(128,453,o),
(128,460,c),
(128,522,ls),
(128,528,o),
(126,530,o),
(120,530,c),
(99,530,ls),
(93,530,o),
(91,527,o),
(91,521,c),
(91,9,ls),
(91,3,o),
(94,0,o),
(100,0,c)
);
}
);
};
guides = (
{
pos = (271,454);
}
);
layerId = "91AB5BCA-6A50-42DA-B2F7-8181BF189245";
shapes = (
{
closed = 1;
nodes = (
(100,0,l),
(122,0,ls),
(128,0,o),
(131,3,o),
(131,9,c),
(131,410,l),
(207,471,o),
(252,502,o),
(319,502,c),
(399,502,o),
(432,455,o),
(432,377,c),
(432,9,ls),
(432,3,o),
(436,0,o),
(441,0,c),
(463,0,ls),
(468,0,o),
(472,3,o),
(472,10,c),
(472,393,ls),
(472,407,o),
(477,413,o),
(489,423,c),
(528,455,o),
(587,502,o),
(660,502,c),
(740,502,o),
(773,455,o),
(773,377,c),
(773,9,ls),
(773,3,o),
(776,0,o),
(782,0,c),
(804,0,ls),
(810,0,o),
(813,3,o),
(813,10,c),
(813,393,ls),
(813,480,o),
(761,540,o),
(661,540,c),
(592,540,o),
(549,511,o),
(477,457,c),
(471,452,o),
(464,448,o),
(462,454,c),
(449,494,o),
(404,540,o),
(320,540,c),
(251,540,o),
(208,511,o),
(136,457,c),
(130,452,o),
(128,453,o),
(128,460,c),
(128,522,ls),
(128,528,o),
(126,530,o),
(120,530,c),
(99,530,ls),
(93,530,o),
(91,527,o),
(91,521,c),
(91,9,ls),
(91,3,o),
(94,0,o),
(100,0,c)
);
}
);
width = 897;
},
{
background = {
shapes = (
{
closed = 1;
nodes = (
(67,0,l),
(208,0,ls),
(232,0,o),
(241,8,o),
(241,29,c),
(241,349,l),
(260,383,o),
(285,399,o),
(315,399,c),
(347,399,o),
(367,381,o),
(367,351,c),
(367,25,ls),
(367,6,o),
(374,0,o),
(390,0,c),
(536,0,ls),
(557,0,o),
(566,10,o),
(566,30,c),
(566,333,ls),
(566,342,o),
(567,350,o),
(574,360,c),
(589,381,o),
(615,399,o),
(640,399,c),
(671,399,o),
(692,381,o),
(692,351,c),
(692,25,ls),
(692,6,o),
(698,0,o),
(715,0,c),
(861,0,ls),
(882,0,o),
(892,10,o),
(892,30,c),
(892,373,ls),
(892,480,o),
(828,540,o),
(738,540,c),
(678,540,o),
(602,497,o),
(565,446,c),
(560,440,o),
(555,440,o),
(553,445,c),
(530,507,o),
(478,541,o),
(411,541,c),
(350,541,o),
(294,507,o),
(251,461,c),
(243,453,o),
(238,457,o),
(238,465,c),
(238,510,ls),
(238,522,o),
(232,530,o),
(220,530,c),
(60,530,ls),
(49,530,o),
(41,521,o),
(41,507,c),
(41,25,ls),
(41,7,o),
(48,0,o),
(67,0,c)
);
}
);
};
guides = (
{
angle = 90;
pos = (324,331);
}
);
layerId = "258ED206-D907-4350-8EBA-CBDDA1C16BF7";
shapes = (
{
closed = 1;
nodes = (
(67,0,l),
(208,0,ls),
(232,0,o),
(241,8,o),
(241,29,c),
(241,349,l),
(260,383,o),
(285,399,o),
(315,399,c),
(347,399,o),
(367,381,o),
(367,351,c),
(367,25,ls),
(367,6,o),
(374,0,o),
(390,0,c),
(536,0,ls),
(557,0,o),
(566,10,o),
(566,30,c),
(566,333,ls),
(566,342,o),
(567,350,o),
(574,360,c),
(589,381,o),
(615,399,o),
(640,399,c),
(671,399,o),
(692,381,o),
(692,351,c),
(692,25,ls),
(692,6,o),
(698,0,o),
(715,0,c),
(861,0,ls),
(882,0,o),
(892,10,o),
(892,30,c),
(892,373,ls),
(892,480,o),
(828,540,o),
(738,540,c),
(678,540,o),
(602,497,o),
(565,446,c),
(560,440,o),
(555,440,o),
(553,445,c),
(530,507,o),
(478,541,o),
(411,541,c),
(350,541,o),
(294,507,o),
(251,461,c),
(243,453,o),
(238,457,o),
(238,465,c),
(238,510,ls),
(238,522,o),
(232,530,o),
(220,530,c),
(60,530,ls),
(49,530,o),
(41,521,o),
(41,507,c),
(41,25,ls),
(41,7,o),
(48,0,o),
(67,0,c)
);
}
);
width = 928;
}
);
unicode = 109;
},
{
glyphname = n;
kernLeft = n;
kernRight = n;
lastChange = "2024-09-04 09:59:18 +0000";
layers = (
{
anchors = (
{
name = bottom;
pos = (293,0);
},
{
name = top;
pos = (303,530);
}
);
background = {
anchors = (
{
name = bottom;
pos = (293,0);
},
{
name = top;
pos = (303,530);
}
);
shapes = (
{
closed = 1;
nodes = (
(100,0,l),
(122,0,ls),
(128,0,o),
(131,3,o),
(131,9,c),
(131,410,l),
(211,471,o),
(258,502,o),
(329,502,c),
(416,502,o),
(452,455,o),
(452,377,c),
(452,9,ls),
(452,3,o),
(455,0,o),
(461,0,c),
(483,0,ls),
(489,0,o),
(492,3,o),
(492,10,c),
(492,393,ls),
(492,480,o),
(437,540,o),
(330,540,c),
(257,540,o),
(212,511,o),
(136,457,c),
(130,452,o),
(128,453,o),
(128,460,c),
(128,522,ls),
(128,528,o),
(126,530,o),
(120,530,c),
(99,530,ls),
(93,530,o),
(91,527,o),
(91,521,c),
(91,9,ls),
(91,3,o),
(94,0,o),
(100,0,c)
);
}
);
};
layerId = "91AB5BCA-6A50-42DA-B2F7-8181BF189245";
shapes = (
{
closed = 1;
nodes = (
(100,0,l),
(122,0,ls),
(128,0,o),
(131,3,o),
(131,9,c),
(131,410,l),
(211,471,o),
(258,502,o),
(329,502,c),
(416,502,o),
(452,455,o),
(452,377,c),
(452,9,ls),
(452,3,o),
(455,0,o),
(461,0,c),
(483,0,ls),
(489,0,o),
(492,3,o),
(492,10,c),
(492,393,ls),
(492,480,o),
(437,540,o),
(330,540,c),
(257,540,o),
(212,511,o),
(136,457,c),
(130,452,o),
(128,453,o),
(128,460,c),
(128,522,ls),
(128,528,o),
(126,530,o),
(120,530,c),
(99,530,ls),
(93,530,o),
(91,527,o),
(91,521,c),
(91,9,ls),
(91,3,o),
(94,0,o),
(100,0,c)
);
}
);
width = 576;
},
{
anchors = (
{
name = bottom;
pos = (304,0);
},
{
name = top;
pos = (304,530);
}
);
background = {
anchors = (
{
name = bottom;
pos = (304,0);
},
{
name = top;
pos = (304,530);
}
);
shapes = (
{
closed = 1;
nodes = (
(67,0,l),
(208,0,ls),
(232,0,o),
(241,8,o),
(241,29,c),
(241,349,l),
(260,383,o),
(284,399,o),
(315,399,c),
(347,399,o),
(368,381,o),
(368,351,c),
(368,25,ls),
(368,6,o),
(374,0,o),
(391,0,c),
(538,0,ls),
(559,0,o),
(568,10,o),
(568,30,c),
(568,378,ls),
(568,477,o),
(504,540,o),
(411,540,c),
(349,540,o),
(294,507,o),
(252,461,c),
(244,453,o),
(239,457,o),
(239,465,c),
(239,510,ls),
(239,522,o),
(233,530,o),
(221,530,c),
(60,530,ls),
(48,530,o),
(41,521,o),
(41,507,c),
(41,25,ls),
(41,7,o),
(48,0,o),
(67,0,c)
);
}
);
};
layerId = "258ED206-D907-4350-8EBA-CBDDA1C16BF7";
shapes = (
{
closed = 1;
nodes = (
(67,0,l),
(208,0,ls),
(232,0,o),
(241,8,o),
(241,29,c),
(241,349,l),
(260,383,o),
(284,399,o),
(315,399,c),
(347,399,o),
(368,381,o),
(368,351,c),
(368,25,ls),
(368,6,o),
(374,0,o),
(391,0,c),
(538,0,ls),
(559,0,o),
(568,10,o),
(568,30,c),
(568,378,ls),
(568,477,o),
(504,540,o),
(411,540,c),
(349,540,o),
(294,507,o),
(252,461,c),
(244,453,o),
(239,457,o),
(239,465,c),
(239,510,ls),
(239,522,o),
(233,530,o),
(221,530,c),
(60,530,ls),
(48,530,o),
(41,521,o),
(41,507,c),
(41,25,ls),
(41,7,o),
(48,0,o),
(67,0,c)
);
}
);
width = 604;
}
);
unicode = 110;
},
{
glyphname = eng;
kernLeft = n;
kernRight = n;
lastChange = "2024-09-04 09:59:18 +0000";
layers = (
{
background = {
shapes = (
{
closed = 1;
nodes = (
(330,540,l),
(268,540,o),
(223,523,o),
(136,456,c),
(130,451,o),
(128,452,o),
(128,459,c),
(128,522,ls),
(128,528,o),
(126,530,o),
(120,530,c),
(99,530,ls),
(93,530,o),
(91,527,o),
(91,521,c),
(91,9,ls),
(91,3,o),
(94,0,o),
(100,0,c),
(122,0,ls),
(128,0,o),
(131,3,o),
(131,9,c),
(131,408,l),
(196,466,o),
(262,503,o),
(325,503,c),
(420,503,o),
(452,449,o),
(452,371,c),
(452,-46,ls),
(452,-110,o),
(431,-134,o),
(378,-135,c),
(327,-136,ls),
(323,-136,o),
(321,-138,o),
(321,-142,c),
(321,-161,ls),
(321,-169,o),
(327,-170,o),
(379,-170,c),
(459,-170,o),
(492,-123,o),
(492,-41,c),
(492,393,ls),
(492,480,o),
(433,540,o),
(330,540,c)
);
}
);
};
layerId = "91AB5BCA-6A50-42DA-B2F7-8181BF189245";
shapes = (
{
closed = 1;
nodes = (
(330,540,l),
(268,540,o),
(223,523,o),
(136,456,c),
(130,451,o),
(128,452,o),
(128,459,c),
(128,522,ls),
(128,528,o),
(126,530,o),
(120,530,c),
(99,530,ls),
(93,530,o),
(91,527,o),
(91,521,c),
(91,9,ls),
(91,3,o),
(94,0,o),
(100,0,c),
(122,0,ls),
(128,0,o),
(131,3,o),
(131,9,c),
(131,408,l),
(196,466,o),
(262,503,o),
(325,503,c),
(420,503,o),
(452,449,o),
(452,371,c),
(452,-46,ls),
(452,-110,o),
(431,-134,o),
(378,-135,c),
(327,-136,ls),
(323,-136,o),
(321,-138,o),
(321,-142,c),
(321,-161,ls),
(321,-169,o),
(327,-170,o),
(379,-170,c),
(459,-170,o),
(492,-123,o),
(492,-41,c),
(492,393,ls),
(492,480,o),
(433,540,o),
(330,540,c)
);
}
);
width = 578;
},
{
background = {
shapes = (
{
closed = 1;
nodes = (
(412,540,l),
(350,540,o),
(295,507,o),
(253,461,c),
(245,453,o),
(240,457,o),
(240,465,c),
(240,510,ls),
(240,522,o),
(234,530,o),
(222,530,c),
(64,530,ls),
(52,530,o),
(45,521,o),
(45,507,c),
(41,25,ls),
(41,7,o),
(48,0,o),
(67,0,c),
(210,0,ls),
(234,0,o),
(243,8,o),
(243,29,c),
(243,349,l),
(262,383,o),
(285,399,o),
(316,399,c),
(348,399,o),
(369,381,o),
(369,351,c),
(369,36,ls),
(369,2,o),
(358,-6,o),
(345,-10,c),
(320,-16,ls),
(307,-19,o),
(300,-32,o),
(300,-43,c),
(301,-145,ls),
(301,-166,o),
(313,-170,o),
(359,-170,c),
(476,-170,o),
(569,-103,o),
(569,29,c),
(569,378,ls),
(569,477,o),
(505,540,o),
(412,540,c)
);
}
);
};
layerId = "258ED206-D907-4350-8EBA-CBDDA1C16BF7";
shapes = (
{
closed = 1;
nodes = (
(412,540,l),
(350,540,o),
(295,507,o),
(253,461,c),
(245,453,o),
(240,457,o),
(240,465,c),
(240,510,ls),
(240,522,o),
(234,530,o),
(222,530,c),
(64,530,ls),
(52,530,o),
(45,521,o),
(45,507,c),
(41,25,ls),
(41,7,o),
(48,0,o),
(67,0,c),
(210,0,ls),
(234,0,o),
(243,8,o),
(243,29,c),
(243,349,l),
(262,383,o),
(285,399,o),
(316,399,c),
(348,399,o),
(369,381,o),
(369,351,c),
(369,36,ls),
(369,2,o),
(358,-6,o),
(345,-10,c),
(320,-16,ls),
(307,-19,o),
(300,-32,o),
(300,-43,c),
(301,-145,ls),
(301,-166,o),
(313,-170,o),
(359,-170,c),
(476,-170,o),
(569,-103,o),
(569,29,c),
(569,378,ls),
(569,477,o),
(505,540,o),
(412,540,c)
);
}
);
width = 610;
}
);
metricLeft = "=n";
metricRight = "=j";
unicode = 331;
},
{
glyphname = o;
kernLeft = o;
kernRight = o;
lastChange = "2024-09-04 09:59:18 +0000";
layers = (
{
anchors = (
{
name = bottom;
pos = (298,0);
},
{
name = center;
pos = (299,265);
},
{
name = ogonek;
pos = (363,10);
},
{
name = top;
pos = (301,530);
},
{
name = topright;
pos = (429,530);
}
);
background = {
anchors = (
{
name = bottom;
pos = (298,0);
},
{
name = ogonek;
pos = (363,10);
},
{
name = top;
pos = (301,530);
}
);
shapes = (
{
closed = 1;
nodes = (
(299,-10,l),
(445,-10,o),
(542,102,o),
(542,264,c),
(542,426,o),
(445,540,o),
(300,540,c),
(154,540,o),
(56,425,o),
(56,262,c),
(56,101,o),
(152,-10,o),
(299,-10,c)
);
},
{
closed = 1;
nodes = (
(301,28,l),
(177,28,o),
(98,123,o),
(98,264,c),
(98,405,o),
(177,502,o),
(300,502,c),
(422,502,o),
(500,406,o),
(500,264,c),
(500,122,o),
(424,28,o),
(301,28,c)
);
}
);
};
layerId = "91AB5BCA-6A50-42DA-B2F7-8181BF189245";
shapes = (
{
closed = 1;
nodes = (
(299,-10,l),
(445,-10,o),
(542,102,o),
(542,264,c),
(542,426,o),
(445,540,o),
(300,540,c),
(154,540,o),
(56,425,o),
(56,262,c),
(56,101,o),
(152,-10,o),
(299,-10,c)
);
},
{
closed = 1;
nodes = (
(301,28,l),
(177,28,o),
(98,123,o),
(98,264,c),
(98,405,o),
(177,502,o),
(300,502,c),
(422,502,o),
(500,406,o),
(500,264,c),
(500,122,o),
(424,28,o),
(301,28,c)
);
}
);
width = 598;
},
{
anchors = (
{
name = bottom;
pos = (297,0);
},
{
name = center;
pos = (300,265);
},
{
name = ogonek;
pos = (378,10);
},
{
name = top;
pos = (300,530);
},
{
name = topright;
pos = (459,530);
}
);
background = {
anchors = (
{
name = bottom;
pos = (297,0);
},
{
name = ogonek;
pos = (378,10);
},
{
name = top;
pos = (300,530);
}
);
shapes = (
{
closed = 1;
nodes = (
(299,-10,l),
(464,-10,o),
(579,104,o),
(579,262,c),
(579,423,o),
(467,540,o),
(300,540,c),
(142,540,o),
(21,429,o),
(21,262,c),
(21,103,o),
(135,-10,o),
(299,-10,c)
);
},
{
closed = 1;
nodes = (
(300,118,l),
(247,118,o),
(223,162,o),
(223,266,c),
(223,371,o),
(247,416,o),
(300,416,c),
(354,416,o),
(377,371,o),
(377,266,c),
(377,163,o),
(354,118,o),
(300,118,c)
);
}
);
};
layerId = "258ED206-D907-4350-8EBA-CBDDA1C16BF7";
shapes = (
{
closed = 1;
nodes = (
(299,-10,l),
(464,-10,o),
(579,104,o),
(579,262,c),
(579,423,o),
(467,540,o),
(300,540,c),
(142,540,o),
(21,429,o),
(21,262,c),
(21,103,o),
(135,-10,o),
(299,-10,c)
);
},
{
closed = 1;
nodes = (
(300,118,l),
(247,118,o),
(223,162,o),
(223,266,c),
(223,371,o),
(247,416,o),
(300,416,c),
(354,416,o),
(377,371,o),
(377,266,c),
(377,163,o),
(354,118,o),
(300,118,c)
);
}
);
width = 600;
}
);
unicode = 111;
},
{
glyphname = oslash;
kernLeft = o;
kernRight = o;
lastChange = "2024-09-04 09:59:18 +0000";
layers = (
{
anchors = (
{
name = top;
pos = (288,530);
}
);
background = {
anchors = (
{
name = top;
pos = (288,530);
}
);
shapes = (
{
closed = 1;
nodes = (
(552,497,l),
(557,502,o),
(556,506,o),
(552,511,c),
(539,524,ls),
(533,531,o),
(528,530,o),
(522,524,c),
(25,35,ls),
(18,28,o),
(18,22,o),
(24,16,c),
(35,4,ls),
(39,-1,o),
(46,-1,o),
(51,4,c)
);
},
{
pos = (-2,0);
ref = o;
}
);
};
layerId = "91AB5BCA-6A50-42DA-B2F7-8181BF189245";
shapes = (
{
closed = 1;
nodes = (
(552,497,l),
(557,502,o),
(556,506,o),
(552,511,c),
(539,524,ls),
(533,531,o),
(528,530,o),
(522,524,c),
(25,35,ls),
(18,28,o),
(18,22,o),
(24,16,c),
(35,4,ls),
(39,-1,o),
(46,-1,o),
(51,4,c)
);
},
{
pos = (-2,0);
ref = o;
}
);
width = 575;
},
{
anchors = (
{
name = top;
pos = (302,530);
}
);
background = {
anchors = (
{
name = top;
pos = (302,530);
}
);
shapes = (
{
closed = 1;
nodes = (
(577,462,l),
(587,471,o),
(586,481,o),
(578,489,c),
(544,525,ls),
(536,533,o),
(525,531,o),
(513,520,c),
(28,69,ls),
(16,58,o),
(18,47,o),
(32,32,c),
(51,12,ls),
(66,-4,o),
(78,-3,o),
(94,12,c)
);
},
{
ref = o;
}
);
};
layerId = "258ED206-D907-4350-8EBA-CBDDA1C16BF7";
shapes = (
{
closed = 1;
nodes = (
(577,462,l),
(587,471,o),
(586,481,o),
(578,489,c),
(544,525,ls),
(536,533,o),
(525,531,o),
(513,520,c),
(28,69,ls),
(16,58,o),
(18,47,o),
(32,32,c),
(51,12,ls),
(66,-4,o),
(78,-3,o),
(94,12,c)
);
},
{
ref = o;
}
);
width = 604;
}
);
unicode = 248;
},
{
glyphname = oe;
kernLeft = o;
kernRight = e;
lastChange = "2024-09-04 09:59:18 +0000";
layers = (
{
background = {
shapes = (
{
closed = 1;
nodes = (
(299,-10,l),
(395,-10,o),
(470,37,o),
(510,117,c),
(518,133,o),
(523,132,o),
(528,120,c),
(568,39,o),
(645,-10,o),
(741,-10,c),
(835,-10,o),
(905,27,o),
(951,100,c),
(954,104,o),
(953,108,o),
(950,110,c),
(927,125,l),
(923,128,o),
(920,127,o),
(916,121,c),
(880,61,o),
(821,29,o),
(741,29,c),
(632,29,o),
(541,123,o),
(541,236,c),
(541,248,o),
(546,254,o),
(556,254,c),
(953,254,ls),
(966,254,o),
(970,262,o),
(970,271,c),
(970,439,o),
(885,540,o),
(738,540,c),
(642,540,o),
(564,487,o),
(527,402,c),
(523,393,o),
(519,393,o),
(514,402,c),
(476,488,o),
(399,540,o),
(300,540,c),
(154,540,o),
(56,428,o),
(56,262,c),
(56,98,o),
(152,-10,o),
(299,-10,c)
);
},
{
closed = 1;
nodes = (
(301,29,l),
(179,29,o),
(98,123,o),
(98,264,c),
(98,405,o),
(179,501,o),
(300,501,c),
(419,501,o),
(500,405,o),
(500,264,c),
(500,122,o),
(422,29,o),
(301,29,c)
);
},
{
closed = 1;
nodes = (
(740,501,l),
(852,501,o),
(929,414,o),
(929,304,c),
(929,293,o),
(926,290,o),
(912,290,c),
(544,291,l),
(543,412,o),
(626,501,o),
(740,501,c)
);
}
);
};
layerId = "91AB5BCA-6A50-42DA-B2F7-8181BF189245";
shapes = (
{
closed = 1;
nodes = (
(299,-10,l),
(395,-10,o),
(470,37,o),
(510,117,c),
(518,133,o),
(523,132,o),
(528,120,c),
(568,39,o),
(645,-10,o),
(741,-10,c),
(835,-10,o),
(905,27,o),
(951,100,c),
(954,104,o),
(953,108,o),
(950,110,c),
(927,125,l),
(923,128,o),
(920,127,o),
(916,121,c),
(880,61,o),
(821,29,o),
(741,29,c),
(632,29,o),
(541,123,o),
(541,236,c),
(541,248,o),
(546,254,o),
(556,254,c),
(953,254,ls),
(966,254,o),
(970,262,o),
(970,271,c),
(970,439,o),
(885,540,o),
(738,540,c),
(642,540,o),
(564,487,o),
(527,402,c),
(523,393,o),
(519,393,o),
(514,402,c),
(476,488,o),
(399,540,o),
(300,540,c),
(154,540,o),
(56,428,o),
(56,262,c),
(56,98,o),
(152,-10,o),
(299,-10,c)
);
},
{
closed = 1;
nodes = (
(301,29,l),
(179,29,o),
(98,123,o),
(98,264,c),
(98,405,o),
(179,501,o),
(300,501,c),
(419,501,o),
(500,405,o),
(500,264,c),
(500,122,o),
(422,29,o),
(301,29,c)
);
},
{
closed = 1;
nodes = (
(740,501,l),
(852,501,o),
(929,414,o),
(929,304,c),
(929,293,o),
(926,290,o),
(912,290,c),
(544,291,l),
(543,412,o),
(626,501,o),
(740,501,c)
);
}
);
width = 1019;
},
{
background = {
shapes = (
{
closed = 1;
nodes = (
(299,-10,l),
(364,-10,o),
(421,8,o),
(467,39,c),
(473,43,o),
(478,44,o),
(484,40,c),
(530,8,o),
(588,-10,o),
(653,-10,c),
(765,-10,o),
(833,17,o),
(905,118,c),
(914,129,o),
(911,138,o),
(901,142,c),
(810,179,ls),
(797,184,o),
(794,183,o),
(789,178,c),
(745,135,o),
(714,122,o),
(680,122,c),
(622,122,o),
(577,151,o),
(577,212,c),
(577,224,o),
(582,229,o),
(592,229,c),
(903,229,l),
(920,230,o),
(921,237,o),
(921,254,c),
(921,435,o),
(806,540,o),
(649,540,c),
(591,540,o),
(537,523,o),
(492,491,c),
(482,484,o),
(477,484,o),
(467,491,c),
(422,522,o),
(365,540,o),
(300,540,c),
(142,540,o),
(21,429,o),
(21,262,c),
(21,103,o),
(135,-10,o),
(299,-10,c)
);
},
{
closed = 1;
nodes = (
(300,118,l),
(247,118,o),
(223,162,o),
(223,266,c),
(223,371,o),
(247,416,o),
(300,416,c),
(354,416,o),
(377,371,o),
(377,266,c),
(377,163,o),
(354,118,o),
(300,118,c)
);
},
{
closed = 1;
nodes = (
(658,423,l),
(708,423,o),
(727,372,o),
(727,346,c),
(727,334,o),
(723,332,o),
(710,332,c),
(580,333,l),
(579,395,o),
(617,423,o),
(658,423,c)
);
}
);
};
layerId = "258ED206-D907-4350-8EBA-CBDDA1C16BF7";
shapes = (
{
closed = 1;
nodes = (
(299,-10,l),
(364,-10,o),
(421,8,o),
(467,39,c),
(473,43,o),
(478,44,o),
(484,40,c),
(530,8,o),
(588,-10,o),
(653,-10,c),
(765,-10,o),
(833,17,o),
(905,118,c),
(914,129,o),
(911,138,o),
(901,142,c),
(810,179,ls),
(797,184,o),
(794,183,o),
(789,178,c),
(745,135,o),
(714,122,o),
(680,122,c),
(622,122,o),
(577,151,o),
(577,212,c),
(577,224,o),
(582,229,o),
(592,229,c),
(903,229,l),
(920,230,o),
(921,237,o),
(921,254,c),
(921,435,o),
(806,540,o),
(649,540,c),
(591,540,o),
(537,523,o),
(492,491,c),
(482,484,o),
(477,484,o),
(467,491,c),
(422,522,o),
(365,540,o),
(300,540,c),
(142,540,o),
(21,429,o),
(21,262,c),
(21,103,o),
(135,-10,o),
(299,-10,c)
);
},
{
closed = 1;
nodes = (
(300,118,l),
(247,118,o),
(223,162,o),
(223,266,c),
(223,371,o),
(247,416,o),
(300,416,c),
(354,416,o),
(377,371,o),
(377,266,c),
(377,163,o),
(354,118,o),
(300,118,c)
);
},
{
closed = 1;
nodes = (
(658,423,l),
(708,423,o),
(727,372,o),
(727,346,c),
(727,334,o),
(723,332,o),
(710,332,c),
(580,333,l),
(579,395,o),
(617,423,o),
(658,423,c)
);
}
);
width = 940;
}
);
metricLeft = o;
metricRight = e;
unicode = 339;
},
{
glyphname = p;
kernLeft = p;
kernRight = b;
lastChange = "2024-09-04 09:59:18 +0000";
layers = (
{
background = {
shapes = (
{
closed = 1;
nodes = (
(119,530,l),
(103,530,ls),
(94,530,o),
(91,527,o),
(91,518,c),
(91,-156,ls),
(91,-162,o),
(94,-165,o),
(99,-165,c),
(122,-165,ls),
(129,-165,o),
(131,-162,o),
(131,-155,c),
(131,33,ls),
(131,46,o),
(134,49,o),
(145,40,c),
(174,16,o),
(224,-10,o),
(292,-10,c),
(439,-10,o),
(532,105,o),
(532,275,c),
(532,452,o),
(432,540,o),
(304,540,c),
(200,540,o),
(157,481,o),
(141,464,c),
(133,456,o),
(129,457,o),
(129,468,c),
(129,519,ls),
(129,526,o),
(126,530,o),
(119,530,c)
);
},
{
closed = 1;
nodes = (
(131,104,l),
(131,364,ls),
(131,424,o),
(199,502,o),
(299,502,c),
(399,502,o),
(490,430,o),
(490,271,c),
(490,119,o),
(406,28,o),
(291,28,c),
(230,28,o),
(180,57,o),
(131,104,c)
);
}
);
};
layerId = "91AB5BCA-6A50-42DA-B2F7-8181BF189245";
shapes = (
{
closed = 1;
nodes = (
(119,530,l),
(103,530,ls),
(94,530,o),
(91,527,o),
(91,518,c),
(91,-156,ls),
(91,-162,o),
(94,-165,o),
(99,-165,c),
(122,-165,ls),
(129,-165,o),
(131,-162,o),
(131,-155,c),
(131,33,ls),
(131,46,o),
(134,49,o),
(145,40,c),
(174,16,o),
(224,-10,o),
(292,-10,c),
(439,-10,o),
(532,105,o),
(532,275,c),
(532,452,o),
(432,540,o),
(304,540,c),
(200,540,o),
(157,481,o),
(141,464,c),
(133,456,o),
(129,457,o),
(129,468,c),
(129,519,ls),
(129,526,o),
(126,530,o),
(119,530,c)
);
},
{
closed = 1;
nodes = (
(131,104,l),
(131,364,ls),
(131,424,o),
(199,502,o),
(299,502,c),
(399,502,o),
(490,430,o),
(490,271,c),
(490,119,o),
(406,28,o),
(291,28,c),
(230,28,o),
(180,57,o),
(131,104,c)
);
}
);
width = 590;
},
{
background = {
shapes = (
{
closed = 1;
nodes = (
(216,530,l),
(68,530,ls),
(47,530,o),
(41,521,o),
(41,504,c),
(41,-143,ls),
(41,-158,o),
(49,-165,o),
(60,-165,c),
(223,-165,ls),
(235,-165,o),
(241,-158,o),
(241,-145,c),
(241,36,ls),
(241,56,o),
(246,55,o),
(262,41,c),
(304,1,o),
(345,-10,o),
(390,-10,c),
(502,-10,o),
(593,65,o),
(593,267,c),
(593,454,o),
(508,540,o),
(397,540,c),
(335,540,o),
(296,519,o),
(257,483,c),
(250,477,o),
(242,477,o),
(242,485,c),
(242,506,ls),
(242,523,o),
(235,530,o),
(216,530,c)
);
},
{
closed = 1;
nodes = (
(241,151,l),
(241,363,ls),
(241,395,o),
(272,419,o),
(311,419,c),
(363,419,o),
(391,389,o),
(391,273,c),
(391,145,o),
(361,111,o),
(311,111,c),
(279,111,o),
(258,127,o),
(241,151,c)
);
}
);
};
layerId = "258ED206-D907-4350-8EBA-CBDDA1C16BF7";
shapes = (
{
closed = 1;
nodes = (
(216,530,l),
(68,530,ls),
(47,530,o),
(41,521,o),
(41,504,c),
(41,-143,ls),
(41,-158,o),
(49,-165,o),
(60,-165,c),
(223,-165,ls),
(235,-165,o),
(241,-158,o),
(241,-145,c),
(241,36,ls),
(241,56,o),
(246,55,o),
(262,41,c),
(304,1,o),
(345,-10,o),
(390,-10,c),
(502,-10,o),
(593,65,o),
(593,267,c),
(593,454,o),
(508,540,o),
(397,540,c),
(335,540,o),
(296,519,o),
(257,483,c),
(250,477,o),
(242,477,o),
(242,485,c),
(242,506,ls),
(242,523,o),
(235,530,o),
(216,530,c)
);
},
{
closed = 1;
nodes = (
(241,151,l),
(241,363,ls),
(241,395,o),
(272,419,o),
(311,419,c),
(363,419,o),
(391,389,o),
(391,273,c),
(391,145,o),
(361,111,o),
(311,111,c),
(279,111,o),
(258,127,o),
(241,151,c)
);
}
);
width = 617;
}
);
unicode = 112;
},
